<?xml version="1.0" standalone="no"?>
<!DOCTYPE svg PUBLIC "-//W3C//DTD SVG 20010904//EN"
 "http://www.w3.org/TR/2001/REC-SVG-20010904/DTD/svg10.dtd">
<svg version="1.0" xmlns="http://www.w3.org/2000/svg"
 width="1080.000000pt" height="1080.000000pt" viewBox="0 0 1080.000000 1080.000000"
 preserveAspectRatio="xMidYMid meet">
<metadata>
Created by potrace 1.14, written by Peter Selinger 2001-2017
</metadata>
<g transform="translate(0.000000,1080.000000) scale(0.100000,-0.100000)"
fill="#000000" stroke="none">
<path d="M6767 10744 c-1 -1 -49 -4 -107 -8 -122 -7 -193 -18 -335 -52 -11 -3
-31 -7 -45 -10 -117 -22 -367 -129 -489 -207 l-71 -46 -102 33 c-57 19 -120
37 -142 40 -21 3 -41 8 -45 10 -3 2 -35 7 -71 11 -36 4 -74 9 -85 11 -34 7
-317 7 -375 0 -135 -17 -294 -72 -382 -132 l-36 -26 -109 21 c-158 30 -236 36
-453 35 -171 0 -263 -6 -335 -20 -11 -2 -33 -7 -50 -10 -175 -31 -395 -103
-533 -175 -54 -27 -113 -52 -132 -55 -67 -10 -125 -25 -180 -45 -60 -22 -163
-78 -168 -91 -2 -4 -8 -8 -14 -8 -5 0 -34 -23 -64 -52 -72 -69 -108 -142 -108
-222 0 -59 11 -216 19 -266 2 -14 7 -61 10 -105 3 -44 8 -100 10 -125 5 -47
12 -129 20 -240 3 -36 7 -85 10 -110 2 -25 7 -85 10 -135 3 -49 8 -108 10
-130 3 -22 7 -76 10 -120 4 -44 8 -100 10 -125 2 -25 6 -83 10 -130 3 -47 8
-101 10 -120 3 -19 7 -73 10 -120 6 -94 12 -175 20 -265 2 -33 7 -91 10 -130
3 -38 7 -97 10 -130 3 -33 7 -91 10 -130 3 -38 7 -96 10 -127 9 -104 15 -172
21 -258 3 -47 7 -101 9 -120 2 -19 6 -78 10 -130 3 -52 8 -111 10 -130 3 -19
7 -73 10 -120 3 -47 7 -103 9 -125 2 -22 7 -88 11 -146 3 -59 8 -117 10 -130
2 -13 6 -64 10 -114 3 -49 8 -110 10 -135 2 -25 7 -88 10 -140 3 -52 8 -111
10 -130 3 -19 7 -73 10 -120 3 -47 7 -105 9 -130 3 -25 7 -85 11 -135 3 -49 8
-110 10 -135 3 -25 7 -81 10 -125 3 -44 7 -98 9 -120 3 -22 7 -85 10 -140 4
-55 9 -118 11 -140 2 -22 7 -78 10 -125 3 -47 8 -101 9 -120 2 -19 7 -82 11
-140 3 -58 8 -118 10 -135 2 -16 7 -70 10 -120 3 -49 8 -112 10 -140 3 -27 7
-86 10 -130 3 -44 8 -100 10 -125 2 -25 7 -85 10 -135 4 -49 8 -106 10 -125 2
-19 6 -80 10 -135 3 -55 8 -111 10 -125 2 -14 7 -70 10 -125 3 -55 8 -116 10
-135 2 -19 6 -80 10 -135 3 -55 8 -111 9 -125 2 -14 7 -76 11 -138 3 -63 8
-126 10 -140 2 -15 6 -70 10 -122 3 -52 8 -113 10 -135 2 -22 7 -83 10 -135 3
-52 7 -111 10 -130 2 -19 7 -81 10 -137 4 -57 8 -113 10 -125 2 -13 7 -70 10
-128 4 -58 9 -123 10 -145 2 -22 6 -76 9 -120 4 -44 9 -125 11 -180 5 -139 36
-215 120 -297 58 -56 174 -111 279 -132 12 -3 73 -18 136 -35 224 -58 477
-102 725 -126 28 -3 70 -7 95 -10 25 -3 82 -7 127 -10 44 -3 107 -14 140 -24
70 -22 177 -46 258 -56 11 -2 43 -6 70 -9 101 -13 122 -15 200 -21 146 -12
178 -13 390 -21 353 -12 866 -6 1035 11 19 2 63 6 97 9 134 13 331 48 358 65
6 3 12 6 15 7 3 0 13 4 24 9 12 5 28 2 45 -8 76 -44 217 -61 536 -61 292 -1
369 6 453 39 46 19 60 37 57 72 -1 13 1 23 4 24 3 0 29 2 56 5 99 8 155 24
171 49 22 34 14 84 -17 108 -34 25 -154 42 -293 42 l-106 0 -11 28 c-25 60
-147 117 -308 143 -18 3 -42 7 -51 9 -10 2 -40 7 -67 11 -26 3 -56 8 -66 10
-23 4 -176 17 -204 18 -33 0 -29 7 21 39 115 73 187 202 214 387 18 119 2 425
-33 640 -13 81 -35 221 -40 260 -3 25 -8 56 -10 70 -13 76 -27 203 -40 383 -3
37 -7 86 -10 110 -2 23 -7 89 -10 147 -3 58 -8 130 -10 160 -24 323 -26 514
-5 647 0 0 30 18 67 38 76 42 137 99 186 177 40 62 84 178 93 245 3 26 8 51
10 55 6 9 6 248 0 274 -2 12 -7 39 -10 60 -10 64 -27 133 -48 188 -20 54 -65
197 -73 231 -57 267 -63 307 -51 372 2 10 7 53 10 95 4 42 9 86 11 97 2 11 7
54 10 95 4 42 8 84 10 93 2 10 4 26 4 35 1 10 16 21 39 29 267 86 481 381 561
776 15 71 18 126 16 283 -2 107 -6 220 -9 250 -8 83 -17 170 -22 215 -3 22 -7
60 -9 85 -2 25 -6 59 -9 75 -3 17 -8 63 -11 104 -3 41 -8 77 -9 80 -2 3 -7 43
-10 88 -4 46 -9 91 -11 102 -2 11 -7 70 -10 133 -4 62 -9 122 -11 133 -5 24
-4 312 1 370 9 110 17 169 50 350 3 17 8 46 11 65 8 51 29 90 72 135 93 97
189 294 216 440 3 17 8 44 12 60 3 17 7 82 9 146 11 455 -227 782 -622 854
-33 6 -50 18 -85 57 -23 27 -68 68 -98 91 -30 23 -57 44 -60 47 -23 23 -222
120 -295 144 -64 20 -148 42 -205 52 -25 4 -47 8 -50 9 -30 8 -276 25 -283 19z"/>
</g>
</svg>
