<?xml version="1.0" encoding="UTF-8"?><svg id="a" xmlns="http://www.w3.org/2000/svg" viewBox="0 0 1080 1080"><defs><style>.b{fill:#f2f2df;}.c{fill:#fefefe;}.d{fill:#ce4646;}.e{fill:#140e3f;}.f{fill:#404042;}</style></defs><g><path class="d" d="M720.15,473.54c-.22,.32-.46,.52-.69,.83,1.21,2.13,2.49,4.47,3.88,7.07l.18-13.89c-1.13,1.99-2.12,4.12-3.38,5.98Z"/><path class="d" d="M634.03,346.92c-4.01-4.24-7.5-9.49-9.48-16.72-25.03-20-55.84-40.88-94.1-61.28-29.32-15.63-55.7-30.23-79.48-44.05-16.52,.09-34.13,1.01-51.12,2.7-30.15,3.01-94.63-12.61-117.93-18.63l6.88,89.58c23.54,30.16,77.11,80.89,197.95,145.41,63.57,33.94,110.29,66.69,144.6,95.63,.31-8.3,1.46-15.71,2.6-20.84-.11-.12-.26-.22-.36-.34-10.96-13.22-25.8-71.59-23.54-108.99,1.94-32.13,19.15-56.27,23.99-62.48Zm-103.23-58.59c3,.04,5.4,2.54,5.37,5.57-.04,3.04-2.51,5.47-5.51,5.43-3-.04-5.4-2.54-5.37-5.57s2.51-5.47,5.51-5.43Zm-13.13,27.4c-.07,5.25-4.33,9.45-9.51,9.38s-9.33-4.38-9.26-9.63c.07-5.24,4.33-9.45,9.51-9.38,5.18,.07,9.33,4.37,9.26,9.63Zm-17.64-37.34c3,.04,5.4,2.54,5.37,5.57-.04,3.04-2.51,5.47-5.51,5.43-3-.04-5.4-2.54-5.37-5.57s2.51-5.47,5.51-5.43Zm-12.24,74.5c-3-.04-5.4-2.54-5.37-5.57s2.51-5.47,5.51-5.43c3,.04,5.4,2.54,5.37,5.57-.04,3.04-2.51,5.47-5.51,5.43Zm5.06,14.92c.04-3.04,2.51-5.47,5.51-5.43,3,.04,5.4,2.54,5.37,5.58-.04,3.04-2.51,5.47-5.51,5.43-3-.04-5.4-2.54-5.37-5.58Zm10.85,52.85c-3.7-.04-6.64-3.12-6.6-6.85s3.08-6.72,6.76-6.68c3.7,.05,6.65,3.12,6.6,6.86-.04,3.73-3.08,6.72-6.77,6.67Zm7.34-32.86c.07-5.24,4.33-9.45,9.51-9.38,5.18,.07,9.33,4.37,9.26,9.63-.07,5.25-4.33,9.45-9.51,9.38-5.18-.07-9.33-4.38-9.26-9.63Zm14.63,45.27c-3-.04-5.4-2.54-5.37-5.57s2.51-5.47,5.51-5.43c3,.04,5.4,2.54,5.37,5.57-.04,3.04-2.51,5.47-5.51,5.43Zm3.94-86.64c-3.7-.04-6.64-3.12-6.6-6.85s3.08-6.72,6.76-6.68c3.7,.05,6.65,3.12,6.6,6.86-.04,3.73-3.08,6.72-6.77,6.67Z"/><path class="d" d="M690.97,599.23c11.03,13.58,18.21,24.6,22.85,32.67l5.17-50.85c-1.76,2.34-3.51,4.54-5.2,6.5-4.69,5.44-13.1,9.76-22.82,11.67Z"/></g><path class="d" d="M620.27,1048.65c.41,.02,.82,.05,1.23,.07-.08-.07-.15-.13-.23-.2-.34,.04-.66,.09-1,.13Z"/><path class="d" d="M338.52,946.57s71.68,29.35,177.3,32.93c-83.08-44.47-142.62-80.76-183.51-113.82l6.21,80.89Z"/><path class="e" d="M675.99,954.28c3.48-1.58,5.33-2.59,5.33-2.59l17.48-171.99c-24.18-35.33-74.45-91.22-173.2-143.86-112.57-60.01-182.74-105.11-222.24-147.32l16.47,214.54c31.87,28.63,82.28,65.2,162.06,107.8,102.11,54.52,160.87,105.96,194.09,143.42Zm-177.01-166.46c-3.7-.04-6.64-3.12-6.6-6.85s3.08-6.72,6.76-6.68c3.7,.05,6.65,3.12,6.6,6.86-.04,3.73-3.08,6.72-6.77,6.67Zm21.97,12.41c-3-.04-5.4-2.54-5.37-5.57,.04-3.04,2.51-5.47,5.51-5.43,3,.04,5.4,2.54,5.37,5.58-.04,3.04-2.51,5.47-5.51,5.43Zm5.13-144.74c3,.04,5.4,2.54,5.37,5.57-.04,3.04-2.51,5.47-5.51,5.43-3-.04-5.4-2.54-5.37-5.57s2.51-5.47,5.51-5.43Zm-1.02,44.58c3.7,.05,6.65,3.12,6.6,6.86-.04,3.73-3.08,6.72-6.77,6.67-3.7-.04-6.64-3.12-6.6-6.85s3.08-6.72,6.77-6.68Zm.04,55.15c-.07,5.24-4.33,9.45-9.51,9.38-5.18-.07-9.33-4.38-9.26-9.63,.07-5.25,4.33-9.45,9.51-9.38,5.18,.07,9.33,4.37,9.26,9.63Zm-12.14-72.32c-.07,5.25-4.33,9.45-9.51,9.38s-9.33-4.38-9.26-9.63c.07-5.24,4.33-9.45,9.51-9.38,5.18,.07,9.33,4.37,9.26,9.63Zm-17.64-37.34c3,.04,5.4,2.54,5.37,5.57-.04,3.04-2.51,5.47-5.51,5.43-3-.04-5.4-2.54-5.37-5.57s2.51-5.47,5.51-5.43Zm-1.67,83.98c3,.04,5.4,2.54,5.37,5.58-.04,3.04-2.51,5.47-5.51,5.43-3-.04-5.4-2.54-5.37-5.58,.04-3.04,2.51-5.47,5.51-5.43Zm-15.94-15.06c.04-3.04,2.51-5.47,5.51-5.43,3,.04,5.4,2.54,5.37,5.57-.04,3.04-2.51,5.47-5.51,5.43-3-.04-5.4-2.54-5.37-5.57Z"/><g><path class="b" d="M811.49,1036.64c-4.78-.06-8.64,.04-12.12,.2,.03-.22,.11-.44,.11-.66,.11-8.1-14.53-17.6-75.12-22.01,10.26-4.05,19.4-11.98,24.15-25.26,9.39-26.27,4.51-57.48-1.14-93.63-1.14-7.31-2.31-14.81-3.38-22.47-3.9-27.75-7.45-88.54-9.26-123.06l2.09-19.94c11.79-4.53,21.15-12.81,27.39-24.33,14.72-27.15,8.65-64.58,1.35-81.81-3.7-8.71-7.98-25.98-12.13-48.82l2.56-24.18c.95-9.02,1.9-18.28,2.82-27.72,38.11-9.2,58.89-56.53,61.66-90.89,1.61-20.05-1.75-49.91-5.31-81.52-3.17-28.12-6.45-57.18-6.41-80.71,.04-24.77,4.51-49.25,8.64-66.58,12.31-11.93,20.91-26.85,25.58-44.4,12.14-45.67-5.83-92.2-40.92-105.93-7.9-3.08-16.11-5.09-22.2-6.3-4.77-5.92-10.26-11.25-16.4-15.88-13.18-9.95-62.69-40.52-145.3-15.12-16.77,5.14-32.39,12.8-46.52,22.83-13.7-6.11-36.97-12.84-72.18-11.55-25.44,.91-41.81,9.27-51.35,16.56-33.28-7.84-69.53-8.46-100.63-1.56-22.7,5.03-41.7,12.23-56.53,21.44-6.84,.92-12.39,1.96-17.42,3.3-20.92,6.93-43.88,22.82-39.77,44.66,1.72,10.98,16.77,202.98,33.55,420.86,3.13,40.61,6.31,82.06,9.48,123.46,4.4,57.49,8.77,114.69,12.91,169.09,4.7,61.76,9.12,119.9,12.94,170.3-2.12,14.86,4.69,37.67,32.79,45.35l2.68,.73c24.84,6.8,60.73,16.54,121.16,19.8,15.87,6.67,51.19,12.32,124.12,13.26,26.47,.34,47.91-.08,65.38-1.03,35.13-1.92,53.87-6.05,63.04-10.8,3.27,4.04,14.45,7.98,52.56,8.46,54.1,.7,54.2-6.92,54.26-11.97,0-.73,0-1.51-.15-2.31,20.3-.34,24.45-3.56,24.54-9.49,.09-6.59-4.76-10.01-31.49-10.35Zm-169.98,29.61c-17.47,.85-37.16,1.21-58.06,.94-33.48-.43-63.85-2.39-86.74-5.23-15.37-1.91-27.27-4.22-34.41-6.75-4.53-.25-8.64-.6-12.9-.93-52.79-3.98-84.89-13.19-106.73-19.27-27.23-7.58-22.17-31.56-22.17-31.56,0,0-4.78-64.4-11.81-158.49-3.63-48.64-7.86-105.2-12.35-164.98-5.42-72.26-11.21-149.11-16.75-222.22-13.67-180.35-25.84-337.63-27.23-345.2-2.17-11.8,11.19-20.62,20.8-25.38,3.1-1.54,5.8-2.68,7.46-3.31,1.08-.41,1.79-.67,1.79-.67,4.14-1.11,9.69-2.07,16.26-2.93,.47-.06,.93-.12,1.41-.18,1.11-.75,2.34-1.52,3.59-2.29,10.8-6.65,26.75-13.77,50.23-19.07,34.02-7.68,71.15-4.62,99.7,3.29,5.01-5.19,19.36-17.01,47.52-18.04,34.28-1.26,58.28,5.89,71.98,14.1,12.43-10.1,28.36-19.75,48.47-26.05,31.09-9.73,58.27-10.85,80.67-7.23,8.63,1.39,16.4,3.58,23.54,6.18,10.58,3.87,19.65,8.69,26.61,14.05,7.12,5.49,12.41,11.55,16.57,17.55,4.68,.77,15.11,2.76,24.71,6.59,28.69,11.45,42.08,51.77,32.1,90.03-5.04,19.33-14.75,32.03-24.21,40.55-4.7,19.05-9.9,46.41-9.94,74.45-.06,51.11,14.42,125.87,11.59,161.91-2.59,32.89-23.22,79.41-59.65,80.04-1.25,13.27-2.53,26.26-3.83,38.76-.06-.32-.14-.91-.21-1.3-.88,8.48-1.76,17.01-2.64,25.55-.03,.25-.05,.5-.08,.74,.18,1.05,.36,2.09,.55,3.17,3.27,18.37,7.81,39.99,12.79,51.98,9.2,22.14,14.75,82.37-28.35,90.58-1.05,10.25-2.09,20.38-3.11,30.36,1.96,38.53,5.41,97.87,9.28,125.91,5.97,43.38,14.98,81.98,5.12,110.12-3.28,9.35-9.68,14.48-16.71,17.18-.53,.2-1.03,.52-1.57,.69-8,2.58-16.53,1.95-22.61-.22-.13,.93-.28,1.85-.43,2.75-.39,2.42-.88,4.73-1.45,6.95,4.6,.18,9.08,.39,13.48,.62,51.55,2.72,88.78,9.09,88.68,16.06-.09,6.69-34.63,11.94-83.11,13.57,2.05,1.14,3.22,2.31,3.21,3.51-.08,6.12-29.02,11.04-71.07,13.08Zm122.92-2.42c-26.01-.34-47.07-3.17-47.02-6.34,.04-3.17,21.17-5.46,47.18-5.12,26.01,.34,47.07,3.17,47.02,6.34-.04,3.17-21.16,5.46-47.18,5.12Zm46.88-14.26c-13.6-.17-24.61-1.66-24.6-3.32,.03-1.66,11.07-2.85,24.68-2.68,13.6,.18,24.62,1.66,24.6,3.32-.02,1.66-11.07,2.85-24.68,2.68Z"/><path class="b" d="M735.13,325.2c-1.56,.79-3.3,1.13-5.11,1.27,2.37,7.79,6.42,22.26,9.49,39.53,.31,1.77,.49,3.91,.73,5.91l5.75-56.58c-4.03,4.82-7.79,8.32-10.86,9.88Z"/><path class="b" d="M779.05,100.57c9.04,9.06,6.79,18.44,6.79,18.44,0,0-2.18,21.04-5.82,56.23,1.1,4.51,2.02,8.87,2.82,13.08,2.99-1.69,6.15-4.02,9.24-7.44,11.3-12.48,25.08-44.77,12.06-71.1-7.97-16.1-18.18-23.58-24.94-27,1.91,5.63,2.86,10.26,3.29,12.74,.42,2.47-1.07,4.37-3.44,5.05Zm8.59,61.27c3.45-6.42,5.67-13.43,6.73-20.66,.54-3.62,.69-7.24,.64-10.89-.03-1.67-.07-3.35-.21-5.02-.16-1.94-.53-3.87,.7-5.56,.77-1.05,2.2-1.71,3.41-.91,3.33,2.21,3.13,7.85,3.26,11.49,.14,4.02-.26,8.11-.93,12.07-1.36,7.94-4.47,15.59-8.75,22.37-1.95,3.1-6.61,.36-4.86-2.88Z"/><path class="b" d="M424.77,150.66s.03,0,.04,0c.11-.01,.22-.02,.32-.05-.04,.02-.77,.08-.36,.05Z"/><path class="b" d="M732.56,447.53c-2.38,7.16-5.49,13.8-9.03,20.03l-.18,13.89c1.59,2.97,3.18,6.11,4.8,9.48l4.41-43.39Z"/><path class="b" d="M560.18,114.43c5.16-5.62,13.61-12.05,25.73-11.89,21.39,.29,46.05,22.86,59.25,57.91,13.22,35.05,7.57,104.73,3.7,128.73-3.87,24.01,5.26,52.99,19.97,64.01,10.79,8.08,9.06,19.5,7.38,25.04-.61,2.01-1.21,3.3-1.21,3.3,0,0-12.87-15.2-27.02-23.8-.19-.12-.4-.26-.59-.38-8.56,13.42-15.84,30.75-16.22,60.29-.49,37.88,20.9,83.41,28.38,91.17,7.47,7.77,9.17,14.7,9.98,20.57,.5,3.58-8.91,3.58-18.8,.07-2.01,5.86-4.01,15.09-2.57,24.87,1.09,7.41,4.05,15.05,11.1,21.66,6.43,6.02,13.09,8.69,19.61,9.12,16.26,1.07,31.5-13.3,39.1-35.41,7.97-23.19-4.24-50.19-10.88-62.29-18.63,14.42-39.22,9.2-47.65-5.05-10.46-17.73,9.84-37.91,13.83-36.05,3.99,1.85,7.95,5.51,1.62,13.1-6.33,7.58-7.83,19.74,8.22,19.05,12.54-.54,27.06-14.18,35.45-40.87,2.35-7.47,4.31-15.79,5.5-25.34,4.4-35.21-8.18-77.05-13.23-91.96-14.45-9.03-27.96-25.41-27.49-33.65,.77-13.22,16.86-17.21,18.48-5.17,1.63,12.05,13.33,26.03,23.48,21.96,10.15-4.08,34.34-37.44,38.33-70.46,3.99-33.02-13.6-97.6-28.19-117.63-14.6-20.04-61.8-45.31-130.44-20.36,0,0,18.25-32.84,84.69-25.94,14.74,1.53,27.28,7.02,38.09,14.9,4.41,.56,8.93,1.12,13.05,1.68,1.9,.26,3.56,.59,5.3,.9-17.35-30.04-55.17-45.59-87.87-32.43-2.05,.83-2.87-2.48-.9-3.31,19.58-8.34,41.38-9.13,60.78,.12,16.05,7.65,27.62,20.85,34.68,37,4.51,1.07,8.5,2.29,11.88,3.67-1.28-2.08-2.51-4.5-3.62-7.44-8.19-21.76-22.26-36.38-48.44-44.84-26.17-8.46-66.81-1.63-98.15,10.13-31.34,11.76-45.48,36.83-55.84,46.17-10.37,9.33-26.78,15.13-21.31,5.28,0,0,6.43-13.55,21.14-29.19-7.23-4.74-20.58-11.24-39.78-11.49-19.51-.26-32.61,6.52-39.53,11.4,8.11,4.02,14.49,8.43,18.28,12.97,17.11,20.52-9.89,7.09-25.81-2.15-15.92-9.23-47.23-12.04-90.93-9.01-43.71,3.03-68.23,16.23-73.23,23.39-3.22,4.62-4.39,6.77-5.77,8.59,34.2,5.26,118.32,8.23,219.25,9.56,10.75,.14,26.6-.31,39.18-.49Zm118.81,452.81c3.31,.04,7.07-.8,9.89-2.28,1.02-.53,2.01-1.13,2.97-1.8,.58-.4,.92-.67,1.71-1.42,1.58-1.47,3.11-3.3,4.98-4.43,.96-.57,2.16-1.02,3.27-1.02,.24,0,2.56,.43,.76,.13,1.49,.24,2.39,.72,3.32,1.86-.31-.47-.45-.68,.19,.18-.06-.08-.13-.1-.19-.18,.29,.44,.73,1.1,.83,1.34,.33,.78,.45,1.51,.43,2.38-.03,1.61-.62,3.08-1.41,4.45-2.24,3.97-6.36,7.06-10.31,9.13-7.37,3.87-15.68,4.68-23.47,2.19-1.14-.36-2.3-.59-3.4-1.1-6.92-3.21-11.38-9.4-14.09-16.37-.4-1.02-.87-2.01-1.18-3.06-.87-2.89,3.43-4.73,4.81-2.06,2.19,4.25,5.51,6.64,9.56,8.86,1.76,.96,3.59,1.72,5.57,2.27,2.37,.66,3.57,.88,5.77,.9Zm-21.16-184.51c-.77,1.51-1.37,3.12-2.18,4.62-.81,1.5-1.78,2.91-2.53,4.45-1.27,2.57-2.17,5.58-2.73,8.63-1.03,5.77-1.5,13.12,1.17,18.63,1.46,3.03-2.9,5.68-4.5,2.66-1.84-3.49-3.64-7.09-4.73-10.91-1.04-3.62-1.26-7.86-.82-11.6,.51-4.29,1.6-8.34,3.34-12.3,1.79-4.06,4.24-6.91,7.96-9.28,3.26-2.07,6.64,1.94,5.02,5.09Zm12.03-47.47c-8.27-8.72-13.32-19.94-14.37-32-.51-5.88,.2-11.87,1.74-17.56,1.36-5.04,3.46-11.61,7.54-15.09,1.42-1.22,3.33-.04,3.02,1.78-.86,5.12-3.28,9.86-3.97,15.09-.63,4.92-.47,9.99,.11,14.91,1.16,9.91,4.87,19.77,11.31,27.42,3.14,3.73-1.94,9.07-5.39,5.45Zm37.46,30.05c-.53-2.97,3.56-5.2,5.1-2.18,3.37,6.61,4.21,14.77,5.19,22.03,.96,7.17,1.37,14.35,.6,21.55-.76,7.19-2.52,14.05-5.26,20.7-.12,.3-.19,.62-.31,.92-3.07,7.17-7.21,12.98-11.71,19.23-2.2,3.05-7.27,.2-5.1-3.02,5.28-7.83,8.66-17.35,11.08-26.86,.99-3.88,1.86-7.76,2.56-11.52,1.23-6.61,1.93-13.4,1.73-20.13-.22-7.23-2.64-13.73-3.88-20.73Zm8.33-97.44c6.04,6.93,16.03,1.33,19.87-5.07,4.5-7.5,5.66-17.06,7.93-25.41,5.2-19.13,.95-41.02-5.91-59.19-1.18-3.13,3.72-4.41,4.93-1.37,4.64,11.69,7.42,23.96,8.38,36.52,.92,11.95,1.48,25.31-1.06,37.07-2.11,9.79-6.62,21.15-15.84,26.16-8.03,4.37-17.89,2.69-23.45-4.71-2.26-3.02,2.72-6.79,5.14-4.02Zm-11.71-119.57c-5.42-9.6-13.91-17.05-23.63-21.99-9.92-5.05-20.13-8.14-31.32-6.67-2.38,.31-2.89-3.8-.56-4.23,11.62-2.15,24.62-1.27,35.27,4.23,10.86,5.6,19.57,14.84,24.61,26.07,1.31,2.94-2.72,5.49-4.36,2.58Zm-86.21-45.14c13.52-7.28,30.97-8.68,45.87-6.5,16.07,2.34,30.11,9.68,42.11,20.57,1.63,1.48-.61,4.43-2.35,3.08-11.6-8.97-25.94-14.46-40.24-17-7.33-1.3-15.01-1.63-22.43-1.15-7.49,.48-14.3,2.57-21.48,4.53-2.08,.57-3.41-2.49-1.48-3.54Zm-185.34-13.29c-26.39-8.81-56.8-6.64-82.1,4.95-2.97,1.36-5.57-2.86-2.6-4.51,13.13-7.29,27.1-11.84,42.11-12.65,14.92-.81,30.04,1.7,44.01,7.02,3.16,1.2,1.87,6.29-1.42,5.19Zm75.24-11.51c-3.55,1.02-4.86-4.27-1.5-5.5,4.87-1.78,10.05-2.63,15.23-2.44,2.72,.1,5.48,.43,8.1,1.18,2.74,.79,5.38,1.68,7.2,4.02,.81,1.04,1.14,2.15,.64,3.42-.44,1.1-1.61,1.96-2.82,1.91-1.62-.05-2.99-.28-4.5-.9-.54-.21-1.76-.67-2.56-.92-2.21-.7-4.47-1.34-6.76-1.68-4.31-.63-8.84-.3-13.03,.91Z"/><path class="b" d="M698.8,779.7l15.02-147.8c-4.64-8.07-11.83-19.09-22.85-32.67-16.54,3.25-36.88-.54-49.28-18.03-9.01-12.7-10.85-28.3-10.35-41.62-34.3-28.95-81.03-61.7-144.6-95.63-120.84-64.52-174.42-115.25-197.95-145.41l14.58,189.98c39.5,42.21,109.67,87.31,222.24,147.32,98.75,52.65,149.02,108.53,173.2,143.86ZM303.2,439.76c-.5-2.08,2.32-4.2,3.86-2.27,1.78,2.23,2.93,4.91,4.4,7.36,1.37,2.28,2.85,4.5,4.44,6.63,3.23,4.33,6.82,8.4,10.78,12.05,.75,.69,.7,2,0,2.7-.79,.78-1.86,.64-2.67,0-4.4-3.46-8.47-7.34-11.95-11.76-1.77-2.26-3.45-4.6-4.99-7.02-1.5-2.38-3.22-4.92-3.88-7.69Zm43.92,63.16c-8.73-4.35-16.71-9.89-23.84-16.6-3.6-3.39-6.92-7.02-9.94-10.94-1.48-1.91-2.89-3.87-4.25-5.88-1.29-1.93-2.91-3.97-3.59-6.22-.69-2.29,2.25-3.87,3.86-2.28,1.65,1.64,2.78,3.99,4.13,5.9,1.33,1.88,2.72,3.71,4.18,5.49,2.91,3.55,6,7,9.28,10.21,6.65,6.51,14.14,12.22,22.16,16.88,2.22,1.28,.26,4.56-1.99,3.44Zm192.3,31.59c3,.04,5.4,2.54,5.37,5.57s-2.51,5.47-5.51,5.43c-3-.04-5.4-2.54-5.37-5.57,.04-3.04,2.51-5.47,5.51-5.43Zm-5.59,25.78c-.04,3.04-2.51,5.47-5.51,5.43-3-.04-5.4-2.54-5.37-5.57,.04-3.04,2.51-5.47,5.51-5.43,3,.04,5.4,2.54,5.37,5.57Zm-13.96-62.1c5.18,.07,9.33,4.38,9.26,9.63-.07,5.24-4.33,9.45-9.51,9.38-5.18-.07-9.33-4.37-9.26-9.63,.07-5.25,4.33-9.45,9.51-9.38Zm-21.93-18.36c3,.04,5.4,2.54,5.37,5.57s-2.51,5.47-5.51,5.43c-3-.04-5.4-2.54-5.37-5.57,.04-3.04,2.51-5.47,5.51-5.43Zm-6.89,51.26c.04-3.73,3.08-6.72,6.77-6.67,3.7,.04,6.64,3.12,6.6,6.85s-3.08,6.72-6.77,6.68c-3.7-.05-6.65-3.12-6.6-6.86Zm14.58,58.07c-5.18-.07-9.33-4.37-9.26-9.63,.07-5.25,4.33-9.45,9.51-9.38,5.18,.07,9.33,4.38,9.26,9.63-.07,5.24-4.33,9.45-9.51,9.38Zm9.41,16.81c.04-3.73,3.08-6.72,6.76-6.67,3.7,.04,6.64,3.12,6.6,6.85-.04,3.73-3.08,6.72-6.77,6.68-3.7-.05-6.65-3.12-6.6-6.86Z"/><path class="b" d="M633.21,215.69c-3.31,1.16-8.19,2.7-15.84,4.82-17.59,4.88-93.12,11.11-118.61,7.16-13.07-2.02-29.78-2.9-47.79-2.8,23.78,13.82,50.16,28.42,79.48,44.05,38.26,20.4,69.07,41.27,94.1,61.28-2.47-9.03-2.67-20.94,1.09-37.1,6.09-26.16,9.28-52.56,7.57-77.4Zm-106.93,36.4c-3.7-.05-6.65-3.12-6.6-6.86,.04-3.73,3.08-6.72,6.77-6.67,3.7,.04,6.64,3.12,6.6,6.85s-3.08,6.72-6.76,6.68Z"/><path class="b" d="M481.9,810.87c-79.78-42.6-130.2-79.17-162.06-107.8l12.48,162.62c40.89,33.06,100.43,69.34,183.51,113.82,.77,.03,1.5,.08,2.28,.1,88.01,2.65,141.65-17.95,157.88-25.32-33.22-37.45-91.98-88.9-194.09-143.42Zm33.56,30.93c5.18,.07,9.33,4.38,9.26,9.63-.07,5.24-4.33,9.45-9.51,9.38-5.18-.07-9.33-4.37-9.26-9.63,.07-5.24,4.33-9.45,9.51-9.38Zm-21.93-18.36c3,.04,5.4,2.54,5.37,5.57-.04,3.04-2.51,5.47-5.51,5.43-3-.04-5.4-2.54-5.37-5.58,.04-3.04,2.51-5.47,5.51-5.43Zm-6.89,51.26c.04-3.73,3.08-6.72,6.76-6.67,3.7,.04,6.64,3.12,6.6,6.85s-3.08,6.72-6.77,6.68c-3.7-.05-6.65-3.12-6.6-6.86Zm14.58,58.07c-5.18-.07-9.33-4.37-9.26-9.63,.07-5.24,4.33-9.45,9.51-9.38,5.18,.07,9.33,4.38,9.26,9.63-.07,5.24-4.33,9.45-9.51,9.38Zm16.01,23.67c-3.7-.05-6.65-3.12-6.6-6.86,.04-3.73,3.08-6.72,6.77-6.67,3.7,.04,6.64,3.12,6.6,6.85s-3.08,6.72-6.76,6.68Zm6.69-47.12c-3-.04-5.4-2.54-5.37-5.57,.04-3.04,2.51-5.47,5.51-5.43,3,.04,5.4,2.54,5.37,5.57-.04,3.04-2.51,5.47-5.51,5.43Zm10.95-20.21c-3-.04-5.4-2.54-5.37-5.57,.04-3.04,2.51-5.47,5.51-5.43,3,.04,5.4,2.54,5.37,5.57-.03,3.04-2.51,5.47-5.51,5.43Zm97.54,64.21c-1.35-.3-2.28-1.33-3.28-2.23l-2.57-2.32c-1.72-1.54-3.39-3.14-5.07-4.72-3.4-3.21-6.82-6.42-10.23-9.63-.81-.77-.77-2.16,0-2.93,.83-.84,2.05-.72,2.9,0,3.55,3.07,7.09,6.14,10.64,9.22,1.8,1.56,3.61,3.1,5.38,4.69l2.57,2.32c.99,.89,1.85,1.65,2.29,2.96,.55,1.64-1.13,2.97-2.61,2.64Zm6.82-13.15c-2.46-.31-3.76-2.32-5.44-4.02-1.64-1.65-3.26-3.31-4.92-4.95-3.3-3.28-6.74-6.42-10.29-9.41-7.21-6.06-14.78-11.74-22.71-16.82-2.32-1.49-.28-5,2.15-3.71,8.53,4.51,16.62,9.77,24.07,15.95,3.67,3.05,7.21,6.25,10.62,9.59,1.75,1.73,3.45,3.47,5.06,5.33,1.47,1.68,3.64,3.45,3.64,5.83,0,1.08-1.01,2.35-2.18,2.21Z"/><path class="b" d="M428.58,151.1s.02,.01,.03,.02c.08,.03,.17,.06,.17,.06,0,.02-.7-.32-.2-.08Z"/><path class="b" d="M427.06,150.68s.03,0,.04,.01c.08,.01,.17,.02,.24,.02-.14,0-.77-.12-.28-.04Z"/><path class="b" d="M723.93,704.9c-.11,1.06-.22,2.13-.33,3.19,8.27-2.66,19.45-9.92,21.54-29.93,.64-6.09,.55-10.98,.2-15.43-1.44-18-9.35-25.65-12.53-44.19-3,29.07-5.98,58.05-8.88,86.35Zm14.31-44.88c1.5,2.03,1.72,4.87,1.7,7.33-.03,2.4-.25,4.77-.65,7.13-.8,4.57-2.35,8.91-4.4,13.04-.74,1.49-2.64,1.92-4.06,1.35-1.37-.56-2.45-2.37-1.87-3.87,.77-2.05,1.41-4.14,1.9-6.27,.23-1,.44-2,.62-3.01,.1-.51,.19-1.01,.26-1.52,.04-.21,.07-.44,.1-.65-.04,.28-.03,.2,.04-.29,.2-2.04,.4-4.07,.44-6.12,.04-2.59,.11-4.8,1.15-7.11,.96-2.12,3.67-1.5,4.78,0Z"/><path class="b" d="M429.67,151.71s.08,.07,.12,.1h.02c.36,.25-.03,.03-.14-.1Z"/><path class="b" d="M752.22,109.55c4.56-1.17,7.26-2.42,7.28-3.74,.02-1.93-5.13-3.84-14.46-5.68,2.53,3.01,4.93,6.14,7.18,9.42Z"/><path class="b" d="M764.69,131.27l.54-5.31c-1.07,.01-2.11,.03-3.18,.04,.9,1.75,1.79,3.49,2.64,5.27Z"/><path class="b" d="M748.68,459.43c.71-.46,1.45-.86,2.15-1.36,.14-.11,.29-.22,.44-.33-.33,.26-.34,.27-.04,.02,.36-.29,.71-.59,1.06-.89,.77-.68,1.51-1.39,2.27-2.08,1.43-1.32,2.82-2.7,4.08-4.18,4.73-5.53,8.27-13.09,8.86-20.62,.27-3.53,5.42-3.61,5.48,0,.16,9.24-2.01,18.29-6.62,26.31-2.32,4.04-5.21,7.69-8.73,10.72-1.91,1.65-3.93,3.22-6.07,4.55-1.27,.79-2.63,1.37-4.1,1.58-.47,5.31-.94,10.59-1.42,15.86,10.7-3.36,25.73-12.09,32.56-35.15,11.18-37.74-2.81-150.97-2.81-150.97,0,0-1.2-18.54,0-41.67-3.62,9.71-7.93,19.07-12.48,27.56-4.52,48.31-9.38,110.01-14.64,170.65Zm18.46-141.17c1.16,3.14,.28,7.24,.18,10.53-.12,3.55-.09,7.11,.04,10.67,.28,7.08,.52,14.37,1.72,21.36,.48,2.75-3.5,3.96-4.21,1.18-1.84-7.35-3.5-14.53-3.99-22.13-.24-3.69-.27-7.39-.18-11.08,.08-3.5-.18-8.09,1.72-11.15,1.24-2,3.95-1.45,4.72,.62Z"/><path class="b" d="M396.24,207.09c7.72-.46,15.33-.86,22.97-1.21,29.43-1.35,59.35-1.66,98.23,1,38.19,2.62,91.54-6.61,113.25-10.81-1.73-9.09-4.17-17.9-7.63-26.28-14.68-35.56-31.35-53.63-54.52-43.3l-.02,.46c-.43,0-.83,0-1.27-.01-.02,.01-.05,.01-.07,.02l-.08-.03c-152.3-1.07-228.28-6.81-264.01-11-21.84-2.57-28.67-4.56-28.67-4.56l5.59,72.79c20.43,8.24,84.16,24.82,116.23,22.93Zm176.63-14.93c4.81-.47,9.57-1.43,14.24-2.72,2.24-.61,4.45-1.33,6.63-2.13,2.16-.79,4.14-1.84,6.47-2.01,2.72-.2,4.06,3.58,2.2,5.38-1.87,1.8-4.42,2.57-6.8,3.46-2.5,.93-5.03,1.74-7.59,2.41-4.79,1.28-9.71,2.07-14.64,2.5-10.3,.91-20.42-.23-30.29-3.36-3.17-1-1.85-5.63,1.36-4.99,9.27,1.88,19.03,2.37,28.43,1.45Zm-86.57-54.94c3.15-3.42,9.01-4.25,13.43-4.34,4.41-.1,8.89,.89,12.88,2.78,1.41,.66,2.69,1.55,3.95,2.45,.16-.14,.2-.36,.4-.48,2.03-1.18,4.7-1.35,6.99-1.51,1.9-.12,3.81-.07,5.69,.12,4.1,.43,7.97,1.46,11.73,3.16,7.32,3.31,13.2,9.01,16.78,16.27,1.29,2.62-2.4,4.85-3.9,2.31-3.4-5.76-9.19-10.27-15.4-12.54-3.12-1.14-6.4-1.88-9.73-1.99-1.56-.05-3.13,0-4.67,.24-.58,.09-1.16,.24-1.73,.39,2.09,2.69,3.84,5.65,5.01,8.79,1.03,2.74-3.46,4.61-4.66,1.99-2.67-5.78-7.43-10.13-13.43-12.07-3.33-1.08-6.72-1.44-10.21-1-3.53,.45-6.66,2.23-10.17,2.64-3.84,.45-5.18-4.82-2.96-7.23Zm-65.58,8.97c.54-.47,1.07-.82,1.74-1.05,.63-.21,1.26-.32,1.92-.41,1.43-.2,2.82-.1,4.21,.35,2.64,.84,5,2.57,6.42,5,.72,1.23,.24,2.75-.91,3.5-.54,.35-1.35,.43-1.94,.26-.66-.18-1.08-.61-1.48-1.15,.04,.05,.11,.15,0,.04l-.24-.27c-.16-.18-.33-.35-.51-.51-.04-.04-.1-.09-.15-.13-.19-.14-.37-.27-.58-.38-.19-.12-.39-.22-.6-.32-.08-.03-.15-.06-.16-.06-.44-.16-.89-.28-1.35-.36-.07,0-.13-.01-.19-.02-.24-.02-.48-.02-.71-.03-.46,0-.91-.02-1.38,.02-.04,0-.07,.01-.11,.02-.23,.05-.46,.12-.69,.18-.92,.26-2.21,.32-3.01-.23-.7-.47-1.39-1.34-1.28-2.25,.11-.87,.34-1.59,.99-2.18Zm-118.8-15.51c-.25,.17-.72,.53-1.25,.88-.21,.14-.42,.28-.63,.44-.43,.31,.48-.45-.21,.18-.66,.61-1.29,1.25-1.87,1.94-.06,.08-.15,.19-.19,.26-.15,.21-.29,.42-.42,.64-.24,.4-.45,.8-.64,1.22-.24,.49,.21-.67-.1,.23-.07,.2-.14,.39-.2,.59-.13,.44-.25,.89-.34,1.34-.04,.18-.08,.69-.04,.26-.02,.27-.04,.53-.04,.8,0,.49,0,.97,.04,1.45,.04,.56-.02-.04,.04,.28,.04,.21,.09,.43,.12,.63,.11,.53,.21,1.06,.37,1.59,.47,1.61,1.33,3,2.72,4.27,.98,.9,.94,2.46,.2,3.46-.69,.94-2.34,1.46-3.36,.68-2.15-1.65-3.98-3.72-5.1-6.23-1.23-2.74-1.52-5.61-1.05-8.58,.8-4.95,4.69-10.48,9.79-11.5,3.18-.63,4.75,3.31,2.16,5.17Zm62.4,68.2c-4.08-.98-10.2-2.18-12.47-6.14-.07-.13,.03-.29-.03-.43-2.38,.62-4.76,1.09-6.98,1.3-5.66,.52-11.52-.18-16.94-1.91-4.79-1.53-11.31-4.2-13.98-8.78-1.42-2.43,.94-5.65,3.67-4.83,2.31,.7,4.21,2.21,6.27,3.42,2.06,1.21,4.21,2.22,6.45,3.05,4.52,1.68,9.26,2.56,14.09,2.46,4.68-.1,9.33-.93,13.71-2.62,4.45-1.73,8.23-4.59,12.36-6.89,.98-.54,2.16,.57,1.56,1.58-2.44,4.08-6.48,7.23-11,9.61,1.76,.62,3.5,1.32,5.15,1.75,3.96,1.04,8.02,1.78,12.11,2.18,6.12,.61,12.14,.02,18.09-1.19,2.25-.46,4.52-.72,6.73-1.45,2.33-.78,3.92,3,1.68,4.03-.94,.43-1.96,.63-2.91,1.02-7.53,3.08-15.45,5.11-23.59,5.34-4.69,.12-9.41-.42-13.97-1.5Z"/><path class="b" d="M507.63,993c-110.19-.55-168.94-29.29-168.94-29.29,10.77,29.01,62.39,34.2,54.36,34.54-8.03,.35-45.41-3.3-45.41-3.3,12.33,11.44,53.68,18.3,53.68,18.3,0,0-4.02,.85-19.63,1.54-14.32,.64-34.75-.36-36.98-.47l-.43-.02s38.73,17.65,122.45,22.3c1.89,.1,3.88,.18,5.82,.27,9.16,.43,18.66,.76,28.86,.84,3.06,.02,5.89-.03,8.86-.04,10.29-.02,20.13-.2,29.32-.56,8.46-.33,16.42-.79,23.97-1.35,13.63-1.01,25.74-2.35,36.5-3.86-.14-.1-.25-.2-.39-.3,5.08-.59,10.06-1.25,14.92-1.95,11.06-1.91,20.2-3.93,27.61-5.84,7.51-1.93,13.21-3.71,17.21-5.11,4.93-1.72,7.44-2.87,7.44-2.87,0,0-7.17,2.62-23.2,2.4-16.04-.21-29.36-4-29.36-4,0,0,7.94-.67,21.3-2.5,1.83-.25,3.42-.45,5.47-.75,16.96-2.49,24.21-11.41,24.21-11.41,0,0-11.6,1.65-30.33,2.31-18.72,.65-30.25-4.01-30.25-4.01,0,0,8.6,.41,34.51-4.66,25.91-5.07,36.77-17.86,36.77-17.86,0,0-26.15,15.35-136.4,17.38-10.02,.19-20.49,.3-31.95,.24Zm4.64,7.79c.43-.4,.89-.54,1.46-.61,1.79-.2,3.58-.47,5.38-.56,.97-.05,1.79,.78,1.91,1.7,.05,.45-.03,.86-.24,1.25-.2,.4-.71,.81-1.15,.9-1.76,.37-3.56,.57-5.34,.84-.37,.1-.73,.1-1.1,0-.27-.06-.51-.19-.7-.37-.45-.36-.7-.8-.78-1.37-.09-.63,.09-1.31,.57-1.76Zm-4.01,8.62c2.73-.19,5.45-.37,8.18-.55,1.36-.09,2.73-.19,4.09-.28,1.41-.09,2.93-.41,4.28,.07,.73,.27,1.23,.81,1.36,1.59,.1,.68-.24,1.6-.91,1.91-.53,.24-.98,.48-1.57,.53-.32,.03-.63,.02-.95,.03-.68,.02-1.36,.03-2.04,.04-1.36,.03-2.73,.06-4.09,.09-2.78,.06-5.56,.12-8.34,.18-.97,.02-1.78-.84-1.78-1.8,0-1.02,.82-1.74,1.78-1.8Zm-3.35,10.46c1.74-.28,3.59-.14,5.36-.17,1.74-.03,3.48-.05,5.23-.08,3.48-.05,6.97-.11,10.45-.16,2.2-.04,2.17,3.34,0,3.44-3.41,.16-6.84,.32-10.25,.48-1.68,.08-3.35,.15-5.02,.23-1.7,.08-3.55,.39-5.24,.22-1.01-.11-1.79-.69-1.95-1.74-.13-.9,.47-2.06,1.42-2.22Zm-12.41,4.68c8.09,1.26,16.29,1.71,24.48,1.55,4.04-.07,8.06-.37,12.07-.76,1.47-.15,2.92-.34,4.37-.53,.5-.07,1.01-.11,1.51-.18,1.98-.29,4.07-.93,6.07-.78,1.71,.12,2.7,2.6,.94,3.5-3.45,1.77-8.17,1.98-11.96,2.48-4.31,.59-8.66,.89-13,.99-2.71,.06-5.42-.15-8.13-.29-5.85-.3-11.68-.87-17.45-1.94-2.65-.49-1.49-4.44,1.1-4.04Z"/><path class="b" d="M711.38,831.82c-.05-.95-.1-2-.15-3-6.96,68.01-12.55,122.64-15.4,149.95-.36,3.41-.67,6.4-.94,8.92-.14,1.34-.27,2.5-.38,3.58,1.78,.98,3.8,1.81,6.16,2.34,.81,.17,1.73,.25,2.59,.38,.95,.11,1.9,.22,2.94,.23,.36,0,.64,.09,1.01,.08,3.9-.09,6.96-1.42,9.41-3.69,2.58-2.39,4.35-6.01,5.56-10.57,.05-.13,.13-.2,.18-.33,.1-.29,.15-.63,.25-.93,2.15-9.54,1.85-23.1,.01-39.76-1.39-12.55-3.1-26.77-4.78-41.1-2.83-24.19-5.57-48.7-6.47-66.08Zm7.66,119.43c1.13,8.39,.34,16.79-2.23,24.71-1.08,3.33-2.39,6.6-4.14,9.7-1.21,2.15-4.09,2.89-6.19,1.65-2.13-1.26-2.83-4.12-1.63-6.27,2.44-4.32,4-8.57,4.99-13.59,.47-2.36,.69-4.33,.76-7,.03-1.25,.02-2.49-.04-3.73-.03-.54-.06-1.07-.1-1.6-.03-.25-.18-1.74-.14-1.43-.33-2.46,.55-4.91,3.17-5.64,1.16-.32,2.57-.03,3.7,.66,.95,.58,1.72,1.43,1.87,2.55Z"/></g><path class="c" d="M499.15,774.3c-3.69-.04-6.72,2.95-6.76,6.68s2.9,6.8,6.6,6.85c3.69,.05,6.72-2.94,6.77-6.67,.05-3.74-2.9-6.8-6.6-6.86Z"/><path class="c" d="M524.89,713.6c3.69,.05,6.72-2.94,6.77-6.67,.05-3.74-2.9-6.8-6.6-6.86-3.69-.04-6.72,2.95-6.77,6.68s2.9,6.8,6.6,6.85Z"/><path class="c" d="M488.58,714.63c.04-3.04-2.37-5.53-5.37-5.57-3-.04-5.47,2.4-5.51,5.43s2.37,5.53,5.37,5.57c3,.04,5.46-2.4,5.51-5.43Z"/><path class="c" d="M495.17,656.57c3,.04,5.46-2.4,5.51-5.43,.04-3.04-2.37-5.53-5.37-5.57-3-.04-5.47,2.4-5.51,5.43s2.37,5.53,5.37,5.57Z"/><path class="c" d="M493.5,740.55c3,.04,5.46-2.4,5.51-5.43,.04-3.04-2.37-5.53-5.37-5.58-3-.04-5.47,2.4-5.51,5.43-.04,3.04,2.37,5.53,5.37,5.58Z"/><path class="c" d="M521.09,789.23c-3-.04-5.47,2.4-5.51,5.43-.04,3.04,2.37,5.53,5.37,5.57,3,.04,5.46-2.4,5.51-5.43,.04-3.04-2.37-5.53-5.37-5.58Z"/><path class="c" d="M525.94,666.5c3,.04,5.46-2.4,5.51-5.43,.04-3.04-2.37-5.53-5.37-5.57-3-.04-5.47,2.4-5.51,5.43s2.37,5.53,5.37,5.57Z"/><path class="c" d="M506.32,754.97c-.07,5.24,4.08,9.56,9.26,9.63,5.18,.07,9.44-4.13,9.51-9.38,.07-5.25-4.08-9.56-9.26-9.63-5.18-.07-9.44,4.13-9.51,9.38Z"/><path class="c" d="M494.18,682.65c-.07,5.25,4.08,9.56,9.26,9.63s9.44-4.13,9.51-9.38c.07-5.25-4.08-9.56-9.26-9.63-5.18-.07-9.44,4.13-9.51,9.38Z"/><path class="c" d="M503.87,407.12c-3.69-.04-6.72,2.95-6.76,6.68s2.9,6.8,6.6,6.85c3.69,.05,6.72-2.94,6.77-6.67,.05-3.74-2.9-6.8-6.6-6.86Z"/><path class="c" d="M529.61,346.43c3.69,.05,6.72-2.94,6.77-6.67,.05-3.74-2.9-6.8-6.6-6.86-3.69-.04-6.72,2.95-6.76,6.68s2.9,6.8,6.6,6.85Z"/><path class="c" d="M487.79,352.88c3,.04,5.46-2.4,5.51-5.43,.04-3.04-2.37-5.53-5.37-5.57-3-.04-5.47,2.4-5.51,5.43s2.37,5.53,5.37,5.57Z"/><path class="c" d="M499.9,289.39c3,.04,5.46-2.4,5.51-5.43,.04-3.04-2.37-5.53-5.37-5.57-3-.04-5.47,2.4-5.51,5.43s2.37,5.53,5.37,5.57Z"/><path class="c" d="M498.22,373.38c3,.04,5.46-2.4,5.51-5.43,.04-3.04-2.37-5.53-5.37-5.58-3-.04-5.47,2.4-5.51,5.43s2.37,5.53,5.37,5.58Z"/><path class="c" d="M525.81,422.06c-3-.04-5.47,2.4-5.51,5.43s2.37,5.53,5.37,5.57c3,.04,5.46-2.4,5.51-5.43,.03-3.04-2.37-5.53-5.37-5.57Z"/><path class="c" d="M530.66,299.33c3,.04,5.46-2.4,5.51-5.43,.04-3.04-2.37-5.53-5.37-5.57-3-.04-5.47,2.4-5.51,5.43s2.37,5.53,5.37,5.57Z"/><path class="c" d="M511.04,387.79c-.07,5.25,4.08,9.56,9.26,9.63,5.18,.07,9.44-4.13,9.51-9.38,.07-5.25-4.08-9.56-9.26-9.63-5.18-.07-9.44,4.13-9.51,9.38Z"/><path class="c" d="M498.9,315.47c-.07,5.25,4.08,9.56,9.26,9.63s9.44-4.13,9.51-9.38c.07-5.25-4.08-9.56-9.26-9.63-5.18-.07-9.44,4.13-9.51,9.38Z"/><g><path class="f" d="M709.38,1049.67c48.48-1.63,83.02-6.88,83.11-13.57,.09-6.97-37.13-13.34-88.68-16.06-4.4-.23-8.88-.44-13.48-.62,.57-2.22,1.06-4.52,1.45-6.95,.15-.9,.3-1.82,.43-2.75,6.08,2.17,14.61,2.8,22.61,.22,.54-.17,1.04-.49,1.57-.69,7.03-2.7,13.43-7.83,16.71-17.18,9.86-28.13,.85-66.74-5.12-110.12-3.87-28.05-7.32-87.38-9.28-125.91,1.02-9.98,2.06-20.11,3.11-30.36,43.1-8.21,37.55-68.44,28.35-90.58-4.98-12-9.53-33.62-12.79-51.98-.19-1.08-.37-2.12-.55-3.17,.02-.25,.05-.5,.08-.74,.88-8.54,1.77-17.07,2.64-25.55,.06,.39,.15,.98,.21,1.3,1.3-12.51,2.57-25.49,3.83-38.76,36.43-.63,57.06-47.15,59.65-80.04,2.83-36.04-11.65-110.8-11.59-161.91,.04-28.03,5.24-55.4,9.94-74.45,9.46-8.52,19.17-21.23,24.21-40.55,9.98-38.26-3.41-78.57-32.1-90.03-9.6-3.83-20.03-5.82-24.71-6.59-4.16-6.01-9.45-12.07-16.57-17.55-6.96-5.36-16.03-10.18-26.61-14.05-7.13-2.61-14.91-4.79-23.54-6.18-22.4-3.62-49.59-2.5-80.67,7.23-20.11,6.29-36.04,15.95-48.47,26.05-13.7-8.21-37.7-15.36-71.98-14.1-28.16,1.03-42.51,12.85-47.52,18.04-28.55-7.91-65.68-10.97-99.7-3.29-23.47,5.3-39.43,12.42-50.23,19.07-1.25,.77-2.48,1.53-3.59,2.29-.48,.06-.94,.12-1.41,.18-6.57,.86-12.12,1.83-16.26,2.93,0,0-.72,.26-1.79,.67-1.65,.63-4.35,1.77-7.46,3.31-9.61,4.76-22.97,13.58-20.8,25.38,1.4,7.57,13.56,164.85,27.23,345.2,5.54,73.11,11.33,149.96,16.75,222.22,4.49,59.78,8.72,116.33,12.35,164.98,7.03,94.09,11.81,158.49,11.81,158.49,0,0-5.06,23.98,22.17,31.56,21.84,6.08,53.94,15.29,106.73,19.27,4.25,.32,8.37,.68,12.9,.93,7.13,2.53,19.04,4.84,34.41,6.75,22.89,2.84,53.26,4.8,86.74,5.23,20.9,.27,40.59-.09,58.06-.94,42.05-2.04,70.99-6.96,71.07-13.08,.02-1.19-1.15-2.36-3.21-3.51Zm-87.87-.95c-.41-.02-.82-.05-1.23-.07,.34-.04,.66-.09,1-.13,.08,.07,.15,.13,.23,.2Zm-120.1-11c-10.2-.08-19.7-.41-28.86-.84-1.94-.09-3.93-.17-5.82-.27-83.72-4.65-122.45-22.3-122.45-22.3l.43,.02c2.23,.11,22.66,1.11,36.98,.47,15.61-.69,19.63-1.54,19.63-1.54,0,0-41.35-6.87-53.68-18.3,0,0,37.37,3.65,45.41,3.3,8.02-.35-43.59-5.53-54.36-34.54,0,0,58.74,28.74,168.94,29.29,11.46,.06,21.93-.06,31.95-.24,110.25-2.04,136.4-17.38,136.4-17.38,0,0-10.86,12.79-36.77,17.86-25.91,5.07-34.51,4.66-34.51,4.66,0,0,11.53,4.66,30.25,4.01,18.72-.66,30.33-2.31,30.33-2.31,0,0-7.25,8.92-24.21,11.41-2.05,.3-3.64,.5-5.47,.75-13.37,1.83-21.3,2.5-21.3,2.5,0,0,13.32,3.78,29.36,4,16.03,.21,23.2-2.4,23.2-2.4,0,0-2.51,1.15-7.44,2.87-4,1.4-9.7,3.17-17.21,5.11-7.41,1.91-16.56,3.93-27.61,5.84-4.86,.71-9.84,1.36-14.92,1.95,.14,.1,.25,.2,.39,.3-10.76,1.51-22.87,2.84-36.5,3.86-7.55,.56-15.51,1.02-23.97,1.35-9.19,.36-19.03,.53-29.32,.56-2.97,0-5.8,.06-8.86,.04Zm243.93-374.97c.36,4.45,.44,9.33-.2,15.43-2.09,20.01-13.27,27.27-21.54,29.93,.11-1.06,.22-2.13,.33-3.19,2.91-28.3,5.89-57.29,8.88-86.35,3.17,18.54,11.08,26.2,12.53,44.19Zm-69.35,291.54c-16.23,7.37-69.87,27.97-157.88,25.32-.77-.02-1.51-.08-2.28-.1-105.62-3.57-177.3-32.93-177.3-32.93l-6.21-80.89-12.48-162.62-16.47-214.54-14.58-189.98-6.88-89.58c23.3,6.01,87.78,21.64,117.93,18.63,16.99-1.7,34.6-2.61,51.12-2.7,18.01-.1,34.72,.78,47.79,2.8,25.5,3.95,101.03-2.28,118.61-7.16,7.65-2.12,12.53-3.66,15.84-4.82,1.71,24.84-1.47,51.23-7.57,77.4-3.77,16.16-3.56,28.07-1.09,37.1,1.98,7.23,5.47,12.48,9.48,16.72-4.84,6.21-22.05,30.35-23.99,62.48-2.26,37.4,12.58,95.78,23.54,108.99,.1,.13,.25,.22,.36,.34-1.14,5.13-2.29,12.54-2.6,20.84-.5,13.32,1.35,28.92,10.35,41.62,12.4,17.49,32.74,21.28,49.28,18.03,9.71-1.91,18.13-6.23,22.82-11.67,1.69-1.97,3.44-4.17,5.2-6.5l-5.17,50.85-15.02,147.8-17.48,171.99s-1.85,1.01-5.33,2.59ZM274.42,111.36s6.83,1.99,28.67,4.56c35.73,4.2,111.71,9.93,264.01,11l.08,.03s.05-.01,.07-.02c.43,0,.83,0,1.27,.01l.02-.46c23.18-10.33,39.84,7.74,54.52,43.3,3.46,8.38,5.9,17.2,7.63,26.28-21.71,4.2-75.07,13.43-113.25,10.81-38.88-2.66-68.8-2.34-98.23-1-7.64,.35-15.25,.75-22.97,1.21-32.08,1.89-95.8-14.69-116.23-22.93l-5.59-72.79Zm223.05-26.82c-3.79-4.54-10.17-8.95-18.28-12.97,6.92-4.88,20.03-11.66,39.53-11.4,19.2,.25,32.54,6.75,39.78,11.49-14.71,15.65-21.14,29.19-21.14,29.19-5.47,9.85,10.94,4.05,21.31-5.28,10.36-9.33,24.5-34.4,55.84-46.17,31.34-11.76,71.97-18.6,98.15-10.13,26.18,8.46,40.25,23.08,48.44,44.84,1.11,2.94,2.34,5.36,3.62,7.44-3.38-1.37-7.37-2.59-11.88-3.67-7.06-16.14-18.63-29.35-34.68-37-19.4-9.24-41.2-8.46-60.78-.12-1.97,.84-1.15,4.14,.9,3.31,32.7-13.16,70.52,2.39,87.87,32.43-1.74-.31-3.4-.64-5.3-.9-4.11-.56-8.63-1.12-13.05-1.68-10.81-7.88-23.35-13.37-38.09-14.9-66.44-6.89-84.69,25.94-84.69,25.94,68.64-24.95,115.84,.32,130.44,20.36,14.59,20.04,32.17,84.61,28.19,117.63-3.99,33.02-28.18,66.38-38.33,70.46-10.15,4.07-21.85-9.91-23.48-21.96-1.63-12.05-17.72-8.05-18.48,5.17-.48,8.25,13.04,24.63,27.49,33.65,5.05,14.91,17.63,56.75,13.23,91.96-1.19,9.55-3.15,17.87-5.5,25.34-8.4,26.69-22.92,40.33-35.45,40.87-16.05,.69-14.55-11.47-8.22-19.05,6.33-7.59,2.37-11.25-1.62-13.1-3.99-1.86-24.29,18.32-13.83,36.05,8.42,14.25,29.02,19.47,47.65,5.05,6.64,12.1,18.85,39.1,10.88,62.29-7.6,22.11-22.84,36.48-39.1,35.41-6.52-.43-13.19-3.09-19.61-9.12-7.05-6.61-10.01-14.24-11.1-21.66-1.44-9.78,.56-19.01,2.57-24.87,9.89,3.51,19.3,3.52,18.8-.07-.81-5.87-2.51-12.81-9.98-20.57-7.48-7.76-28.87-53.3-28.38-91.17,.38-29.55,7.66-46.87,16.22-60.29,.19,.12,.4,.26,.59,.38,14.15,8.6,27.02,23.8,27.02,23.8,0,0,.6-1.29,1.21-3.3,1.68-5.54,3.41-16.96-7.38-25.04-14.71-11.03-23.84-40-19.97-64.01,3.87-24,9.52-93.68-3.7-128.73-13.21-35.05-37.87-57.63-59.25-57.91-12.12-.16-20.57,6.26-25.73,11.89-12.58,.18-28.43,.63-39.18,.49-100.94-1.33-185.05-4.31-219.25-9.56,1.38-1.82,2.55-3.97,5.77-8.59,5-7.15,29.52-20.36,73.23-23.39,43.7-3.03,75-.21,90.93,9.01,15.92,9.24,42.92,22.66,25.81,2.15Zm248.58,404.48c.48-5.27,.95-10.55,1.42-15.86,1.47-.21,2.83-.79,4.1-1.58,2.14-1.33,4.16-2.9,6.07-4.55,3.52-3.04,6.4-6.68,8.73-10.72,4.6-8.01,6.77-17.06,6.62-26.31-.06-3.61-5.21-3.53-5.48,0-.59,7.53-4.13,15.09-8.86,20.62-1.27,1.48-2.65,2.86-4.08,4.18-.76,.69-1.5,1.4-2.27,2.08-.35,.3-.7,.6-1.06,.89-.3,.25-.29,.24,.04-.02-.15,.11-.3,.22-.44,.33-.69,.5-1.44,.9-2.15,1.36,5.27-60.64,10.12-122.33,14.64-170.65,4.56-8.5,8.86-17.86,12.48-27.56-1.19,23.13,0,41.67,0,41.67,0,0,13.99,113.23,2.81,150.97-6.83,23.06-21.87,31.79-32.56,35.15Zm-26.59-14.65c.22-.32,.47-.51,.69-.83,1.26-1.86,2.25-3.99,3.38-5.98,3.53-6.23,6.65-12.87,9.03-20.03l-4.41,43.39c-1.63-3.36-3.22-6.51-4.8-9.48-1.39-2.6-2.66-4.94-3.88-7.07Zm40.03-368.56c-.02,1.32-2.71,2.57-7.28,3.74-2.26-3.27-4.65-6.41-7.18-9.42,9.33,1.83,14.48,3.75,14.46,5.68Zm-19.25,266.1c-.24-1.99-.42-4.14-.73-5.91-3.06-17.27-7.12-31.74-9.49-39.53,1.81-.14,3.55-.48,5.11-1.27,3.08-1.56,6.83-5.06,10.86-9.88l-5.75,56.58Zm21.81-245.91c1.07-.01,2.11-.03,3.18-.04l-.54,5.31c-.84-1.77-1.74-3.52-2.64-5.27Zm30.03,54.88c-3.09,3.42-6.25,5.75-9.24,7.44-.8-4.21-1.72-8.56-2.82-13.08,3.64-35.19,5.82-56.23,5.82-56.23,0,0,2.25-9.38-6.79-18.44,2.37-.68,3.86-2.57,3.44-5.05-.43-2.48-1.38-7.11-3.29-12.74,6.76,3.42,16.97,10.9,24.94,27,13.02,26.33-.76,58.62-12.06,71.1Zm-91.41,812.72c-2.37-.53-4.38-1.36-6.16-2.34,.12-1.08,.24-2.24,.38-3.58,.27-2.53,.58-5.52,.94-8.92,2.85-27.31,8.44-81.94,15.4-149.95,.05,1.01,.1,2.05,.15,3,.89,17.38,3.63,41.9,6.47,66.08,1.68,14.33,3.39,28.56,4.78,41.1,1.84,16.66,2.14,30.22-.01,39.76-1.18,5.24-3.15,9.19-5.99,11.82-2.45,2.27-5.51,3.6-9.41,3.69-.37,0-.65-.07-1.01-.08-1.03-.01-1.99-.12-2.94-.23-.89-.11-1.78-.19-2.59-.38Z"/><path class="f" d="M764.59,1052.37c-26.01-.34-47.13,1.95-47.18,5.12-.04,3.16,21.02,6,47.02,6.34,26.02,.34,47.13-1.96,47.18-5.12,.04-3.16-21.02-6-47.02-6.34Z"/><path class="f" d="M811.4,1043.58c-13.6-.18-24.65,1.02-24.68,2.68-.02,1.66,10.99,3.15,24.6,3.32,13.61,.18,24.66-1.02,24.68-2.68,.02-1.66-11-3.14-24.6-3.32Z"/><path class="f" d="M347.7,90.31c-2.97,1.65-.37,5.87,2.6,4.51,25.3-11.59,55.71-13.76,82.1-4.95,3.29,1.1,4.57-3.99,1.42-5.19-13.96-5.32-29.08-7.83-44.01-7.02-15.02,.81-28.99,5.36-42.11,12.65Z"/><path class="f" d="M507.65,78.36c4.19-1.21,8.72-1.54,13.03-.91,2.29,.35,4.55,.98,6.76,1.68,.8,.25,2.02,.7,2.56,.92,1.51,.61,2.89,.85,4.5,.9,1.21,.04,2.38-.81,2.82-1.91,.5-1.27,.17-2.38-.64-3.42-1.82-2.33-4.45-3.22-7.2-4.02-2.62-.76-5.38-1.09-8.1-1.18-5.18-.19-10.36,.66-15.23,2.44-3.37,1.23-2.05,6.53,1.5,5.5Z"/><path class="f" d="M404.79,194.02c2.24-1.03,.65-4.82-1.68-4.03-2.21,.74-4.48,1-6.73,1.45-5.95,1.21-11.97,1.81-18.09,1.19-4.08-.4-8.15-1.14-12.11-2.18-1.65-.43-3.39-1.13-5.15-1.75,4.52-2.38,8.55-5.53,11-9.61,.61-1.01-.58-2.12-1.56-1.58-4.13,2.31-7.91,5.17-12.36,6.89-4.38,1.69-9.03,2.52-13.71,2.62-4.83,.1-9.57-.77-14.09-2.46-2.23-.84-4.39-1.84-6.45-3.05-2.07-1.21-3.96-2.72-6.27-3.42-2.73-.83-5.09,2.4-3.67,4.83,2.67,4.58,9.19,7.25,13.98,8.78,5.42,1.73,11.28,2.42,16.94,1.91,2.22-.2,4.6-.67,6.98-1.3,.06,.14-.05,.3,.03,.43,2.28,3.95,8.39,5.16,12.47,6.14,4.56,1.09,9.28,1.63,13.97,1.5,8.14-.23,16.06-2.27,23.59-5.34,.95-.39,1.97-.59,2.91-1.02Z"/><path class="f" d="M299.77,125.51c-5.1,1.02-8.99,6.55-9.79,11.5-.48,2.97-.18,5.84,1.05,8.58,1.13,2.51,2.96,4.59,5.1,6.23,1.02,.78,2.67,.27,3.36-.68,.74-1.01,.77-2.56-.2-3.46-1.39-1.27-2.25-2.66-2.72-4.27-.16-.53-.26-1.05-.37-1.59-.04-.2-.08-.42-.12-.63-.06-.32,0,.28-.04-.28-.04-.48-.05-.96-.04-1.45,0-.27,.03-.53,.04-.8-.04,.43,0-.08,.04-.26,.09-.45,.2-.91,.34-1.34,.06-.2,.13-.39,.2-.59,.31-.9-.14,.26,.1-.23,.19-.42,.4-.82,.64-1.22,.13-.22,.27-.44,.42-.64,.04-.07,.13-.18,.19-.26,.58-.69,1.2-1.33,1.87-1.94,.69-.63-.22,.13,.21-.18,.21-.15,.42-.29,.63-.44,.53-.35,1-.71,1.25-.88,2.6-1.85,1.02-5.8-2.16-5.17Z"/><path class="f" d="M543.08,195.69c9.87,3.13,19.99,4.27,30.29,3.36,4.93-.44,9.85-1.22,14.64-2.5,2.56-.68,5.09-1.49,7.59-2.41,2.38-.88,4.94-1.66,6.8-3.46,1.86-1.8,.52-5.58-2.2-5.38-2.32,.17-4.3,1.22-6.47,2.01-2.18,.8-4.39,1.51-6.63,2.13-4.66,1.28-9.42,2.24-14.24,2.72-9.4,.92-19.16,.43-28.43-1.45-3.2-.64-4.52,3.99-1.36,4.99Z"/><path class="f" d="M489.26,144.45c3.51-.41,6.64-2.2,10.17-2.64,3.48-.45,6.87-.08,10.21,1,6.01,1.93,10.76,6.29,13.43,12.07,1.21,2.62,5.69,.75,4.66-1.99-1.18-3.14-2.93-6.1-5.01-8.79,.58-.14,1.15-.3,1.73-.39,1.54-.23,3.11-.29,4.67-.24,3.33,.11,6.61,.85,9.73,1.99,6.21,2.27,11.99,6.78,15.4,12.54,1.5,2.55,5.19,.31,3.9-2.31-3.58-7.26-9.46-12.96-16.78-16.27-3.76-1.7-7.63-2.73-11.73-3.16-1.88-.2-3.79-.25-5.69-.12-2.3,.16-4.96,.33-6.99,1.51-.2,.12-.23,.34-.4,.48-1.26-.9-2.55-1.79-3.95-2.45-3.99-1.89-8.47-2.88-12.88-2.78-4.42,.09-10.28,.92-13.43,4.34-2.23,2.41-.88,7.69,2.96,7.23Z"/><path class="f" d="M424.02,150.86c.23-.06,.46-.13,.69-.18,.03,0,.07-.01,.11-.02-.01,0-.03,0-.04,0-.4,.03,.32-.04,.36-.05-.09,.03-.21,.04-.32,.05,.47-.03,.92-.03,1.38-.02,.24,0,.48,0,.71,.03,.06,0,.12,.01,.19,.02-.01,0-.03,0-.04-.01-.48-.09,.14,.04,.28,.04-.07,0-.16-.01-.24-.02,.46,.09,.91,.21,1.35,.36,.02,0,.09,.03,.16,.06-.01,0-.02-.01-.03-.02-.5-.24,.19,.1,.2,.08,0,0-.09-.03-.17-.06,.21,.1,.41,.2,.6,.32,.2,.11,.39,.24,.58,.38-.04-.03-.09-.06-.12-.1,.11,.13,.5,.36,.14,.12h-.02c.05,.03,.11,.08,.15,.12,.18,.16,.35,.33,.51,.51l.24,.27c.1,.11,.03,.02,0-.04,.39,.53,.82,.97,1.48,1.15,.6,.17,1.41,.09,1.94-.26,1.14-.75,1.63-2.27,.91-3.5-1.43-2.42-3.78-4.16-6.42-5-1.38-.45-2.78-.54-4.21-.35-.66,.09-1.29,.2-1.92,.41-.68,.23-1.21,.58-1.74,1.05-.65,.6-.89,1.31-.99,2.18-.1,.92,.58,1.78,1.28,2.25,.8,.55,2.09,.49,3.01,.23Z"/><path class="f" d="M733.97,276.6c9.21-5.01,13.72-16.38,15.84-26.16,2.53-11.76,1.98-25.12,1.06-37.07-.97-12.57-3.75-24.83-8.38-36.52-1.21-3.04-6.11-1.75-4.93,1.37,6.86,18.17,11.11,40.06,5.91,59.19-2.27,8.34-3.42,17.91-7.93,25.41-3.84,6.39-13.83,12-19.87,5.07-2.42-2.77-7.4,1-5.14,4.02,5.55,7.4,15.41,9.08,23.45,4.71Z"/><path class="f" d="M619.22,106.7c7.18-1.96,14-4.05,21.48-4.53,7.43-.48,15.11-.15,22.43,1.15,14.3,2.54,28.65,8.03,40.24,17,1.74,1.35,3.98-1.6,2.35-3.08-12.01-10.89-26.04-18.23-42.11-20.57-14.9-2.18-32.35-.77-45.87,6.5-1.94,1.04-.6,4.1,1.48,3.54Z"/><path class="f" d="M683.71,119.64c-10.65-5.5-23.65-6.38-35.27-4.23-2.33,.43-1.82,4.54,.56,4.23,11.19-1.47,21.4,1.62,31.32,6.67,9.72,4.94,18.21,12.39,23.63,21.99,1.65,2.91,5.67,.36,4.36-2.58-5.03-11.24-13.75-20.47-24.61-26.07Z"/><path class="f" d="M795.5,119.7c-1.23,1.68-.86,3.62-.7,5.56,.14,1.67,.19,3.35,.21,5.02,.04,3.65-.1,7.28-.64,10.89-1.06,7.23-3.28,14.24-6.73,20.66-1.74,3.24,2.91,5.98,4.86,2.88,4.28-6.79,7.38-14.43,8.75-22.37,.67-3.95,1.07-8.05,.93-12.07-.13-3.63,.07-9.28-3.26-11.49-1.21-.8-2.65-.14-3.41,.91Z"/><path class="f" d="M663.95,302.39c-.58-4.92-.75-9.99-.11-14.91,.69-5.24,3.11-9.97,3.97-15.09,.31-1.83-1.59-3-3.02-1.78-4.08,3.48-6.18,10.05-7.54,15.09-1.54,5.69-2.25,11.68-1.74,17.56,1.05,12.06,6.1,23.28,14.37,32,3.44,3.63,8.53-1.72,5.39-5.45-6.43-7.65-10.14-17.51-11.31-27.42Z"/><path class="f" d="M705.88,558.3c.06,.08,.13,.09,.19,.18-.64-.85-.5-.64-.19-.18Z"/><path class="f" d="M658.09,555.21c-1.38-2.67-5.68-.83-4.81,2.06,.32,1.05,.79,2.04,1.18,3.06,2.7,6.97,7.17,13.16,14.09,16.37,1.11,.51,2.27,.74,3.4,1.1,7.79,2.49,16.1,1.68,23.47-2.19,3.95-2.07,8.07-5.16,10.31-9.13,.78-1.37,1.38-2.84,1.41-4.45,.02-.86-.1-1.59-.43-2.38-.1-.24-.54-.9-.83-1.34-.93-1.14-1.83-1.62-3.32-1.86,1.8,.29-.52-.13-.76-.13-1.11,0-2.31,.45-3.27,1.02-1.87,1.12-3.4,2.96-4.98,4.43-.79,.75-1.13,1.01-1.71,1.42-.95,.67-1.94,1.26-2.97,1.8-2.82,1.48-6.58,2.32-9.89,2.28-2.2-.02-3.4-.24-5.77-.9-1.98-.55-3.81-1.31-5.57-2.27-4.06-2.22-7.37-4.61-9.56-8.86Z"/><path class="f" d="M700.93,447.56c4.5-6.25,8.64-12.06,11.71-19.23,.13-.3,.19-.62,.31-.92,2.74-6.65,4.51-13.51,5.26-20.7,.77-7.2,.36-14.38-.6-21.55-.98-7.27-1.82-15.42-5.19-22.03-1.54-3.02-5.63-.79-5.1,2.18,1.24,7,3.66,13.5,3.88,20.73,.19,6.72-.5,13.52-1.73,20.13-.7,3.76-1.58,7.64-2.56,11.52-2.42,9.5-5.8,19.02-11.08,26.86-2.16,3.22,2.9,6.07,5.1,3.02Z"/><path class="f" d="M652.81,377.63c-3.72,2.37-6.18,5.22-7.96,9.28-1.74,3.95-2.83,8.01-3.34,12.3-.44,3.74-.22,7.98,.82,11.6,1.09,3.82,2.89,7.42,4.73,10.91,1.6,3.02,5.97,.37,4.5-2.66-2.67-5.51-2.2-12.86-1.17-18.63,.55-3.05,1.46-6.06,2.73-8.63,.76-1.54,1.72-2.95,2.53-4.45,.81-1.51,1.41-3.11,2.18-4.62,1.62-3.15-1.76-7.16-5.02-5.09Z"/><path class="f" d="M731.87,673.24c-.06,.49-.07,.58-.04,.29-.03,.21-.06,.44-.1,.65-.07,.51-.16,1.01-.26,1.52-.18,1.01-.4,2.01-.62,3.01-.49,2.13-1.13,4.22-1.9,6.27-.57,1.51,.5,3.31,1.87,3.87,1.42,.58,3.32,.14,4.06-1.35,2.05-4.13,3.6-8.47,4.4-13.04,.4-2.36,.62-4.74,.65-7.13,.03-2.46-.2-5.3-1.7-7.33-1.11-1.5-3.82-2.12-4.78,0-1.05,2.31-1.11,4.51-1.15,7.11-.04,2.05-.24,4.08-.44,6.12Z"/><path class="f" d="M767.32,328.79c.1-3.29,.98-7.38-.18-10.53-.77-2.08-3.47-2.63-4.72-.62-1.89,3.06-1.64,7.65-1.72,11.15-.1,3.69-.06,7.39,.18,11.08,.49,7.6,2.15,14.78,3.99,22.13,.7,2.79,4.68,1.58,4.21-1.18-1.21-6.99-1.44-14.28-1.72-21.36-.13-3.55-.17-7.12-.04-10.67Z"/><path class="f" d="M540.98,1023.85c-2-.14-4.09,.49-6.07,.78-.5,.07-1.01,.12-1.51,.18-1.45,.19-2.91,.38-4.37,.53-4.01,.39-8.03,.69-12.07,.76-8.18,.16-16.38-.29-24.48-1.55-2.59-.4-3.75,3.55-1.1,4.04,5.77,1.07,11.6,1.64,17.45,1.94,2.71,.14,5.41,.35,8.13,.29,4.35-.1,8.69-.4,13-.99,3.79-.51,8.51-.71,11.96-2.48,1.76-.9,.77-3.38-.94-3.5Z"/><path class="f" d="M510.66,1023.61c1.67-.08,3.34-.15,5.02-.23,3.41-.16,6.84-.32,10.25-.48,2.17-.1,2.2-3.47,0-3.44-3.48,.05-6.97,.11-10.45,.16-1.74,.03-3.48,.05-5.23,.08-1.77,.03-3.62-.12-5.36,.17-.96,.16-1.56,1.32-1.42,2.22,.16,1.05,.94,1.64,1.95,1.74,1.69,.17,3.54-.14,5.24-.22Z"/><path class="f" d="M508.25,1013.01c2.78-.06,5.56-.12,8.34-.18,1.36-.03,2.73-.06,4.09-.09,.68-.02,1.36-.03,2.04-.04,.32,0,.63,0,.95-.03,.59-.04,1.05-.28,1.57-.53,.67-.3,1-1.23,.91-1.91-.12-.77-.63-1.32-1.36-1.59-1.35-.48-2.87-.16-4.28-.07-1.36,.09-2.73,.19-4.09,.28-2.73,.18-5.45,.37-8.18,.55-.96,.06-1.78,.77-1.78,1.8,0,.96,.81,1.82,1.78,1.8Z"/><path class="f" d="M513.18,1004.3c.37,.1,.73,.1,1.1,0,1.78-.27,3.58-.46,5.34-.84,.44-.09,.95-.5,1.15-.9,.21-.39,.29-.8,.24-1.25-.12-.92-.94-1.75-1.91-1.7-1.8,.09-3.59,.37-5.38,.56-.57,.07-1.03,.21-1.46,.61-.48,.45-.66,1.13-.57,1.76,.08,.57,.33,1.01,.78,1.37,.19,.19,.43,.31,.7,.37Z"/><path class="f" d="M632.7,926.8c-3.4-3.34-6.95-6.55-10.62-9.59-7.45-6.18-15.54-11.44-24.07-15.95-2.43-1.28-4.47,2.23-2.15,3.71,7.93,5.09,15.49,10.76,22.71,16.82,3.55,2.99,6.99,6.14,10.29,9.41,1.65,1.64,3.28,3.3,4.92,4.95,1.68,1.69,2.97,3.7,5.44,4.02,1.17,.14,2.18-1.13,2.18-2.21,0-2.39-2.17-4.15-3.64-5.83-1.61-1.86-3.31-3.61-5.06-5.33Z"/><path class="f" d="M630.15,945.4c-1.77-1.59-3.57-3.13-5.38-4.69-3.55-3.07-7.09-6.15-10.64-9.22-.85-.72-2.07-.84-2.9,0-.77,.77-.81,2.16,0,2.93,3.41,3.21,6.83,6.42,10.23,9.63,1.68,1.58,3.35,3.18,5.07,4.72l2.57,2.32c1,.91,1.93,1.93,3.28,2.23,1.48,.33,3.17-1.01,2.61-2.64-.44-1.31-1.29-2.07-2.29-2.96l-2.57-2.32Z"/><path class="f" d="M326.95,482.6c-3.28-3.22-6.37-6.66-9.28-10.21-1.46-1.78-2.85-3.62-4.18-5.49-1.35-1.91-2.47-4.26-4.13-5.9-1.61-1.59-4.56,0-3.86,2.28,.68,2.24,2.3,4.28,3.59,6.22,1.36,2,2.77,3.96,4.25,5.88,3.02,3.93,6.34,7.55,9.94,10.94,7.14,6.71,15.11,12.25,23.84,16.6,2.25,1.12,4.21-2.15,1.99-3.44-8.02-4.66-15.51-10.37-22.16-16.88Z"/><path class="f" d="M312.07,454.46c3.48,4.42,7.55,8.29,11.95,11.76,.81,.64,1.87,.78,2.67,0,.7-.69,.75-2,0-2.7-3.96-3.65-7.55-7.72-10.78-12.05-1.59-2.13-3.07-4.35-4.44-6.63-1.47-2.45-2.62-5.12-4.4-7.36-1.54-1.93-4.36,.19-3.86,2.27,.66,2.77,2.38,5.31,3.88,7.69,1.54,2.42,3.22,4.76,4.99,7.02Z"/><path class="f" d="M517.38,942.92c-3.69-.05-6.72,2.94-6.77,6.67-.05,3.74,2.9,6.8,6.6,6.86,3.69,.04,6.72-2.95,6.76-6.68s-2.9-6.8-6.6-6.85Z"/><path class="f" d="M500,874.89c.04-3.73-2.9-6.8-6.6-6.85-3.69-.05-6.72,2.94-6.76,6.67-.05,3.74,2.9,6.8,6.6,6.86,3.69,.04,6.72-2.95,6.77-6.68Z"/><path class="f" d="M535,878.11c-3-.04-5.46,2.4-5.51,5.43-.04,3.04,2.37,5.53,5.37,5.57,3,.04,5.47-2.4,5.51-5.43,.04-3.04-2.37-5.53-5.37-5.57Z"/><path class="f" d="M524.05,898.32c-3-.04-5.46,2.4-5.51,5.43-.04,3.04,2.37,5.53,5.37,5.57,3,.04,5.47-2.4,5.51-5.43,.03-3.04-2.37-5.53-5.37-5.57Z"/><path class="f" d="M493.39,834.45c3,.04,5.47-2.4,5.51-5.43,.04-3.04-2.37-5.53-5.37-5.57-3-.04-5.46,2.4-5.51,5.43-.04,3.04,2.37,5.53,5.37,5.58Z"/><path class="f" d="M501.46,913.78c-5.18-.07-9.44,4.13-9.51,9.38-.07,5.25,4.08,9.56,9.26,9.63,5.18,.07,9.44-4.13,9.51-9.38,.07-5.24-4.08-9.56-9.26-9.63Z"/><path class="f" d="M505.94,851.18c-.07,5.25,4.08,9.56,9.26,9.63,5.18,.07,9.44-4.13,9.51-9.38,.07-5.24-4.08-9.56-9.26-9.63-5.18-.07-9.44,4.13-9.51,9.38Z"/><path class="f" d="M528.4,606.16c.04-3.73-2.9-6.8-6.6-6.85-3.69-.05-6.72,2.94-6.76,6.67-.05,3.74,2.9,6.8,6.6,6.86,3.69,.04,6.72-2.95,6.77-6.68Z"/><path class="f" d="M497.65,537.96c3.69,.04,6.72-2.95,6.77-6.68s-2.9-6.8-6.6-6.85c-3.69-.05-6.72,2.94-6.77,6.67-.05,3.74,2.9,6.8,6.6,6.86Z"/><path class="f" d="M539.42,534.5c-3-.04-5.46,2.4-5.51,5.43-.04,3.04,2.37,5.53,5.37,5.57,3,.04,5.47-2.4,5.51-5.43s-2.37-5.53-5.37-5.57Z"/><path class="f" d="M533.84,560.29c.04-3.04-2.37-5.53-5.37-5.57-3-.04-5.46,2.4-5.51,5.43-.04,3.04,2.37,5.53,5.37,5.57,3,.04,5.47-2.4,5.51-5.43Z"/><path class="f" d="M497.81,490.84c3,.04,5.47-2.4,5.51-5.43s-2.37-5.53-5.37-5.57c-3-.04-5.46,2.4-5.51,5.43-.04,3.04,2.37,5.53,5.37,5.57Z"/><path class="f" d="M496.37,579.55c-.07,5.25,4.08,9.56,9.26,9.63,5.18,.07,9.44-4.13,9.51-9.38,.07-5.25-4.08-9.56-9.26-9.63-5.18-.07-9.44,4.13-9.51,9.38Z"/><path class="f" d="M519.63,517.19c5.18,.07,9.44-4.13,9.51-9.38,.07-5.25-4.08-9.56-9.26-9.63s-9.44,4.13-9.51,9.38c-.07,5.25,4.08,9.56,9.26,9.63Z"/><path class="f" d="M526.28,252.1c3.69,.04,6.72-2.95,6.76-6.68s-2.9-6.8-6.6-6.85c-3.69-.05-6.72,2.94-6.77,6.67-.05,3.74,2.9,6.8,6.6,6.86Z"/><path class="f" d="M712.68,985.65c1.75-3.11,3.06-6.37,4.14-9.7,2.57-7.92,3.36-16.31,2.23-24.71-.15-1.12-.92-1.97-1.87-2.55-1.13-.69-2.54-.98-3.7-.66-2.61,.73-3.5,3.18-3.17,5.64-.04-.3,.11,1.18,.14,1.43,.04,.53,.08,1.07,.1,1.6,.06,1.24,.08,2.48,.04,3.73-.07,2.67-.29,4.64-.76,7-.99,5.02-2.55,9.27-4.99,13.59-1.21,2.15-.5,5.01,1.63,6.27,2.1,1.24,4.98,.51,6.19-1.65Z"/></g></svg>