<?xml version="1.0" encoding="UTF-8"?>
<svg width="35px" height="62px" viewBox="0 0 35 62" version="1.1" xmlns="http://www.w3.org/2000/svg" xmlns:xlink="http://www.w3.org/1999/xlink">
    <title>Group 187 Copy</title>
    <defs>
        <path d="M3.17012429,42.9397661 C3.17012429,42.9397661 7.58135712,44.5395447 13.5735091,44.8738268 L13.5735091,44.8738268 C19.5651463,45.208617 23.8631254,43.5143452 23.8631254,43.5143452 L23.8631254,43.5143452 L25.8950003,24.8356972 L26.6167354,20.5743624 L26.8149294,19.3804977 L26.8885444,17.7217878 L27.9474668,4.6395711 L25.7549775,6.82408945 C25.7549775,6.82408945 26.5997474,9.97386009 26.527162,11.5167397 L26.527162,11.5167397 C26.4550915,13.0596193 25.3560155,15.3350745 25.3560155,15.3350745 L25.3560155,15.3350745 C25.3560155,15.3350745 27.0589398,18.6504622 26.5539311,20.050586 L26.5539311,20.050586 C26.0484076,21.4502018 24.5570619,22.5292523 23.4106252,22.4881021 L23.4106252,22.4881021 C22.2636738,22.4479679 21.4884005,21.9749943 21.0863498,20.8121193 L21.0863498,20.8121193 C20.6842991,19.6487362 21.0987047,17.9046778 21.0987047,17.9046778 L21.0987047,17.9046778 C21.0987047,17.9046778 20.7702689,17.1030103 20.2173848,15.5266009 L20.2173848,15.5266009 C19.6645007,13.9501915 19.8117305,12.6653899 20.0155872,11.0473222 L20.0155872,11.0473222 C20.219444,9.42925459 21.3540404,8.41472362 21.3303601,8.2592672 L21.3303601,8.2592672 C21.306165,8.10482683 21.3303601,8.2592672 20.9705221,7.84319266 L20.9705221,7.84319266 C20.6111989,7.42711812 20.6204651,6.73213647 21.0101609,4.85954702 L21.0101609,4.85954702 C21.3998567,2.98644954 21.1718049,0.51337156 21.1718049,0.51337156 L21.1718049,0.51337156 C21.1718049,0.51337156 20.7512217,0.791262615 19.4699102,1.03155963 L19.4699102,1.03155963 C18.1896282,1.27287271 13.7825137,1.37041399 13.7825137,1.37041399 L13.7825137,1.37041399 C13.7825137,1.37041399 11.3619726,1.03054358 10.3179791,1.11995642 L10.3179791,1.11995642 C9.27450041,1.20936927 7.29153053,1.31300688 5.41563691,1.21140138 L5.41563691,1.21140138 C3.53974328,1.1103039 0.0345402985,0.0358256881 0.0345402985,0.0358256881 L0.0345402985,0.0358256881" id="path-1"></path>
        <path d="M3.17012429,42.9397661 C3.17012429,42.9397661 7.58135712,44.5395447 13.5735091,44.8738268 L13.5735091,44.8738268 C19.5651463,45.208617 23.8631254,43.5143452 23.8631254,43.5143452 L23.8631254,43.5143452 L25.8950003,24.8356972 L26.6167354,20.5743624 L26.8149294,19.3804977 L26.8885444,17.7217878 L27.9474668,4.6395711 L25.7549775,6.82408945 C25.7549775,6.82408945 26.5997474,9.97386009 26.527162,11.5167397 L26.527162,11.5167397 C26.4550915,13.0596193 25.3560155,15.3350745 25.3560155,15.3350745 L25.3560155,15.3350745 C25.3560155,15.3350745 27.0589398,18.6504622 26.5539311,20.050586 L26.5539311,20.050586 C26.0484076,21.4502018 24.5570619,22.5292523 23.4106252,22.4881021 L23.4106252,22.4881021 C22.2636738,22.4479679 21.4884005,21.9749943 21.0863498,20.8121193 L21.0863498,20.8121193 C20.6842991,19.6487362 21.0987047,17.9046778 21.0987047,17.9046778 L21.0987047,17.9046778 C21.0987047,17.9046778 20.7702689,17.1030103 20.2173848,15.5266009 L20.2173848,15.5266009 C19.6645007,13.9501915 19.8117305,12.6653899 20.0155872,11.0473222 L20.0155872,11.0473222 C20.219444,9.42925459 21.3540404,8.41472362 21.3303601,8.2592672 L21.3303601,8.2592672 C21.306165,8.10482683 21.3303601,8.2592672 20.9705221,7.84319266 L20.9705221,7.84319266 C20.6111989,7.42711812 20.6204651,6.73213647 21.0101609,4.85954702 L21.0101609,4.85954702 C21.3998567,2.98644954 21.1718049,0.51337156 21.1718049,0.51337156 L21.1718049,0.51337156 C21.1718049,0.51337156 20.7512217,0.791262615 19.4699102,1.03155963 L19.4699102,1.03155963 C18.1896282,1.27287271 13.7825137,1.37041399 13.7825137,1.37041399 L13.7825137,1.37041399 C13.7825137,1.37041399 11.3619726,1.03054358 10.3179791,1.11995642 L10.3179791,1.11995642 C9.27450041,1.20936927 7.29153053,1.31300688 5.41563691,1.21140138 L5.41563691,1.21140138 C3.53974328,1.1103039 0.0345402985,0.0358256881 0.0345402985,0.0358256881 L0.0345402985,0.0358256881" id="path-3"></path>
        <path d="M3.17012429,42.9397661 C3.17012429,42.9397661 7.58135712,44.5395447 13.5735091,44.8738268 L13.5735091,44.8738268 C19.5651463,45.208617 23.8631254,43.5143452 23.8631254,43.5143452 L23.8631254,43.5143452 L25.8950003,24.8356972 L26.6167354,20.5743624 L26.8149294,19.3804977 L26.8885444,17.7217878 L27.9474668,4.6395711 L25.7549775,6.82408945 C25.7549775,6.82408945 26.5997474,9.97386009 26.527162,11.5167397 L26.527162,11.5167397 C26.4550915,13.0596193 25.3560155,15.3350745 25.3560155,15.3350745 L25.3560155,15.3350745 C25.3560155,15.3350745 27.0589398,18.6504622 26.5539311,20.050586 L26.5539311,20.050586 C26.0484076,21.4502018 24.5570619,22.5292523 23.4106252,22.4881021 L23.4106252,22.4881021 C22.2636738,22.4479679 21.4884005,21.9749943 21.0863498,20.8121193 L21.0863498,20.8121193 C20.6842991,19.6487362 21.0987047,17.9046778 21.0987047,17.9046778 L21.0987047,17.9046778 C21.0987047,17.9046778 20.7702689,17.1030103 20.2173848,15.5266009 L20.2173848,15.5266009 C19.6645007,13.9501915 19.8117305,12.6653899 20.0155872,11.0473222 L20.0155872,11.0473222 C20.219444,9.42925459 21.3540404,8.41472362 21.3303601,8.2592672 L21.3303601,8.2592672 C21.306165,8.10482683 21.3303601,8.2592672 20.9705221,7.84319266 L20.9705221,7.84319266 C20.6111989,7.42711812 20.6204651,6.73213647 21.0101609,4.85954702 L21.0101609,4.85954702 C21.3998567,2.98644954 21.1718049,0.51337156 21.1718049,0.51337156 L21.1718049,0.51337156 C21.1718049,0.51337156 20.7512217,0.791262615 19.4699102,1.03155963 L19.4699102,1.03155963 C18.1896282,1.27287271 13.7825137,1.37041399 13.7825137,1.37041399 L13.7825137,1.37041399 C13.7825137,1.37041399 11.3619726,1.03054358 10.3179791,1.11995642 L10.3179791,1.11995642 C9.27450041,1.20936927 7.29153053,1.31300688 5.41563691,1.21140138 L5.41563691,1.21140138 C3.53974328,1.1103039 0.0345402985,0.0358256881 0.0345402985,0.0358256881 L0.0345402985,0.0358256881" id="path-5"></path>
    </defs>
    <g id="Page-1" stroke="none" stroke-width="1" fill="none" fill-rule="evenodd">
        <g id="intro_image" transform="translate(-1775.000000, -28.000000)">
            <g id="Group-187-Copy" transform="translate(1775.000000, 28.000000)">
                <g id="Group-15" transform="translate(0.000000, 0.500000)">
                    <path d="M34.7671221,59.3960639 C34.7721466,59.020011 34.4956056,58.8254138 32.9713201,58.8057014 C32.6988534,58.8021632 32.4788429,58.8077231 32.2802223,58.8173266 C32.2817502,58.8046905 32.2863337,58.7920543 32.2863337,58.7794181 C32.2944823,58.1910774 30.9586316,57.4718258 24.5533729,57.3889324 C18.8096735,57.3146316 17.1320936,57.8574821 16.8402741,58.3947726 C13.1240324,58.5403415 12.2358419,59.077632 12.229698,59.553258 C12.2220913,60.1415987 13.5574326,60.8608503 19.9632006,60.9437437 C24.5080467,61.0023756 26.5034195,60.6743403 27.2856789,60.2689715 C27.4720767,60.4994555 28.1096997,60.7238741 30.2828124,60.7516737 C33.3675426,60.7916041 33.3731448,60.3569193 33.3767097,60.0693198 C33.377219,60.0278731 33.3767097,59.9833937 33.3680519,59.937398 C34.5256533,59.918191 34.7624702,59.7342082 34.7671221,59.3960639" id="Fill-1" fill="#F2F2DF"></path>
                    <path d="M9.26890897,3.38531853 C8.42655404,3.37419869 7.60202404,3.45052124 6.85643298,3.61529708 C5.68609947,3.87459158 4.70012659,4.254688 4.00597317,4.7146451 L3.8506417,4.81775636 L3.66424393,4.84050149 C3.26547494,4.88952989 2.95735842,4.94209641 2.74855218,4.99719018 C2.19037745,5.18673294 1.61234067,5.58906904 1.58382079,5.76344838 C1.77887638,6.79961548 5.15542605,51.3350882 5.5399351,56.4097798 L5.54808364,56.5224945 L5.5246566,56.632682 C5.48493248,56.8641769 5.5216009,57.3059379 6.2442742,57.5030624 L6.3985871,57.5450145 C7.96565246,57.9741394 10.3343301,58.6226283 14.6927784,58.678733 C19.26207,58.7378703 23.9933138,58.0524837 24.9197005,57.7593242 C25.2140664,57.6658165 25.3663422,57.5323784 25.4855145,56.7145645 L25.6230211,55.7708943 L26.5295457,56.0862934 C26.5392221,56.0893261 27.5837626,56.4102852 27.8888234,55.5586064 C28.2911574,54.4344915 28.0410992,52.8367723 27.7523354,50.9853186 C27.6856193,50.5602374 27.6173753,50.1250472 27.5547334,49.680759 C27.3331951,48.1062905 27.1371209,44.8886125 27.0113279,42.4665088 L27.0082722,42.4058551 L27.2547654,40.0393505 L27.8348394,39.9306793 C28.3196773,39.8402043 28.6522394,39.6011276 28.8819263,39.1780682 C29.3932469,38.234398 29.2134698,36.6199991 28.8936398,35.8648607 C28.6216824,35.223448 28.3446322,34.1139911 28.0706376,32.5673221 L28.0512848,32.4596618 L28.8187751,25.1695945 L29.3102337,28.030932 C30.8110922,27.9308534 31.7797494,25.7670333 31.9050332,24.2072227 C31.9849907,23.2135132 31.8016486,21.5834454 31.6071023,19.8578481 C31.4222324,18.2111006 31.2307418,16.5087539 31.2322697,15.0788433 C31.2343068,13.3982308 31.556174,11.7600759 31.8260942,10.6819567 L31.8851711,10.4454073 L32.0685132,10.2841696 C32.6348364,9.78579851 33.0269848,9.1357932 33.2352817,8.35234978 C33.7185918,6.53577195 33.0977752,4.66056223 31.8515584,4.17280552 C31.3616277,3.98124097 30.8085458,3.87964605 30.5926096,3.84477019 L30.2636124,3.79220366 L30.0726311,3.52128387 C29.8505835,3.20740106 29.5816818,2.9304159 29.273056,2.69639377 C28.0365156,1.76283249 25.5848248,1.11181628 22.4130071,2.08480246 C21.4810183,2.37038022 20.6249127,2.82022838 19.869136,3.42171074 L19.4428657,3.76036048 L18.9722877,3.48539711 C18.5745373,3.25188043 17.4108245,2.71509533 15.2351653,2.79647235 C13.8937125,2.8449953 13.2392832,3.36459519 13.019782,3.58547569 L12.6948591,3.91300558 L12.2477082,3.79169821 C11.3009502,3.53493095 10.2727068,3.39846016 9.26890897,3.38531853 M14.672407,60.2486525 C10.1102453,60.1895152 7.62392323,59.509183 5.97740964,59.0583239 L5.82462459,59.0168773 C4.22241866,58.5791598 3.83383534,57.2786438 3.95504482,56.4310085 C2.66655753,39.419672 0.198060357,7.12866171 0.0274503812,6.04043354 C-0.206820034,4.79501123 1.10254787,3.88924955 2.29528986,3.49398971 C2.58201647,3.41766716 2.89828153,3.35852982 3.2883927,3.30596329 C4.13380333,2.78080348 5.21704936,2.37038022 6.51164804,2.08328612 C8.28497323,1.69004807 10.352155,1.72492394 12.2497454,2.17224486 C12.7936601,1.75676712 13.7271768,1.28013026 15.1776163,1.22806918 C17.1852119,1.15477931 18.5118954,1.53841386 19.2931363,1.88666709 C20.0993321,1.31500613 20.9895597,0.878299603 21.9459941,0.585140131 C26.6563573,-0.862966568 29.4793158,0.879815945 30.2310183,1.44743334 C30.580896,1.71178231 30.8941054,2.01555617 31.1660628,2.35319501 C31.5133942,2.4224413 31.981935,2.53667241 32.4321416,2.71256809 C34.4326072,3.49550606 35.4572857,6.14859927 34.7651694,8.7526641 C34.4988141,9.75344988 34.0083741,10.6041178 33.3065814,11.2844499 C33.0712924,12.2725995 32.8161414,13.6686452 32.8141042,15.0808651 C32.8120671,16.4223224 32.9989742,18.0796843 33.1797698,19.6829634 C33.3824646,21.4853887 33.5739552,23.1882408 33.4822842,24.3315628 C33.3244063,26.2906768 32.1398129,28.9892602 29.9667001,29.5139146 C29.9142439,30.052216 29.8597506,30.5799031 29.8057665,31.0944485 L29.6601115,32.4733089 C29.8969283,33.7753413 30.1408751,34.7599528 30.3517185,35.2568076 C30.7678031,36.2388918 31.1141159,38.373396 30.2748167,39.9215813 C29.9188275,40.5786629 29.3850984,41.0507507 28.7128441,41.3090343 L28.5936718,42.4462909 C28.6970563,44.4150083 28.8992419,47.8813664 29.1217988,49.4634166 C29.1829128,49.9001232 29.249629,50.3277316 29.3148172,50.7447257 C29.6371937,52.80594 29.9152625,54.5856202 29.3800055,56.0837662 C28.9440588,57.3013889 27.8623407,57.7315246 26.9059062,57.7193939 C26.8997948,57.7193939 26.8936834,57.7193939 26.887572,57.7188884 C26.7037207,58.3067237 26.3151374,58.9653216 25.4004642,59.254943 C24.1888787,59.6380721 19.1948446,60.3072844 14.672407,60.2486525" id="Fill-3" fill="#F2F2DF"></path>
                    <path d="M31.8875747,58.7746163 C31.8809441,59.2689439 28.5843519,59.6268006 24.5243438,59.5742341 C20.4643356,59.522173 17.1784384,59.0788957 17.1845413,58.5845681 C17.1911705,58.0902406 20.4877626,57.7323839 24.5477708,57.7849504 C28.6077789,57.8375169 31.8941854,58.2802888 31.8875747,58.7746163" id="Fill-5" fill="#404042"></path>
                    <path d="M27.3314226,59.7483607 C27.3247919,60.2426882 24.0281998,60.6005449 19.9681916,60.5479784 C15.9081835,60.4959173 12.6222862,60.05264 12.6283891,59.5583125 C12.6350183,59.063985 15.9316105,58.7061282 19.9916186,58.7586948 C24.0516268,58.8112613 27.3380333,59.2540332 27.3314226,59.7483607" id="Fill-7" fill="#404042"></path>
                    <path d="M32.9779448,60.0641137 C32.9753943,60.2445584 31.7714481,60.3754692 30.2879052,60.3562622 C28.8048717,60.3370552 27.6039811,60.1753121 27.6065235,59.9948674 C27.609074,59.8139172 28.8135295,59.6835118 30.2965631,59.7027188 C31.7795966,59.7219258 32.9804872,59.883669 32.9779448,60.0641137" id="Fill-9" fill="#404042"></path>
                    <path d="M34.368286,59.3907567 C34.3672662,59.4852753 33.7372825,59.5535107 32.9611344,59.5434018 C32.1854956,59.5337983 31.557549,59.4488831 31.5585664,59.3543645 C31.5600955,59.2598458 32.1900792,59.1916104 32.9657179,59.2017194 C33.7413567,59.2118283 34.3693033,59.296238 34.368286,59.3907567" id="Fill-11" fill="#404042"></path>
                    <path d="M25.6840842,57.8482324 L26.016137,56.1120207 C26.016137,56.1120207 27.0397969,56.7392809 27.9763692,56.1372931 C28.9124323,55.5347998 28.6735784,54.0983184 28.4851435,52.7138981 C28.2972179,51.3289723 27.46403,44.0485085 27.46403,44.0485085 L27.5139398,40.2606859 C27.5139398,40.2606859 28.9592864,40.2025595 29.5729731,38.6235419 C30.1866597,37.0445243 29.3499069,35.9583179 29.0565596,34.7518151 C28.762703,33.5448068 28.62978,31.8793577 28.62978,31.8793577 L29.1151272,28.3018013 C29.1151272,28.3018013 31.2872213,27.8944107 32.0124411,25.6770131 C32.7381701,23.4596155 31.9441971,19.0976048 31.8576189,17.8162957 C31.77155,16.5354921 31.5978843,14.0502074 31.9279,12.4676517 C32.258425,10.8845905 32.2599529,10.73144 32.2599529,10.73144 C32.2599529,10.73144 33.9426256,8.3209615 33.4791776,6.26732886 C33.0162389,4.21369622 30.6271899,3.49141193 30.6271899,3.49141193 C30.6271899,3.49141193 28.8997003,1.47265516 27.2531867,1.16989219 C25.6061638,0.867129216 21.9871952,1.48579679 20.9452011,2.29147989 C19.9026977,3.09716299 19.3312816,3.42216564 19.3312816,3.42216564 C19.3312816,3.42216564 17.9246406,2.50831681 15.7316658,2.55683976 C13.538691,2.6053627 12.5491531,3.33472325 12.5491531,3.33472325 C12.5491531,3.33472325 10.9825971,2.80248717 8.34756417,3.15225675 C5.712022,3.50253177 3.89948199,4.04184411 3.55978988,4.39616272 C3.2195885,4.74997587 2.08133985,5.01685208 2.08133985,5.01685208 C2.08133985,5.01685208 1.38514929,4.98248166 1.42181771,6.13490165 C1.45848612,7.28681619 2.1108783,18.4814644 2.1108783,18.4814644 L3.95244747,39.3165102 L5.3137623,57.4570162 C5.3137623,57.4570162 7.46344799,58.7135583 11.9502357,58.7969571 C16.4370235,58.8808614 19.6623159,58.7686521 22.3508236,58.3172876 C25.038822,57.8654176 25.6840842,57.8482324 25.6840842,57.8482324" id="Fill-13" fill="#F2F2DF"></path>
                </g>
                <g id="Group-25" transform="translate(2.000000, 11.500000)">
                    <g id="Group-18">
                        <mask id="mask-2" fill="white">
                            <use xlink:href="#path-1"></use>
                        </mask>
                        <g id="Clip-17"></g>
                        <path d="M25.8205617,25.5638531 L25.9693359,14.302407 C25.9693359,14.302407 24.108886,8.91477511 14.9456295,4.02958245 C5.78237308,-0.855610206 1.53175463,-4.00893704 0.28956711,-7.42186594 L0.139248521,3.9584586 C0.139248521,3.9584586 1.01696494,7.90329232 12.4535326,14.0097831 C23.8895856,20.1157659 25.8205617,25.5638531 25.8205617,25.5638531" id="Fill-16" fill="#CE4646" mask="url(#mask-2)"></path>
                    </g>
                    <g id="Group-21">
                        <mask id="mask-4" fill="white">
                            <use xlink:href="#path-3"></use>
                        </mask>
                        <g id="Clip-20"></g>
                        <path d="M25.283842,66.2419725 L25.4326162,54.9805264 C25.4326162,54.9805264 23.5721662,49.5928945 14.4089098,44.7077018 C5.24565335,39.8225092 0.995034898,36.6691823 -0.247152619,33.2562534 L-0.397471208,44.636578 C-0.397471208,44.636578 0.48024521,48.5814117 11.9168129,54.6879025 C23.3528658,60.7938853 25.283842,66.2419725 25.283842,66.2419725" id="Fill-19" fill="#CE4646" mask="url(#mask-4)"></path>
                    </g>
                    <g id="Group-24">
                        <mask id="mask-6" fill="white">
                            <use xlink:href="#path-5"></use>
                        </mask>
                        <g id="Clip-23"></g>
                        <path d="M25.5445315,46.4860014 L25.6933057,35.2245553 C25.6933057,35.2245553 23.8328557,29.8369234 14.6695993,24.9517307 C5.50634285,20.0665381 1.2557244,16.9132112 0.0135368792,13.5002823 L-0.13678171,24.8806069 C-0.13678171,24.8806069 0.740934708,28.8254406 12.1775024,34.9319314 C23.6135553,41.0379142 25.5445315,46.4860014 25.5445315,46.4860014" id="Fill-22" fill="#140E3F" mask="url(#mask-6)"></path>
                    </g>
                </g>
                <g id="Group-186" transform="translate(1.000000, 1.500000)">
                    <path d="M17.2983042,5.68466746 C17.2983042,5.68466746 17.8892577,4.5263759 19.1082876,4.5426255 C20.3278191,4.55887509 21.7339675,5.84614782 22.4869567,7.8448482 C23.2404476,9.84354857 22.9183829,13.8165749 22.6976533,15.1850956 C22.4769236,16.5541242 22.997645,18.206505 23.8364178,18.8351613 C24.6751906,19.4633097 24.1880803,20.4509805 24.1880803,20.4509805 C24.1880803,20.4509805 23.4541541,19.5841661 22.6474874,19.0936314 C21.8408208,18.6030967 20.7998796,17.8693259 21.3737768,15.4080198 C21.9471723,12.9467137 22.0811151,10.4452914 21.2267909,8.37651469 C20.3729684,6.30824572 19.4037644,5.26674814 18.0402569,5.934505 L17.2983042,5.68466746 Z" id="Fill-26" fill="#404042"></path>
                    <path d="M20.1978394,4.11130027 C20.1978394,4.11130027 21.2382789,2.23904207 25.0268029,2.63207918 C28.8158286,3.0246085 30.1768278,7.84312168 30.4833411,10.3501297 C30.7898543,12.8576456 28.6056338,16.7377446 27.6168651,17.2389431 C26.6280965,17.7401416 24.6204596,15.7937446 24.6641039,15.0396618 C24.7077482,14.2860867 25.6252814,14.0580846 25.7180882,14.7451378 C25.810895,15.4321911 26.4781006,16.2294369 27.0570144,15.9973724 C27.6359281,15.7648 29.014987,13.8625816 29.2427399,11.9796596 C29.4699912,10.0967376 28.4671761,6.41468058 27.6354265,5.27213082 C26.8031752,4.12958107 24.1117781,2.68844497 20.1978394,4.11130027" id="Fill-28" fill="#404042"></path>
                    <path d="M29.3771844,13.6020295 L28.4220268,14.8471548 L27.1643693,27.2242694 C27.5225533,27.6802737 27.7869273,29.8150644 27.8792324,30.3391139 C28.448113,24.8594453 28.9412432,17.8121984 29.3771844,13.6020295" id="Fill-30" fill="#404042"></path>
                    <path d="M27.9427926,3.57739946 C27.5730703,3.52712727 27.1822785,3.47685508 26.7699153,3.42658289 C26.9033564,3.57181366 26.9776019,4.06996536 27.1000065,4.23804712 C28.3115115,4.39038709 29.008315,4.55897665 29.0063083,4.72908962 C29.0043017,4.85350059 28.6285596,4.96775557 27.9493141,5.06728435 L28.338601,5.89144357 C28.6661839,5.88738117 28.9977801,5.88230317 29.3333896,5.87773297 L29.0835637,8.33345325 L30.0382196,10.0274737 C30.3296831,7.21172329 30.5087752,5.48164906 30.5087752,5.48164906 C30.5087752,5.48164906 30.8845173,3.97602238 27.9427926,3.57739946" id="Fill-32" fill="#404042"></path>
                    <path d="M22.147334,55.3304856 C20.6699501,55.6194238 20.1793282,55.596065 20.1793282,55.596065 C20.1793282,55.596065 20.8365007,55.8616443 21.9040297,55.8245749 C22.9715587,55.7869977 23.6332461,55.6930548 23.6332461,55.6930548 C23.6332461,55.6930548 23.2198796,56.2018703 22.2526823,56.3435464 C21.2854849,56.4847148 20.7261358,56.5288934 20.7261358,56.5288934 C20.7261358,56.5288934 21.4856466,56.7447083 22.4001698,56.7568955 C23.3141914,56.7690827 23.723043,56.6197896 23.723043,56.6197896 C23.723043,56.6197896 20.9624169,57.9207729 14.2898589,57.8669461 C8.14053054,57.8176895 5.33024033,56.5319402 5.33024033,56.5319402 C5.33024033,56.5319402 6.59943601,56.598462 7.46379339,56.5598692 C8.35373535,56.5202608 8.58299323,56.4720198 8.58299323,56.4720198 C8.58299323,56.4720198 6.22519887,56.0805061 5.52237548,55.428491 C5.52237548,55.428491 7.65342026,55.636689 8.11143436,55.6168848 C8.56894679,55.5970806 5.62571711,55.301541 5.01168726,53.647129 C5.01168726,53.647129 8.36126023,55.2857992 14.6445314,55.3172828 C22.4869567,55.3563834 24.2437644,54.3123469 24.2437644,54.3123469 C24.2437644,54.3123469 23.6247179,55.0415475 22.147334,55.3304856 M26.7510529,31.2922543 L24.5487727,52.9621069 C24.5487727,52.9621069 21.3371557,54.7368676 15.2420065,54.5535518 C9.14685724,54.370236 5.00215575,52.670122 5.00215575,52.670122 L1.34707283,5.04560129 C1.34707283,5.04560129 4.0530181,5.83776912 18.116509,5.9337433 L18.1511234,5.21571425 C17.4166956,5.21419086 16.1755927,5.25836945 15.4070521,5.24821345 C7.86612341,5.14868467 1.95508278,4.88919892 1.96160434,4.38546143 C1.96260766,4.28796385 1.93050152,4.18081807 2.35440285,4.09855449 C2.59871048,3.83906875 2.99652557,3.43486003 3.1961856,3.21853728 C2.61175359,3.27998107 2.13116487,3.35310425 1.80257863,3.44095363 C1.80257863,3.44095363 -0.100713239,4.08382829 0.0889136263,5.11516988 C0.27904215,6.14600366 3.9747594,55.9139477 3.9747594,55.9139477 C3.9747594,55.9139477 3.68630583,57.2814528 5.2389385,57.7135905 C6.79157117,58.1457282 9.21909605,58.8632495 13.7575994,58.9231699 C18.2961027,58.9830903 23.057844,58.2914668 24.0782171,57.9619047 C25.0985902,57.6323425 25.1111317,56.6726008 25.2606259,55.5772764 C25.333868,55.0395163 26.745033,41.0719725 27.9981756,29.0036002 C27.7333,29.3103114 27.0801408,31.0398778 26.7510529,31.2922543" id="Fill-34" fill="#404042"></path>
                    <path d="M27.2139331,16.9592977 C27.2139331,16.9592977 27.6057283,18.0957538 27.8665907,19.5653267 C28.1269514,21.0343918 27.9538792,23.9384994 26.7629422,25.6970104 C25.5715036,27.4560293 23.8979713,27.2107619 23.3009978,26.2002401 C22.704526,25.1892105 23.8623535,24.038536 24.0896048,24.1446662 C24.316856,24.2502885 24.5431039,24.4589943 24.1819099,24.8916398 C23.8207159,25.3237775 23.7354339,26.0174322 24.6504588,25.9778238 C25.5654837,25.9382154 26.6741487,24.69309 26.9856786,22.2023316 C27.2972084,19.7120809 26.1173079,16.636337 26.1173079,16.636337 L27.2139331,16.9592977 Z" id="Fill-36" fill="#404042"></path>
                    <path d="M21.9282096,18.3812389 C21.9282096,18.3812389 20.6128614,19.9066698 20.4839352,22.0399372 C20.355009,24.1726967 21.2013067,27.501325 21.826373,28.2549001 C22.451941,29.0089829 23.9228033,29.2171808 23.8761491,28.8820329 C23.8299965,28.5473928 23.7331765,28.1518167 23.3072685,27.7090152 C22.8808589,27.2662137 21.6608257,24.6698328 21.6889186,22.5101599 C21.7165098,20.3499791 22.390237,19.3303169 23.036373,18.4645181 L21.9282096,18.3812389 Z" id="Fill-38" fill="#404042"></path>
                    <path d="M26.3884041,25.177785 C26.3884041,25.177785 27.7082673,27.2526554 27.8692996,28.5663337 C28.030332,29.880012 27.1218286,31.3592331 26.3999422,32.1986264 C25.6775542,33.0375118 23.4115633,33.4193773 22.2888519,31.8360572 C21.1656388,30.2522294 21.9587606,27.8452579 21.9587606,27.8452579 L22.9485326,28.5257097 C22.9485326,28.5257097 22.0104315,30.3390632 23.2906636,31.5389943 C24.5708958,32.7389254 26.0312233,31.8066048 26.63823,30.039969 C27.2452366,28.273841 25.7994572,26.1202616 25.7994572,26.1202616 L26.3884041,25.177785 Z" id="Fill-40" fill="#404042"></path>
                    <path d="M1.83679174,4.20361829 C1.83679174,4.20361829 2.54061844,2.79853599 5.87865326,2.04546875 C9.21668809,1.29189371 13.0899924,2.34608628 14.0657179,3.51605724 C15.0414435,4.68602819 13.5018539,3.92026595 12.5938523,3.39367746 C11.6858506,2.86759677 9.90095011,2.70713201 7.40921296,2.87978397 C4.91697416,3.05243593 3.51885227,3.80550317 3.23391031,4.21326649 C2.94947001,4.6210298 2.94846669,4.69821538 2.74278676,4.87543755 C2.53710683,5.05316751 1.19617399,4.6322014 1.83679174,4.20361829" id="Fill-42" fill="#404042"></path>
                    <path d="M17.9079194,3.06101775 C17.9079194,3.06101775 17.0049344,2.14900914 15.2777246,2.12615815 C13.5505148,2.10330715 12.691174,3.05238515 12.691174,3.05238515 L11.4380314,2.3754879 C11.4380314,2.3754879 12.2145985,1.28016353 14.2734045,1.20450134 C16.3322105,1.12883916 17.7488937,1.58433566 18.5048929,2.08299516 C19.2603904,2.58165465 17.9079194,3.06101775 17.9079194,3.06101775" id="Fill-44" fill="#404042"></path>
                    <path d="M29.7190144,3.25956751 C29.7190144,3.25956751 30.809118,3.45405487 31.5520741,4.95511135 C32.2945285,6.45667563 31.5089315,8.29795804 30.8643004,9.00938569 C30.2201711,9.72132114 29.5098228,9.66038515 29.5098228,9.66038515 L30.001448,10.9441033 C30.001448,10.9441033 32.1179447,10.3377902 32.785652,7.77492415 C33.3545326,5.59341581 32.5910086,3.2946057 30.9551006,2.64157504 C30.2216761,2.3490823 29.4019663,2.24396772 29.4019663,2.24396772 L29.7190144,3.25956751 Z" id="Fill-46" fill="#404042"></path>
                    <path d="M31.8265314,8.61929381 C31.8265314,8.61929381 30.8422776,11.417779 30.8382644,14.3325504 C30.8347528,17.246814 31.6604824,21.5097941 31.4989485,23.5648602 C31.3369128,25.6204342 29.9433058,28.6195004 27.4776549,28.0725999 L27.5629368,26.702048 C27.5629368,26.702048 29.4597072,26.7269302 30.0968133,24.575382 C30.7344211,22.4233261 29.9367843,15.9666505 29.9367843,15.9666505 C29.9367843,15.9666505 29.6533473,11.6422266 30.7981317,9.56583281 L31.8265314,8.61929381 Z" id="Fill-48" fill="#404042"></path>
                    <path d="M27.4514684,30.0951161 C27.4514684,30.0951161 27.9150007,33.5644049 28.4733465,34.9090591 C29.0321939,36.2537132 29.3557635,40.0642436 26.3402951,40.1272108 L26.4371151,39.159852 C26.4371151,39.159852 27.9947644,39.2146944 28.1879028,37.3652871 C28.3810413,35.5163877 27.6305604,35.2665502 27.4469534,33.7553377 C27.2628448,32.2441252 27.0205438,31.3326244 27.0205438,31.3326244 L27.4514684,30.0951161 Z" id="Fill-50" fill="#404042"></path>
                    <path d="M26.5819941,39.7531654 C26.5819941,39.7531654 26.8674377,46.5119819 27.2085654,48.9849674 C27.5491914,51.4584607 28.0628896,53.6597732 27.5005305,55.2639131 C26.9376698,56.8680529 24.8091334,56.428806 24.7143199,55.9128813 C24.6195065,55.3974644 24.7474294,54.6530298 24.7474294,54.6530298 C24.7474294,54.6530298 25.0765173,55.4121906 26.0251533,55.3903552 C26.9737892,55.3685198 27.1162602,54.1614795 26.9040587,52.2384413 C26.6918572,50.3154031 26.344208,47.7053117 26.2629393,46.1265618 C26.1816707,44.5483197 26.0758208,41.5807372 26.0758208,41.5807372 L26.5819941,39.7531654 Z" id="Fill-52" fill="#404042"></path>
                    <path d="M22.2253921,9.76143733 C22.2253921,9.76143733 17.996412,10.6830941 15.2041815,10.4916536 C12.4119509,10.3007208 10.429397,10.3773986 8.29333568,10.5038408 C6.15777598,10.6297751 1.55104713,9.31762023 1.3007196,9.00583109 C1.05089373,8.69353416 1.28165658,10.4799742 1.28165658,10.4799742 C1.28165658,10.4799742 6.37900732,11.8840409 8.49851396,11.6722883 C10.5237088,11.4696762 12.709936,11.4569812 14.1386591,11.6778741 C15.592465,11.9028295 19.8992022,11.5478774 20.9020173,11.269603 C22.2038208,10.9085573 22.1777345,10.8237547 22.1777345,10.8237547 L22.2253921,9.76143733 Z" id="Fill-54" fill="#404042"></path>
                    <path d="M16.3403373,4.44624508 C16.3403373,4.44624508 17.672742,1.60916708 21.1417096,0.523490909 C24.6106773,-0.562185261 27.2428788,0.218303174 28.6013697,1.26487875 C29.9598606,2.31145433 30.2463075,3.72923163 30.317543,4.14207294 C30.3882768,4.55440646 29.5645538,4.73213642 29.0980115,3.49158128 C28.6309675,2.25102614 27.8288158,1.41721872 26.3358805,0.934808822 C24.8434468,0.452398924 22.5262868,0.841881442 20.7393796,1.5126851 C18.9524725,2.18348876 18.1463075,3.61294545 17.5553539,4.14511974 C16.9638987,4.67729403 16.0283058,5.00787176 16.3403373,4.44624508" id="Fill-56" fill="#404042"></path>
                    <path d="M10.4361694,3.52402969 C9.64003759,3.22087316 8.77768684,3.07767359 7.92687424,3.12388338 C7.07054339,3.17009317 6.27390989,3.42957891 5.5254356,3.84546703 C5.35637673,3.93941001 5.50436595,4.18010715 5.67392648,4.10241377 C7.11669596,3.44125831 8.85042731,3.31786294 10.3554024,3.82007703 C10.5430227,3.88253642 10.6162648,3.59258268 10.4361694,3.52402969" id="Fill-58" fill="#404042"></path>
                    <path d="M14.6456852,3.16359333 C14.8844746,3.09453254 15.1428286,3.07574395 15.3886412,3.11179774 C15.5190724,3.13160194 15.6479986,3.16765573 15.7739149,3.20777192 C15.8195658,3.22199032 15.8892963,3.24788811 15.9198975,3.26007531 C16.0061827,3.2951135 16.0844414,3.3083163 16.1767465,3.3113631 C16.2459754,3.3139021 16.312696,3.26515331 16.3377789,3.20218612 C16.3663734,3.13007854 16.3473104,3.06660355 16.3011578,3.00719096 C16.1973145,2.87414739 16.0473187,2.8233674 15.8908013,2.77817321 C15.7413071,2.73501022 15.5837863,2.71622162 15.4287739,2.71063583 C15.1332971,2.69997203 14.838322,2.74821302 14.5604033,2.849773 C14.3682681,2.91984938 14.4435169,3.22199032 14.6456852,3.16359333" id="Fill-60" fill="#404042"></path>
                    <path d="M8.68498038,9.52901732 C8.22596296,9.68237289 7.75039082,9.72807488 7.2698021,9.67983389 C7.03703261,9.65698289 6.80526645,9.6148355 6.57952018,9.55542292 C6.35778718,9.49702593 6.1079613,9.34874836 5.87770011,9.39698935 C5.75379049,9.42339494 5.70161802,9.58233631 5.76181703,9.68592749 C5.89174655,9.91139064 6.24039912,9.97994363 6.4731686,10.0358016 C6.73302764,10.0977532 7.00241819,10.128729 7.2698021,10.1216198 C7.79253013,10.1068936 8.30522499,9.97689683 8.78079713,9.75905067 C8.90872001,9.70014588 8.81791985,9.48433093 8.68498038,9.52901732" id="Fill-62" fill="#404042"></path>
                    <path d="M6.8241288,8.81758967 C6.58834936,8.94910984 6.37313792,9.11211361 6.11929878,9.21062679 C5.86947291,9.30710877 5.60459729,9.35433416 5.33771504,9.35991996 C5.06230459,9.36550576 4.79191072,9.31574137 4.53405832,9.21976719 C4.40663709,9.172034 4.28373079,9.11465261 4.16634273,9.04559182 C4.04845301,8.97653104 3.94059646,8.89071286 3.80866031,8.85059666 C3.65314621,8.80337127 3.51870177,8.98719484 3.59946877,9.12582421 C3.75197291,9.38683335 4.12320011,9.53917332 4.39660392,9.6265149 C4.70562548,9.72502808 5.03972996,9.76463647 5.3622963,9.73518408 C5.91361885,9.68440409 6.61393394,9.40765315 6.91292233,8.90747025 C6.94753676,8.85008886 6.87981288,8.78661388 6.8241288,8.81758967" id="Fill-64" fill="#404042"></path>
                    <path d="M2.76465907,7.11696783 C2.68539704,7.04435245 2.63623452,6.96513566 2.60964663,6.87322388 C2.60061678,6.84326369 2.59459688,6.8133035 2.58857698,6.7828355 C2.58657034,6.77115611 2.58406205,6.75896891 2.58155376,6.74678171 C2.57804215,6.72850091 2.58155376,6.76252351 2.57904547,6.73053211 C2.57703883,6.70311092 2.57603552,6.67568973 2.57653718,6.64776073 C2.57703883,6.63252673 2.57804215,6.61729274 2.57904547,6.60205874 C2.57703883,6.62643314 2.57954713,6.59748854 2.58155376,6.58733254 C2.58657034,6.56143475 2.5930919,6.53553696 2.60061678,6.51065476 C2.60412839,6.49948316 2.60814165,6.48831157 2.61215492,6.47713997 C2.62971296,6.42585218 2.60412839,6.49186616 2.61767316,6.46393717 C2.62870965,6.44007058 2.64074945,6.41721958 2.65429422,6.39436859 C2.6618191,6.38167359 2.66984563,6.36948639 2.67837383,6.35780699 C2.68389207,6.34917439 2.70295509,6.3263234 2.68690202,6.3456198 C2.72051313,6.3049958 2.75713419,6.26792641 2.79576189,6.23238042 C2.83489124,6.19632663 2.78322043,6.23999742 2.80780169,6.22222442 C2.81984149,6.21359182 2.83188129,6.20546703 2.84392109,6.19734223 C2.87402059,6.17753803 2.90111014,6.15671824 2.91515658,6.14707004 C3.0631458,6.04144766 2.97334895,5.81649231 2.79225028,5.8525461 C2.50128842,5.91043529 2.27955542,6.22577902 2.23390451,6.50811576 C2.20681495,6.67772093 2.22336968,6.84123249 2.29360185,6.99763486 C2.35781412,7.14083443 2.46215907,7.2591518 2.58456371,7.35309478 C2.64275608,7.39778117 2.7365662,7.36832878 2.77619721,7.31450199 C2.81833651,7.2571206 2.82034315,7.16825562 2.76465907,7.11696783" id="Fill-66" fill="#404042"></path>
                    <path d="M16.666315,9.85416159 C17.2291756,10.0323994 17.8060828,10.0973977 18.3935247,10.0456022 C18.6744534,10.02072 18.9553821,9.97603357 19.2282843,9.90291038 C19.3742669,9.86431759 19.5187445,9.8181078 19.6612155,9.76529661 C19.7971649,9.71502442 19.9426458,9.67084583 20.0489974,9.56827025 C20.1553489,9.46569467 20.0785952,9.25038752 19.9235828,9.26155912 C19.791145,9.27120732 19.6782718,9.3311277 19.5548639,9.37632189 C19.4304526,9.42202388 19.3045363,9.46264788 19.1766135,9.49768607 C18.9107345,9.57080925 18.6393373,9.62565164 18.3649302,9.65256503 C17.8286574,9.70486842 17.2723183,9.67693943 16.7435703,9.56979365 C16.5609667,9.53323206 16.4857179,9.797288 16.666315,9.85416159" id="Fill-68" fill="#404042"></path>
                    <path d="M17.5252544,7.57246434 C17.3210795,7.15860742 16.9859717,6.83361549 16.5685919,6.64471393 C16.3543838,6.54772415 16.1336541,6.48881937 15.8998813,6.46444497 C15.7925264,6.45327337 15.6836665,6.45022657 15.5753083,6.45733577 C15.4443755,6.46647617 15.292373,6.47612437 15.1764899,6.54366175 C14.9933846,6.65029973 15.0701383,6.95548747 15.2853498,6.95040947 C15.393708,6.94787047 15.4970496,6.90521528 15.6039028,6.88947348 C15.6916931,6.87627068 15.7814899,6.87271608 15.8702834,6.87576288 C16.0599103,6.88185648 16.2470289,6.92400387 16.4251176,6.98900226 C16.7792884,7.11849123 17.108878,7.37543798 17.3030198,7.70398451 C17.3883017,7.84921528 17.5989982,7.7217575 17.5252544,7.57246434" id="Fill-70" fill="#404042"></path>
                    <path d="M15.7909713,7.41276127 C15.6359588,6.99839656 15.3309505,6.62110124 14.9286205,6.43118408 C14.7008676,6.3235305 14.4455235,6.26716471 14.1941926,6.27275051 C13.9423601,6.27782851 13.6082557,6.3250539 13.428662,6.52004906 C13.3017424,6.65766283 13.3784961,6.95828037 13.5972192,6.93238257 C13.7973809,6.90902378 13.9759713,6.806956 14.1771363,6.781566 C14.375793,6.75617601 14.5689315,6.7769958 14.75906,6.83843959 C15.1016926,6.94863217 15.3725882,7.19694632 15.5250923,7.52650845 C15.5938195,7.67580161 15.8496653,7.56916364 15.7909713,7.41276127" id="Fill-72" fill="#404042"></path>
                    <path d="M10.5038431,7.25295664 C10.4225745,7.11483507 10.28813,7.01581409 10.1376325,6.9680809 C10.0588722,6.94269091 9.97910849,6.93710511 9.89783983,6.94827671 C9.86021545,6.95335471 9.82409605,6.95944831 9.7884783,6.9716355 C9.74985061,6.9848383 9.71975111,7.0046425 9.68914994,7.03155589 C9.65202722,7.06557848 9.63848245,7.10620247 9.63246255,7.15596686 C9.62644265,7.20827025 9.665572,7.25752684 9.70570467,7.28444024 C9.75135558,7.31592383 9.82509936,7.31236923 9.87727184,7.29764303 C9.89031495,7.29408843 9.90335807,7.29053384 9.91640119,7.28748704 C9.92392606,7.28596364 9.93345757,7.28596364 9.94048079,7.28342464 C9.9379725,7.28444024 9.89683651,7.28799484 9.9199128,7.28647144 C9.94750401,7.28444024 9.9740919,7.28494804 10.0011815,7.28545584 C10.0147262,7.28596364 10.028271,7.28596364 10.0418158,7.28697924 C10.0493407,7.28748704 10.0588722,7.28951824 10.066397,7.28951824 C10.0583705,7.28951824 10.0227528,7.28240904 10.050344,7.28748704 C10.0774335,7.29256503 10.1035198,7.29967423 10.129606,7.30881463 C10.1316126,7.30932243 10.148669,7.31592383 10.148669,7.31592383 C10.1481674,7.31693943 10.1085363,7.29764303 10.1371309,7.31135363 C10.1496723,7.31744723 10.1617121,7.32354083 10.1732503,7.33065003 C10.1852901,7.33725143 10.1963266,7.34486842 10.207363,7.35299322 C10.227931,7.36670382 10.2053564,7.35400882 10.1993365,7.34639182 C10.2033498,7.35146982 10.210373,7.35553222 10.2148879,7.35959462 C10.2249211,7.36873502 10.2349543,7.37838322 10.2439841,7.38853921 C10.248499,7.39361721 10.253014,7.39869521 10.2575289,7.40377321 C10.2755886,7.42357741 10.2379642,7.37685982 10.2550206,7.40021861 C10.2780969,7.43170221 10.3026781,7.4565844 10.3413058,7.4672482 C10.3754186,7.4768964 10.4215712,7.4723262 10.4521723,7.452522 C10.5173879,7.40986681 10.5449791,7.32303303 10.5038431,7.25295664" id="Fill-74" fill="#404042"></path>
                    <path d="M28.7277374,3.91564497 C28.3389522,2.89547499 27.6356271,2.06674556 26.6493668,1.59703066 C25.5432101,1.06993437 24.3001006,1.11462076 23.1834091,1.59042926 C23.0710376,1.63816245 23.1176918,1.82655621 23.2345782,1.77933082 C25.242215,0.971421194 27.6070326,2.04897257 28.4673767,4.02685315 C28.531589,4.17462292 28.7859298,4.06849274 28.7277374,3.91564497" id="Fill-76" fill="#404042"></path>
                    <path d="M26.2137768,14.1989483 C26.5303232,14.62093 27.0926823,14.7169041 27.5506964,14.4675744 C28.0759327,14.1816831 28.3332834,13.5337304 28.4536815,12.9756583 C28.5981591,12.3048547 28.5665546,11.5431548 28.5138805,10.8616874 C28.458698,10.1451817 28.300174,9.44594126 28.0358,8.7792 C27.9670728,8.60604024 27.6876491,8.67916342 27.7548713,8.85740118 C28.1461649,9.89331296 28.3884659,11.1414851 28.0919858,12.2322393 C27.9625579,12.7080478 27.8968407,13.2534249 27.6399916,13.6809924 C27.4207669,14.0455927 26.8513846,14.3649988 26.5067453,13.9699305 C26.3687892,13.8120047 26.0848506,14.0268041 26.2137768,14.1989483" id="Fill-78" fill="#404042"></path>
                    <path d="M25.9405737,5.38024142 C25.25581,4.75920215 24.4556649,4.34077504 23.539135,4.20722367 C22.6893257,4.08281269 21.6945372,4.16304508 20.9234883,4.57791759 C20.8131234,4.63733018 20.8893755,4.81201334 21.0077669,4.77951415 C21.4171201,4.66779817 21.8059053,4.5484652 22.2328166,4.521044 C22.6562163,4.49362281 23.094164,4.5124114 23.5120455,4.58655019 C24.3272403,4.73127316 25.1454451,5.04458569 25.8066309,5.55594018 C25.9059592,5.63312577 26.0333805,5.4645362 25.9405737,5.38024142" id="Fill-80" fill="#404042"></path>
                    <path d="M26.0878606,7.00469328 C25.800912,6.36384981 25.3037685,5.83726132 24.6847221,5.51785519 C24.0772138,5.20403486 23.3362644,5.15427047 22.6735737,5.27665024 C22.5406342,5.30102464 22.5697304,5.53562819 22.7056798,5.51785519 C23.3437892,5.43406821 23.925713,5.61027477 24.4915836,5.89819731 C25.0459161,6.18002625 25.5300164,6.60454696 25.839038,7.15195524 C25.9328481,7.31800581 26.1626077,7.17226724 26.0878606,7.00469328" id="Fill-82" fill="#404042"></path>
                    <path d="M30.8884804,8.08803357 C31.1322863,7.70109005 31.3093718,7.26539774 31.3871288,6.81244024 C31.4252548,6.58697708 31.4483311,6.35338913 31.4403046,6.12437138 C31.4327797,5.91718903 31.4443179,5.59524389 31.2541893,5.46930952 C31.1849605,5.42360753 31.1031902,5.46118472 31.0595459,5.52110511 C30.9893137,5.61707929 31.0103834,5.72727187 31.0194132,5.83797224 C31.0274397,5.93343862 31.029948,6.028905 31.031453,6.12437138 C31.0339613,6.33256934 31.0254331,6.53924389 30.994832,6.74541065 C30.9341313,7.15774416 30.8077134,7.55738268 30.6110633,7.9235064 C30.5117349,8.10834556 30.7771122,8.26474793 30.8884804,8.08803357" id="Fill-84" fill="#404042"></path>
                    <path d="M24.2027287,17.501628 C23.8360164,17.0654279 23.6243166,16.5032934 23.5580977,15.9381121 C23.5249883,15.6578066 23.5154567,15.3683606 23.5515761,15.0880551 C23.5907055,14.7894687 23.7286616,14.5193192 23.7778241,14.2273343 C23.7953821,14.1232353 23.6870239,14.0562057 23.6057553,14.1257743 C23.3729858,14.324324 23.2535911,14.6990804 23.175834,14.9864951 C23.0880438,15.3109792 23.0474095,15.6527286 23.0765057,15.9878765 C23.136203,16.6754375 23.4241549,17.3152654 23.8957138,17.8124015 C24.0918622,18.0190761 24.3818208,17.7143961 24.2027287,17.501628" id="Fill-86" fill="#404042"></path>
                    <path d="M22.9495359,30.4714974 C23.0910036,30.9401967 23.3684207,31.3692876 23.8204149,31.5790089 C24.3170567,31.8095501 24.8713892,31.7699417 25.3529812,31.5170573 C25.5782258,31.3992478 25.8130019,31.2230412 25.9409248,30.9965625 C25.9855724,30.9183613 26.0196852,30.8345743 26.0211902,30.7426625 C26.0221935,30.6934059 26.0151703,30.6517663 25.9966089,30.6070799 C25.9850708,30.5791509 25.889254,30.4461074 25.9599878,30.5405581 C25.9033004,30.464896 25.8506263,30.4389982 25.7598261,30.424272 C25.8626661,30.4410294 25.7302283,30.416655 25.7166835,30.416655 C25.6534746,30.416655 25.5847474,30.442045 25.5300666,30.4745442 C25.423715,30.5385269 25.3364265,30.6431337 25.246128,30.7269207 C25.2009787,30.7695759 25.1819157,30.7848099 25.1488062,30.8076609 C25.0946271,30.8457459 25.0379397,30.8797685 24.9797474,30.9102365 C24.8192167,30.9945313 24.6045069,31.0422644 24.4158834,31.0402332 C24.2904688,31.0392176 24.2217416,31.0265226 24.0867955,30.9889455 C23.9739223,30.9574619 23.8695774,30.9142989 23.7692457,30.8594565 C23.5379812,30.7330143 23.348856,30.5964161 23.2239431,30.3541956 C23.1451827,30.2018556 22.8998718,30.3069702 22.9495359,30.4714974" id="Fill-88" fill="#404042"></path>
                    <path d="M25.6668187,24.2158597 C25.9236678,23.8593842 26.1594472,23.5282987 26.334526,23.1195197 C26.5035849,22.7239436 26.6074281,22.3151647 26.6525774,21.8865816 C26.6967233,21.4757715 26.6731454,21.0664848 26.6184646,20.6577059 C26.5627805,20.2433412 26.5146213,19.7781964 26.3224862,19.4014089 C26.234696,19.2292648 26.0014248,19.3562147 26.0315243,19.5258199 C26.1022582,19.9249506 26.2402142,20.2956445 26.2527557,20.7079781 C26.2637922,21.091367 26.2241611,21.4788183 26.153929,21.8556058 C26.0154713,22.5954703 25.7997582,23.4145515 25.3758568,24.0437155 C25.2524489,24.2270313 25.5414041,24.3900351 25.6668187,24.2158597" id="Fill-90" fill="#404042"></path>
                    <path d="M22.8518129,22.5909001 C22.6998104,22.2765719 22.7263983,21.857637 22.7850923,21.5285827 C22.8166968,21.3544073 22.8683676,21.182771 22.9406064,21.0365246 C22.983749,20.9486752 23.0389315,20.8684428 23.085084,20.7826246 C23.1312366,20.6968065 23.1653494,20.6054025 23.2094953,20.5190765 C23.3018004,20.3393153 23.1091636,20.1108054 22.9230484,20.228615 C22.7108469,20.3636897 22.5708842,20.5261857 22.4690475,20.7577424 C22.3697192,20.9832056 22.3075135,21.2142545 22.2784174,21.4590141 C22.2533344,21.67229 22.2658759,21.9140028 22.3250716,22.1206774 C22.3872772,22.3385235 22.4901172,22.5436747 22.5949638,22.7427322 C22.6862656,22.9148764 22.9350882,22.763552 22.8518129,22.5909001" id="Fill-92" fill="#404042"></path>
                    <path d="M27.60322,37.8985786 C27.7201064,37.6629594 27.8083983,37.4156609 27.8540492,37.1551595 C27.8771255,37.0205926 27.8896669,36.88501 27.8911719,36.7484118 C27.8926769,36.6082591 27.8796338,36.4462709 27.7943519,36.3304925 C27.7311429,36.2451821 27.5766321,36.2096361 27.5219514,36.3304925 C27.462254,36.4620127 27.4587424,36.5879471 27.4562341,36.7357168 C27.4542275,36.8525108 27.4426893,36.9682892 27.4311512,37.0845754 C27.4276396,37.1125044 27.4271379,37.1175824 27.4291446,37.1013328 C27.4276396,37.11352 27.4256329,37.126215 27.4236263,37.1384022 C27.419613,37.1673467 27.4145965,37.1962913 27.4090782,37.2252359 C27.3985434,37.2826173 27.3865036,37.3399987 27.3734605,37.3968723 C27.3453676,37.5182365 27.3087465,37.6375694 27.2651023,37.7543634 C27.2324945,37.8401816 27.2936968,37.943265 27.3719555,37.9752564 C27.4527225,38.0082634 27.5610807,37.9833812 27.60322,37.8985786" id="Fill-94" fill="#404042"></path>
                    <path d="M29.4629679,23.2142752 C29.4293568,23.6438739 29.2276902,24.074996 28.957798,24.3903398 C28.8855591,24.4746345 28.8067988,24.5533435 28.7250285,24.6284979 C28.6818858,24.6675985 28.6397465,24.7082225 28.5956006,24.7468153 C28.5755343,24.7640805 28.5554679,24.7808379 28.5348999,24.7975953 C28.5178436,24.8118137 28.5183452,24.8113059 28.5369066,24.7965797 C28.5283784,24.8026733 28.5198502,24.8092747 28.5118237,24.8153683 C28.4170102,24.8839212 28.3196885,24.9458728 28.2173502,25.0017308 C28.1551446,25.0352456 28.0929389,25.067237 28.0432747,25.1200482 C28.0021388,25.1632112 27.9615044,25.2261784 27.945953,25.2845754 C27.9419397,25.3125044 27.9384281,25.3404334 27.9349165,25.3683623 C27.9484613,25.4871875 27.9499663,25.4800783 27.9389298,25.3470347 C27.9123419,25.4389465 27.9549829,25.5648809 28.0442781,25.6090595 C28.0733742,25.6242935 28.0673543,25.6187077 28.0257167,25.5912865 C28.0467863,25.6080439 28.067856,25.6242935 28.0889256,25.6405431 C28.1446097,25.6735501 28.210327,25.6867529 28.2745392,25.6852295 C28.3773792,25.6831983 28.468681,25.6390197 28.5544646,25.5851929 C28.6763676,25.5095307 28.791749,25.4196501 28.9006089,25.3257072 C29.1012722,25.1525474 29.2658162,24.9448572 29.398254,24.7143161 C29.6606213,24.2572962 29.784531,23.7413715 29.7755011,23.2142752 C29.7719895,23.0086162 29.4785193,23.0131864 29.4629679,23.2142752" id="Fill-96" fill="#404042"></path>
                    <path d="M29.5532163,19.269838 C29.4844891,18.8712151 29.4709443,18.4553269 29.4548912,18.051626 C29.4473664,17.8490139 29.4453597,17.6458939 29.4523829,17.4432818 C29.4584028,17.2559036 29.5085687,17.0223157 29.4423498,16.8430623 C29.3987055,16.7247449 29.2441947,16.6932613 29.1734609,16.8075163 C29.0656043,16.9821995 29.0801524,17.2437164 29.0756375,17.4432818 C29.0701193,17.6535109 29.0721259,17.8647557 29.0856707,18.0749848 C29.1137635,18.5081381 29.208577,18.9179327 29.3134236,19.3368676 C29.3535562,19.4958089 29.5803058,19.4267481 29.5532163,19.269838" id="Fill-98" fill="#404042"></path>
                    <path d="M13.7186707,57.3471621 C14.1997611,57.4360271 14.6878747,57.4847759 15.1769916,57.4741121 C15.4248108,57.4685263 15.67263,57.4512611 15.9184426,57.4177463 C16.1346574,57.3888017 16.4035463,57.3771223 16.6001964,57.2760701 C16.7005281,57.2247824 16.6438407,57.0831062 16.5465189,57.0765048 C16.4326425,57.06838 16.3132478,57.1044338 16.2003747,57.1211912 C16.0890065,57.1374408 15.9776383,57.1506436 15.8652669,57.1618152 C15.6365106,57.1841584 15.4072528,57.2009158 15.1769916,57.2049782 C14.7104493,57.2141186 14.2429037,57.1882208 13.781378,57.116621 C13.6338904,57.09377 13.5676715,57.3192331 13.7186707,57.3471621" id="Fill-100" fill="#404042"></path>
                    <path d="M15.6884824,56.8263118 C15.4898257,56.8293586 15.291169,56.8324054 15.0925123,56.8354522 C14.9931839,56.8369756 14.8938556,56.838499 14.7945272,56.8400224 C14.6936939,56.8415458 14.5883456,56.833421 14.4890173,56.8496706 C14.4343365,56.858811 14.4002237,56.924825 14.4077486,56.9761127 C14.4167785,57.0360331 14.4614261,57.0695479 14.5191168,57.0756415 C14.6154352,57.0852897 14.7207834,57.0675167 14.8176035,57.0629465 C14.9129186,57.0583763 15.0082337,57.0543139 15.1040504,57.0497437 C15.2986939,57.0406033 15.493839,57.0314629 15.6884824,57.0223225 C15.8123921,57.0167367 15.813897,56.8242806 15.6884824,56.8263118" id="Fill-102" fill="#404042"></path>
                    <path d="M14.6800989,56.4581569 C14.838623,56.4546023 14.997147,56.4515555 15.1556711,56.4480009 C15.2334281,56.4464775 15.3111852,56.4444463 15.3889422,56.4429229 C15.4275699,56.4419073 15.4666993,56.4413995 15.505327,56.4403839 C15.5233867,56.4398761 15.5414464,56.4403839 15.5595061,56.4388605 C15.5931172,56.4363215 15.6192034,56.4226109 15.6493029,56.4089003 C15.687429,56.3916351 15.706492,56.3388239 15.7009737,56.3002311 C15.6939505,56.2560525 15.665356,56.2250767 15.6237184,56.2098427 C15.5469646,56.1824215 15.4601777,56.2007023 15.3799124,56.2057803 C15.3021553,56.2108583 15.2243983,56.2164441 15.1466412,56.2215221 C14.9911271,56.2316781 14.835613,56.2423419 14.6800989,56.2530057 C14.6254182,56.2565603 14.578764,56.2971843 14.578764,56.3555813 C14.578764,56.4104237 14.6249165,56.4591725 14.6800989,56.4581569" id="Fill-104" fill="#404042"></path>
                    <path d="M15.0238353,55.9615793 C15.1251703,55.9463453 15.2280102,55.9351737 15.3283419,55.9138462 C15.3534248,55.9087682 15.382521,55.8854094 15.3940591,55.8625584 C15.4060989,55.8402152 15.4106139,55.8168564 15.4076039,55.7914664 C15.4005807,55.739163 15.3539265,55.6914298 15.2987441,55.6944766 C15.1964057,55.6995546 15.0940674,55.7152964 14.9922308,55.726468 C14.959623,55.7305304 14.9335368,55.7386552 14.9089555,55.7615062 C14.8813643,55.787404 14.8713311,55.8259968 14.8763477,55.8620506 C14.8808626,55.8945498 14.8954107,55.9199398 14.9209953,55.9402517 C14.9320318,55.9509155 14.9455766,55.9580247 14.961128,55.9615793 C14.9821976,55.9671651 15.0027656,55.9671651 15.0238353,55.9615793" id="Fill-106" fill="#404042"></path>
                    <path d="M19.6759642,50.2979348 C20.1279584,50.5878885 20.5593846,50.9113571 20.9707445,51.2571688 C21.1734145,51.4277896 21.3695629,51.6070429 21.5576848,51.7939133 C21.6519965,51.8873485 21.7448033,51.982307 21.8381118,52.07625 C21.9339286,52.172732 22.0076723,52.2874948 22.1481367,52.3052678 C22.2148572,52.3133926 22.272548,52.2407772 22.272548,52.1793334 C22.272548,52.043243 22.1486383,51.9426987 22.0648614,51.8467245 C21.9730579,51.7405943 21.8762378,51.6410655 21.7764078,51.5425523 C21.582266,51.3521274 21.3800977,51.1693194 21.1709062,50.9956519 C20.7460015,50.6432387 20.2849775,50.343129 19.7983689,50.0861822 C19.6599111,50.0130591 19.5435264,50.2131322 19.6759642,50.2979348" id="Fill-108" fill="#404042"></path>
                    <path d="M20.5530637,51.977229 C20.7477072,52.160037 20.9423506,52.3433528 21.1364924,52.5261607 C21.2323091,52.6160413 21.3276242,52.7074453 21.4254476,52.7952947 L21.5719319,52.9278304 C21.6291209,52.979626 21.6817951,53.038023 21.7590504,53.0552882 C21.843329,53.0740768 21.9396475,52.9979068 21.908043,52.9044717 C21.8829601,52.8298251 21.8342992,52.7866621 21.7776118,52.7358821 L21.6311276,52.6033463 C21.5302942,52.5124501 21.4274543,52.4246008 21.3246143,52.3357358 C21.122446,52.1605448 20.9202776,51.9853538 20.7181093,51.8101629 C20.6699501,51.7690311 20.6002196,51.7624297 20.5530637,51.8101629 C20.5094194,51.8543415 20.5069111,51.9335583 20.5530637,51.977229" id="Fill-110" fill="#404042"></path>
                    <path d="M5.60585144,27.1763839 C5.148339,26.9108045 4.72142772,26.5853048 4.34217399,26.2141031 C4.15505542,26.0307873 3.97897333,25.8342687 3.81292441,25.6316566 C3.72964912,25.5300966 3.65038709,25.4254898 3.57463668,25.3183441 C3.49788295,25.2096749 3.43367067,25.0756157 3.3393589,24.9821805 C3.24755542,24.8912843 3.07949986,24.9816727 3.11913087,25.1121773 C3.15775857,25.2401429 3.25006371,25.356429 3.32380749,25.4666216 C3.40106288,25.5808766 3.48182988,25.6925926 3.56610849,25.8017696 C3.73817731,26.0257093 3.92780417,26.2323839 4.13298245,26.4258556 C4.53982739,26.8082289 4.99483154,27.1240805 5.49247664,27.3723946 C5.62090119,27.4363774 5.73226935,27.249507 5.60585144,27.1763839" id="Fill-112" fill="#404042"></path>
                    <path d="M4.32687341,25.1258879 C4.10112714,24.9176899 3.89645053,24.6856254 3.7123419,24.4388346 C3.62154174,24.3174705 3.53726313,24.1910283 3.45900442,24.0610315 C3.37522747,23.9213866 3.30951023,23.7690466 3.20817523,23.6415888 C3.12038502,23.5313962 2.95935268,23.6522526 2.98794721,23.7710778 C3.02557159,23.9290036 3.12339497,24.0737265 3.20917855,24.2093091 C3.29696877,24.3474307 3.39278552,24.4804742 3.49361885,24.6094554 C3.69177391,24.8613242 3.92404174,25.0822171 4.17487092,25.2797513 C4.22102349,25.3163129 4.28172416,25.3244377 4.32687341,25.2797513 C4.36700608,25.2401429 4.36951437,25.1654963 4.32687341,25.1258879" id="Fill-114" fill="#404042"></path>
                    <path d="M15.5771645,52.8522698 C15.5746562,53.065038 15.401584,53.2356587 15.1913892,53.2331197 C14.9806926,53.2300729 14.8121354,53.0553898 14.8151454,52.8421138 C14.8176537,52.6293457 14.9907258,52.4587249 15.2009207,52.4617717 C15.4116172,52.4643107 15.5796727,52.6395017 15.5771645,52.8522698" id="Fill-116" fill="#404042"></path>
                    <path d="M14.2093929,48.5823836 C14.2068846,48.7951518 14.0338125,48.9657726 13.8236176,48.9632336 C13.6129211,48.9601868 13.4443639,48.7855036 13.4473738,48.5722276 C13.4498821,48.3594595 13.6229543,48.1888387 13.8331491,48.1918855 C14.0438456,48.1944245 14.2119012,48.3696155 14.2093929,48.5823836" id="Fill-118" fill="#404042"></path>
                    <path d="M16.5115032,49.0841915 C16.5094965,49.2573513 16.3685305,49.3959806 16.197465,49.3939494 C16.0263995,49.3914104 15.8894468,49.2492265 15.8914534,49.0760667 C15.8939617,48.9029069 16.0344261,48.7642776 16.2054916,48.7663088 C16.3765571,48.7688478 16.5135098,48.9110317 16.5115032,49.0841915" id="Fill-120" fill="#404042"></path>
                    <path d="M15.8869385,50.2365926 C15.8849319,50.4097523 15.7439659,50.5483817 15.5729004,50.5463505 C15.4018349,50.5438115 15.2648821,50.4016275 15.2668888,50.2284678 C15.269397,50.055308 15.4098614,49.9166786 15.5809269,49.9187098 C15.7519924,49.9212488 15.8889451,50.0634328 15.8869385,50.2365926" id="Fill-122" fill="#404042"></path>
                    <path d="M14.1465351,45.9670111 C14.1445285,46.1401708 14.0035625,46.2788002 13.832497,46.276769 C13.6614315,46.27423 13.5244787,46.132046 13.5264854,45.9588863 C13.5289936,45.7857265 13.669458,45.6470971 13.8405235,45.6491283 C14.011589,45.6516673 14.1485417,45.7938513 14.1465351,45.9670111" id="Fill-124" fill="#404042"></path>
                    <path d="M14.821065,51.3488775 C14.8170517,51.6479716 14.574249,51.8876531 14.2787722,51.8835907 C13.9832955,51.8795283 13.7465127,51.634261 13.750526,51.3346591 C13.7545392,51.0355649 13.9973419,50.7958834 14.2928187,50.7999458 C14.5882955,50.8040082 14.8250782,51.0497833 14.821065,51.3488775" id="Fill-126" fill="#404042"></path>
                    <path d="M15.6191031,47.2446864 C15.6150898,47.5437805 15.3722872,47.7834621 15.0768104,47.7793997 C14.7813336,47.7753373 14.5445509,47.5300699 14.5485641,47.230468 C14.5525774,46.9313739 14.79538,46.6916923 15.0908568,46.6957547 C15.3863336,46.6998171 15.6231164,46.9455923 15.6191031,47.2446864" id="Fill-128" fill="#404042"></path>
                    <path d="M13.7753079,43.227583 C13.7727996,43.4403512 13.9408552,43.6155421 14.1515517,43.6180811 C14.3617465,43.6211279 14.5348187,43.4505072 14.537327,43.237739 C14.5403369,43.024463 14.3717797,42.8497799 14.1610832,42.8467331 C13.9508883,42.8441941 13.7778162,43.0148148 13.7753079,43.227583" id="Fill-130" fill="#FEFEFE"></path>
                    <path d="M15.252441,38.9952232 C15.2499327,39.2079914 15.4179883,39.3831824 15.6286848,39.3857214 C15.8388796,39.3887682 16.0119518,39.2181474 16.0144601,39.0053792 C16.01747,38.7921033 15.8489128,38.6174201 15.6382163,38.6143733 C15.4280214,38.6118343 15.2549493,38.7824551 15.252441,38.9952232" id="Fill-132" fill="#FEFEFE"></path>
                    <path d="M12.9381906,39.4361967 C12.9361839,39.6093564 13.0731367,39.7515404 13.2442022,39.7540794 C13.4152677,39.7561106 13.555732,39.6174812 13.5582403,39.4443215 C13.560247,39.2711617 13.4232942,39.1289777 13.2522287,39.1264387 C13.0811632,39.1244075 12.9401972,39.2630369 12.9381906,39.4361967" id="Fill-134" fill="#FEFEFE"></path>
                    <path d="M13.6283722,35.8158373 C13.6263655,35.9889971 13.7633183,36.1311811 13.9343838,36.1337201 C14.1054493,36.1357513 14.2459136,35.9971219 14.2484219,35.8239621 C14.2504286,35.6508024 14.1134758,35.5086184 13.9424103,35.5060794 C13.7713448,35.5040482 13.6303788,35.6426776 13.6283722,35.8158373" id="Fill-136" fill="#FEFEFE"></path>
                    <path d="M13.5329066,40.6046442 C13.5308999,40.777804 13.6678527,40.919988 13.8389182,40.9225269 C14.0099837,40.9245581 14.150448,40.7859288 14.1529563,40.612769 C14.154963,40.4396093 14.0180102,40.2974253 13.8469447,40.2948863 C13.6758792,40.2928551 13.5349132,40.4314845 13.5329066,40.6046442" id="Fill-138" fill="#FEFEFE"></path>
                    <path d="M15.0981309,44.0079699 C15.0961242,44.1811296 15.233077,44.3233136 15.4041425,44.3258526 C15.575208,44.3278838 15.7156723,44.1892544 15.7181806,44.0160947 C15.7201873,43.8429349 15.5832345,43.7007509 15.412169,43.6982119 C15.2411035,43.6961807 15.1001375,43.8348101 15.0981309,44.0079699" id="Fill-140" fill="#FEFEFE"></path>
                    <path d="M15.3825712,36.3823897 C15.3805645,36.5555494 15.5175173,36.6977334 15.6885828,36.7002724 C15.8596483,36.7023036 16.0001126,36.5636742 16.0026209,36.3905145 C16.0046276,36.2173547 15.8676748,36.0751707 15.6966093,36.0726317 C15.5255438,36.0706005 15.3845778,36.2092299 15.3825712,36.3823897" id="Fill-142" fill="#FEFEFE"></path>
                    <path d="M14.5697843,41.7446042 C14.565771,42.0436983 14.8025538,42.2894735 15.0980305,42.2935359 C15.3935073,42.2975983 15.63631,42.0579167 15.6403232,41.7588226 C15.6443365,41.4592207 15.4075538,41.2139533 15.112077,41.2098909 C14.8166002,41.2058285 14.5737975,41.4455101 14.5697843,41.7446042" id="Fill-144" fill="#FEFEFE"></path>
                    <path d="M13.877596,37.620812 C13.8735828,37.9199062 14.1103655,38.1656813 14.4058423,38.1697437 C14.7013191,38.1738061 14.9441218,37.9341246 14.948135,37.6350304 C14.9521483,37.3354285 14.7153655,37.0901612 14.4198888,37.0860988 C14.124412,37.0820364 13.8816093,37.3217179 13.877596,37.620812" id="Fill-146" fill="#FEFEFE"></path>
                    <path d="M14.0445981,22.2909934 C14.0420898,22.5037616 14.2101454,22.6789526 14.4208419,22.6814916 C14.6310368,22.6845384 14.8041089,22.5139176 14.8066172,22.3011494 C14.8096271,22.0878735 14.6410699,21.9131903 14.4303734,21.9101435 C14.2201786,21.9076045 14.0471064,22.0782253 14.0445981,22.2909934" id="Fill-148" fill="#FEFEFE"></path>
                    <path d="M15.5217814,18.0586337 C15.5192731,18.2714018 15.6873286,18.4465928 15.8980252,18.4491318 C16.10822,18.4521786 16.2812922,18.2815578 16.2838004,18.0687897 C16.2868104,17.8555137 16.1182532,17.6808306 15.9075567,17.6777838 C15.6973618,17.6752448 15.5242897,17.8458655 15.5217814,18.0586337" id="Fill-150" fill="#FEFEFE"></path>
                    <path d="M13.207531,18.4995563 C13.2055243,18.6727161 13.3424771,18.8149001 13.5135426,18.8174391 C13.6846081,18.8194703 13.8250724,18.6808409 13.8275807,18.5076811 C13.8295873,18.3345214 13.6926346,18.1923374 13.5215691,18.1897984 C13.3505036,18.1877672 13.2095376,18.3263966 13.207531,18.4995563" id="Fill-152" fill="#FEFEFE"></path>
                    <path d="M13.8977125,14.8792478 C13.8957059,15.0524075 14.0326587,15.1945915 14.2037242,15.1971305 C14.3747897,15.1991617 14.515254,15.0605323 14.5177623,14.8873726 C14.5197689,14.7142128 14.3828162,14.5720288 14.2117507,14.5694898 C14.0406852,14.5674586 13.8997192,14.706088 13.8977125,14.8792478" id="Fill-154" fill="#FEFEFE"></path>
                    <path d="M13.802247,19.6680547 C13.8002403,19.8412144 13.9371931,19.9833984 14.1082586,19.9859374 C14.2793241,19.9879686 14.4197884,19.8493392 14.4222967,19.6761795 C14.4243033,19.5030197 14.2873506,19.3608357 14.1162851,19.3582967 C13.9452196,19.3562655 13.8042536,19.4948949 13.802247,19.6680547" id="Fill-156" fill="#FEFEFE"></path>
                    <path d="M15.3674713,23.0713295 C15.3654646,23.2444893 15.5024174,23.3866733 15.6734829,23.3892123 C15.8445484,23.3912435 15.9850127,23.2526141 15.987521,23.0794543 C15.9895276,22.9062946 15.8525749,22.7641106 15.6815094,22.7615716 C15.5104439,22.7595404 15.3694779,22.8981698 15.3674713,23.0713295" id="Fill-158" fill="#FEFEFE"></path>
                    <path d="M15.6518614,15.4458001 C15.6498548,15.6189599 15.7868075,15.7611438 15.957873,15.7636828 C16.1289385,15.765714 16.2694028,15.6270847 16.2719111,15.4539249 C16.2739178,15.2807651 16.136965,15.1385812 15.9658995,15.1360422 C15.794834,15.134011 15.653868,15.2726403 15.6518614,15.4458001" id="Fill-160" fill="#FEFEFE"></path>
                    <path d="M14.8391247,20.8080146 C14.8351114,21.1071088 15.0718941,21.3528839 15.3673709,21.3569463 C15.6628477,21.3610087 15.9056504,21.1213272 15.9096636,20.822233 C15.9136769,20.5226311 15.6768941,20.2773637 15.3814174,20.2733013 C15.0859406,20.2692389 14.8431379,20.5089205 14.8391247,20.8080146" id="Fill-162" fill="#FEFEFE"></path>
                    <path d="M14.1469364,16.6842225 C14.1429232,16.9833166 14.3797059,17.2290918 14.6751827,17.2331542 C14.9706595,17.2372166 15.2134621,16.997535 15.2174754,16.6984409 C15.2214887,16.3988389 14.9847059,16.1535716 14.6892291,16.1495092 C14.3937523,16.1454468 14.1509497,16.3851283 14.1469364,16.6842225" id="Fill-164" fill="#FEFEFE"></path>
                    <path d="M15.8291976,33.2594203 C15.8266893,33.4721885 15.6536172,33.6428093 15.4434223,33.6402703 C15.2327258,33.6372235 15.0641686,33.4625403 15.0671786,33.2492643 C15.0696868,33.0364962 15.242759,32.8658754 15.4529538,32.8689222 C15.6636504,32.8714612 15.8317059,33.0466522 15.8291976,33.2594203" id="Fill-166" fill="#404042"></path>
                    <path d="M14.4614261,28.9895342 C14.4589178,29.2023023 14.2858456,29.3729231 14.0756508,29.3703841 C13.8649543,29.3673373 13.696397,29.1926541 13.699407,28.9793782 C13.7019153,28.76661 13.8749874,28.5959892 14.0851823,28.599036 C14.2958788,28.601575 14.4639344,28.776766 14.4614261,28.9895342" id="Fill-168" fill="#404042"></path>
                    <path d="M16.7635363,29.491342 C16.7615297,29.6645018 16.6205637,29.8031311 16.4494982,29.8010999 C16.2784327,29.7985609 16.14148,29.656377 16.1434866,29.4832172 C16.1459949,29.3100575 16.2864592,29.1714281 16.4575247,29.1734593 C16.6285902,29.1759983 16.765543,29.3181822 16.7635363,29.491342" id="Fill-170" fill="#404042"></path>
                    <path d="M16.1389717,30.6437431 C16.136965,30.8169029 15.995999,30.9555322 15.8249335,30.953501 C15.653868,30.950962 15.5169153,30.8087781 15.5189219,30.6356183 C15.5214302,30.4624585 15.6618946,30.3238292 15.8329601,30.3258604 C16.0040256,30.3283994 16.1409783,30.4705833 16.1389717,30.6437431" id="Fill-172" fill="#404042"></path>
                    <path d="M14.3985683,26.3741616 C14.3965616,26.5473214 14.2555956,26.6859507 14.0845301,26.6839195 C13.9134646,26.6813805 13.7765119,26.5391966 13.7785185,26.3660368 C13.7810268,26.192877 13.9214912,26.0542477 14.0925567,26.0562789 C14.2636222,26.0588179 14.4005749,26.2010018 14.3985683,26.3741616" id="Fill-174" fill="#404042"></path>
                    <path d="M15.0731483,31.756028 C15.069135,32.0551221 14.8263324,32.2948037 14.5308556,32.2907413 C14.2353788,32.2866789 13.998596,32.0414115 14.0026093,31.7418096 C14.0066226,31.4427154 14.2494252,31.2030339 14.544902,31.2070963 C14.8403788,31.2111587 15.0771616,31.4569338 15.0731483,31.756028" id="Fill-176" fill="#404042"></path>
                    <path d="M15.8711363,27.6518369 C15.867123,27.950931 15.6243203,28.1906126 15.3288436,28.1865502 C15.0333668,28.1824878 14.796584,27.9372204 14.8005973,27.6376185 C14.8046106,27.3385244 15.0474132,27.0988428 15.34289,27.1029052 C15.6383668,27.1069676 15.8751495,27.3527428 15.8711363,27.6518369" id="Fill-178" fill="#404042"></path>
                    <path d="M16.0938224,12.6895131 C16.0913141,12.9022812 15.918242,13.072902 15.7080471,13.070363 C15.4973506,13.0673162 15.3287934,12.892633 15.3318033,12.6793571 C15.3343116,12.4665889 15.5073838,12.2959682 15.7175786,12.299015 C15.9282752,12.301554 16.0963307,12.4767449 16.0938224,12.6895131" id="Fill-180" fill="#404042"></path>
                    <path d="M15.3377229,11.1860699 C15.3337096,11.4851641 15.090907,11.7248456 14.7954302,11.7207832 C14.4999534,11.7167208 14.2631707,11.4709457 14.2671839,11.1718515 C14.2711972,10.8727574 14.5139999,10.6330758 14.8094766,10.6371382 C15.1049534,10.6412006 15.3417362,10.8869758 15.3377229,11.1860699" id="Fill-182" fill="#404042"></path>
                    <path d="M26.3366831,54.8985003 C26.6742992,54.2998042 26.7916873,53.6163055 26.6998838,52.9363615 C26.6808208,52.7962087 26.5037354,52.7200387 26.382334,52.7535535 C26.2333415,52.7951931 26.182674,52.9348381 26.201737,53.0749909 C26.1997304,53.0577257 26.2082586,53.1425282 26.2097635,53.1567466 C26.2122718,53.1872146 26.2142785,53.2176826 26.2157834,53.2481506 C26.2192951,53.3187348 26.2202984,53.3898268 26.2182917,53.4609188 C26.2142785,53.6132587 26.201737,53.7254825 26.1751491,53.8600495 C26.1189634,54.1464486 26.0296682,54.3886692 25.8907088,54.6349521 C25.8219816,54.7573319 25.8621143,54.9203357 25.9835156,54.9924432 C26.103412,55.0630274 26.2674543,55.0213878 26.3366831,54.8985003" id="Fill-184" fill="#404042"></path>
                </g>
            </g>
        </g>
    </g>
</svg>