<?xml version="1.0" encoding="UTF-8"?>
<svg width="486px" height="177px" viewBox="0 0 486 177" version="1.1" xmlns="http://www.w3.org/2000/svg" xmlns:xlink="http://www.w3.org/1999/xlink">
    <title>bubbles-right</title>
    <defs>
        <polygon id="path-1" points="0 0.7343 485.5356 0.7343 485.5356 176 0 176"></polygon>
    </defs>
    <g id="Page-1" stroke="none" stroke-width="1" fill="none" fill-rule="evenodd">
        <g id="intro_image" transform="translate(-541.000000, -922.000000)">
            <g id="bubbles-right" transform="translate(784.000000, 1010.500000) scale(-1, 1) translate(-784.000000, -1010.500000) translate(541.000000, 922.000000)">
                <path d="M251.7791,108.2294 C253.4601,108.2294 252.0611,101.7844 253.7301,101.8344 C239.3001,72.9934 209.4861,53.1874 175.0411,53.1874 C164.0511,53.1874 153.5351,55.2094 143.8361,58.8914 C150.9351,77.5134 169.0351,101.9464 177.2471,123.6424 C198.1831,113.8524 227.1401,108.2294 251.7791,108.2294" id="Fill-1" fill="#E1E1C8"></path>
                <path d="M376.1825,171.9724 C389.7885,164.2464 411.2715,160.8534 428.0355,160.8534 C432.2845,160.8534 436.2925,156.8894 436.265636,153.7644 C423.6665,137.0644 403.6625,126.2664 381.1325,126.2664 C368.8865,126.2664 357.3935,129.4694 347.4215,135.0624 C349.5405,149.6234 367.4625,160.7024 376.1825,171.9724" id="Fill-3" fill="#E1E1C8"></path>
                <g id="Group-7" transform="translate(0.000000, 0.266000)">
                    <mask id="mask-2" fill="white">
                        <use xlink:href="#path-1"></use>
                    </mask>
                    <g id="Clip-6"></g>
                    <path d="M436.2656,153.4983 C432.1666,152.9493 427.9866,152.6603 423.7376,152.6603 C406.9736,152.6603 391.2426,157.0763 377.6366,164.8023 C368.9166,153.5323 358.7536,143.4393 347.4216,134.7963 C321.2686,114.8483 288.9036,102.6343 253.7296,101.5693 C252.0606,101.5183 250.3886,101.4853 248.7076,101.4853 C224.0686,101.4853 200.7136,106.9643 179.7776,116.7543 C171.5656,95.0593 159.2756,75.3713 143.8366,58.6253 C111.0246,23.0353 64.0156,0.7343 11.7906,0.7343 C7.8276,0.7343 3.8986,0.8763 -0.0004,1.1293 L-0.0004,176.0003 L111.8386,176.0003 L361.9396,176.0003 L485.5356,176.0003 C472.0136,164.0813 455.0206,156.0103 436.2656,153.4983" id="Fill-5" fill="#F1F1DE" mask="url(#mask-2)"></path>
                </g>
            </g>
        </g>
    </g>
</svg>