<svg id="Layer_1" data-name="Layer 1" xmlns="http://www.w3.org/2000/svg" viewBox="0 0 45.58 21.8"><defs><style>.cls-1{fill:#f0f0f0;}</style></defs><g id="gq9I02"><path class="cls-1" d="M32.63,6.32l0-.07h.85l5,.13a1.9,1.9,0,0,0,1.62-.53c.32-.34.46-.7.16-1a1.38,1.38,0,0,0-.65-.42C38.73,4.22,37.87,4.07,37,4s-1.63-.09-2.45-.16S32.86,3.63,32,3.56c-.36,0-.72,0-1.07,0-.89,0-1.79-.11-2.68-.12-.46,0-.93.15-1.4.12a8,8,0,0,0-3.18.32c-1,.35-2,.74-3,1a14.05,14.05,0,0,0-4.18,2l-.36.23a1.26,1.26,0,0,0-1.29-1c-.75-.06-1.49-.19-2.24-.28l.1-.11c0-.16.05-.35,0-.47a.5.5,0,0,0-.41-.12c-.66,0-1.31.16-2,.19-.83,0-1.67,0-2.5,0a1.79,1.79,0,0,0-.87.28,2.07,2.07,0,0,0-.68,1.23c-.16.67-.36,1.34-.57,2a8.7,8.7,0,0,0-.39,4A8.81,8.81,0,0,1,5.61,15a2.39,2.39,0,0,0,.68,2,.23.23,0,0,1,.07.15c0,.37.25.52.57.61a.37.37,0,0,1,.25.18c.12.45.46.51.84.5s1-.09,1.55-.09c.76,0,1.52,0,2.29.07a1.58,1.58,0,0,0,1.35-.61.59.59,0,0,1,.39-.23,14.27,14.27,0,0,1,2.17.05,1.45,1.45,0,0,0,1.5-.49l.39-.48c.26.08.51.17.77.24a9.9,9.9,0,0,0,1.41.32c1,.1,2,.17,3,.19s2.2,0,3.29-.06c.54,0,1.06-.23,1.59-.28A3,3,0,0,0,30.32,15a1,1,0,0,0-.24-1.22,2.67,2.67,0,0,0,1.25-1.34,1.44,1.44,0,0,0-.26-1.71c.34-.59,1.06-.89,1-1.68a2,2,0,0,0,1.79-.91,1,1,0,0,0-.2-1.32C33.33,6.61,33,6.48,32.63,6.32Z"/><path d="M32.63,6.32c.34.16.7.29,1,.48a1,1,0,0,1,.2,1.32A2,2,0,0,1,32.06,9c.07.79-.65,1.09-1,1.68a1.44,1.44,0,0,1,.26,1.71,2.67,2.67,0,0,1-1.25,1.34A1,1,0,0,1,30.32,15,3,3,0,0,1,27.74,17c-.53,0-1,.25-1.59.28-1.09.05-2.19.08-3.29.06s-2-.09-3-.19a9.9,9.9,0,0,1-1.41-.32c-.26-.07-.51-.16-.77-.24l-.39.48a1.45,1.45,0,0,1-1.5.49,14.27,14.27,0,0,0-2.17-.05.59.59,0,0,0-.39.23,1.58,1.58,0,0,1-1.35.61c-.77,0-1.53-.07-2.29-.07-.52,0-1,.06-1.55.09s-.72,0-.84-.5a.37.37,0,0,0-.25-.18c-.32-.09-.55-.24-.57-.61A.23.23,0,0,0,6.29,17a2.39,2.39,0,0,1-.68-2,8.81,8.81,0,0,0-.34-2.29,8.7,8.7,0,0,1,.39-4c.21-.66.41-1.33.57-2a2.07,2.07,0,0,1,.68-1.23,1.79,1.79,0,0,1,.87-.28c.83,0,1.67,0,2.5,0,.66,0,1.31-.14,2-.19a.5.5,0,0,1,.41.12c.07.12,0,.31,0,.47l-.1.11c.75.09,1.49.22,2.24.28a1.26,1.26,0,0,1,1.29,1l.36-.23a14.05,14.05,0,0,1,4.18-2c1-.29,2-.68,3-1a8,8,0,0,1,3.18-.32c.47,0,.94-.13,1.4-.12.89,0,1.79.08,2.68.12.35,0,.71,0,1.07,0,.85.07,1.69.18,2.54.25S36.19,3.88,37,4s1.73.25,2.58.42a1.38,1.38,0,0,1,.65.42c.3.34.16.7-.16,1a1.9,1.9,0,0,1-1.62.53l-5-.13h-.85ZM13.89,14.16l.52.68.13-.12-.64-.58-1.36-1.67a.25.25,0,0,0,0,.23c.32.4.64.8,1,1.19A1.84,1.84,0,0,0,13.89,14.16Zm13.37-4.8c-.09-.27-.33-.15-.48-.13a2,2,0,0,0-.5.26l.07.11.31-.13.09.14.52-.26-.3.42.4-.15,0,.22.37-.3.06.05,0,.14.59.13-.46.4,0,0,.47-.25,0,.07-.63.51.07.09c.19-.15.37-.3.57-.43a.61.61,0,0,1,.24,0l-.79.67,0,.05.63-.43.05.07-.59.52,0,0,.7-.51.06.08-.64.55c.47.28.67-.28,1.1-.37l-.2.36A3.75,3.75,0,0,0,31.76,9H29.3a.65.65,0,0,1-.29.81c.28.48.29.84,0,1l-.06-.6c-.08,0-.18.36-.27,0,.15-.37-.15-.61-.69-.57C27.89,9.24,27.53,9.41,27.26,9.36Zm-19-1.12a2.25,2.25,0,0,1,.58.22c.23.16.39.39.61.57.07.06.21.06.31.09s.1-.24.07-.34-.16-.12-.27-.19l.76-.46.46.25c0-.19,0-.32,0-.44s-.07-.21,0-.29c.12-.29.29-.55.39-.85s.16-.67.25-1l-1.09.06V5.67l1.79-.25V5.33a4.51,4.51,0,0,0-.52,0c-.4,0-.8.09-1.2.1-.82,0-1.64,0-2.46,0a1.15,1.15,0,0,0-1.16.9c-.07.64-.2,1.27-.28,1.91a3.5,3.5,0,0,0,0,1.07,14.48,14.48,0,0,1,.18,3.22,9.34,9.34,0,0,0,.22,1.65s0,0,.07.06c0-.34.05-.66.07-1,0-.66,0-1.32.09-2A3.66,3.66,0,0,0,7,9.5a.85.85,0,0,1,0-.23l.1-.07A2.47,2.47,0,0,0,8.5,10.57l-.88-.79.15-.24-.61-.43L7.53,9l-.35-.59,0,.09L8,9.17l0,.05-.26,0c.3.32.54.6.81.85.07.07.23.06.34.09a1.24,1.24,0,0,1,.39.1c.19.12.37.27.56.41l.1-.12a20.48,20.48,0,0,1-2.28-2l0-.07.42.27L8,8.31a10.11,10.11,0,0,1,.85.89,1.3,1.3,0,0,0,1.07.55c-.51-.45-1-.86-1.45-1.28a2,2,0,0,1-.17-.23ZM20.77,6,21,5.76c.08-.06.19-.19.23-.17.31.16.41-.13.58-.25s.2-.24.33-.32.21,0,.37,0l-1.1,1,.1.11.73-.7.1.22,1-.62-.11.31c.22,0,.4-.11.58-.14a2.59,2.59,0,0,1,1.58.14c.36.17.7.28,1-.07l-.06-.25.1-.07.21.37.07,0v-.3l.64.46.1-.43.14.24L28,4.59c.08.27.09.44.18.54s.23.06.37.09L28.68,5l.18.31.2-.24.1.36.18-.3.08.16.84-.13.23-.35.1.24.26-.23-.15.49,0,0,.4-.43v.34l.08,0,.19-.39.19.42,0-.44c.27,0,.17.68.58.35l.36.21.31-.27.08.19.24-.14.13.33.13-.22.18.24.19-.2.08.25.15-.24,0,.11.63-.06.18.46L35,5.69c.14-.21.28-.4.46,0,0,.06.13.07.2.11.12-.25.35-.08.52-.11a2.41,2.41,0,0,1,.74.11L37,5.64l.73.3.15-.27.26.3,0-.09c.22,0,.48-.13.67,0a1,1,0,0,0,1-.22.82.82,0,0,0,.2-.56.51.51,0,0,0-.28-.35,8,8,0,0,0-3.12-.54,14.67,14.67,0,0,1-2.81-.23,11,11,0,0,0-1.9-.18A14.43,14.43,0,0,1,30.2,3.6a15.17,15.17,0,0,0-2,0,13.08,13.08,0,0,1-1.68.1A7.87,7.87,0,0,0,24.06,4a10.13,10.13,0,0,0-1.67.61,1.4,1.4,0,0,0-.61.34.62.62,0,0,1-.76.24c-.23-.08-.31,0-.31.24l-.7.34.15-.29-.1-.09L19.61,6l0-.05.06-.23-.1-.08-.45.43-.5.51-.06-.21L18.08,7,18,6.89l.39-.67-.06,0-.49.69-.05,0,.05-.35L17.46,7l-.07,0,.08-.2a.35.35,0,0,0-.23.17c-.14.22-.26.44-.4.66a.43.43,0,0,1-.51.13,2.36,2.36,0,0,0-.51.39,2.62,2.62,0,0,0-.26.62h0l.27-.3.1.09c-.12.13-.25.26-.36.4a.51.51,0,0,0-.14.26,3.45,3.45,0,0,0,.06.58l.59-1.47.13,0-.55,1.43h.22l-.06.49H16c.18-.54.36-1.08.56-1.61a2.34,2.34,0,0,1,.26-.43c-.25.88-.55,1.7-.83,2.54,0,.12,0,.28,0,.42l.09,0,.29-.43.08.05-.16.42.27-.2,0,0-.29.61.06,0,.72-1.27.08.05-.35.71h0l.46-.52.06.06-.13.28.41-.08-.17.33.34-.15,0,.06-.31.35.78-.3-.22.41.46-.36,0,.06-.32.5c.39-.31.81-.43,1-.82l.09.09-.59.95.09.06.88-1.18,0,0-.29.64,0,0,.27-.33.05.35.79-1.29a5.86,5.86,0,0,1-1,2c.22-.23.4-.48.61-.72s.15-.62.47-.75l.09.06L20.2,12l.11.06c.23-.42.46-.85.7-1.27l.16-.23.09,0-.23.6.06,0,.49-.9v.36l-.54,1a1.06,1.06,0,0,0,.53-1l.48-.73.1,0-.48,1.2a5.46,5.46,0,0,0,.48-.85c.12-.25.26-.5.39-.76l.12.07-.48,1.14.07,0,.52-1,.14.53H23a1.7,1.7,0,0,1,.12-.34,2,2,0,0,1,.2-.3l.05,0-.18.62.1,0a1.39,1.39,0,0,0,.12-.28c.07-.27.12-.55.18-.82s.17-.31.41-.26l-.13.33.06,0,.7-.54-.2-.28h.66l-.86-.44,0-.07a11.23,11.23,0,0,1,1.37.5.52.52,0,0,0,.77-.19h0l.39-.57c.05.12.1.29.13.29a3.06,3.06,0,0,0,.51-.1l.05.14.26-.49c.06.17.1.26.13.34s.22-.17.33-.17a.52.52,0,0,0,.51-.35c.1-.21.17-.44.26-.66a1.74,1.74,0,0,1,.15-.25l.16.57h.21l-.05.3c.33.06.2-.55.65-.36l-.21.67.2,0-.23.3.45-.18a2.26,2.26,0,0,0,.41.3c.07,0,.23-.08.28,0A2.6,2.6,0,0,0,33,8.44h-.42a1.54,1.54,0,0,1-1.34-.77.53.53,0,0,1,.12-.77c.25-.22.48-.13.73.07a1.6,1.6,0,0,0-.37.13c-.08.06-.18.2-.16.26A1.13,1.13,0,0,0,33,8c.33-.12.41-.32.28-.66,0-.07-.07-.16,0-.22.1-.22-.06-.29-.21-.34a3.37,3.37,0,0,0-.55-.12c-.42-.08-.88,0-1.24-.34A.67.67,0,0,0,31,6.24,8,8,0,0,0,28.75,6a1.68,1.68,0,0,1-.5,0l-3.17-.52a1.5,1.5,0,0,0-.29-.06c-.3,0-.58,0-.78.29a2.73,2.73,0,0,1-.58.54l-.09-.1.53-.61-.13-.12-.8,1.05-.11-.12.51-.65-.08-.08L22.2,6.72l-.06,0L22.67,6l-.05,0-.83.94L21.7,6.6l-.21.26-.08-.05.42-.64-.07,0-.76,1L21,6.78l-.34.42-.09,0,.21-.58h0c0-.1.05-.2.05-.29a1,1,0,0,0-.06-.25ZM13.54,9.15l.16,0a7,7,0,0,1,.2,1.37c.08.51.17,1,.27,1.51s.19,1,.3,1.48.27,1,.39,1.49.21.95.31,1.42a.8.8,0,0,0,.07-.47c-.07-.34-.21-.67-.25-1a28.84,28.84,0,0,0-.63-3.46A16.42,16.42,0,0,1,14,8.74a2.07,2.07,0,0,1,.43-1.55c.1-.11.09-.31.13-.46l-.46-.09c-.14,0-.29,0-.43-.06V6.44l.92-.06a1.24,1.24,0,0,0-.52-.18c-.63-.13-1.27-.24-1.9-.38-.21,0-.39,0-.49.15a1.45,1.45,0,0,0-.17.57c0,.58,0,1.16,0,1.74a1.88,1.88,0,0,0,0,.34c.12.57.26,1.13.36,1.7s.18,1.23.26,1.85l.12.78h.13L12,9.78a8.38,8.38,0,0,0,2,2.92,12.62,12.62,0,0,1-1.51-2.45l1.26,1.67.08-.06-.73-1,.12-.1.39.51.08-.07-.46-.8.07,0,.35.27-.67-1.19.08,0,.52.7Zm10,4.58c-.22.06-.53.06-.64.2s-.4.19-.57.2l-.23-.37.1-.17,0,0-.42.41-.06-.05.67-.95-.08-.06-.81,1-.07-.05.21-.44-.05,0-.43.56L21,13.89l.44-.65,0,0-.75.77-.08-.08.45-.59L21,13.26l-.91,1.07L20,14.27l.27-.42-.05,0-.59.53-.06-.05.24-.39c-.22.14-.4.16-.55-.08,0,0-.1-.05-.15-.06a1.64,1.64,0,0,0-1.7.52c-.12.16-.32.3-.09.51l.34-.2,0,.06-.17.29.15.05-.09.2.05,0,1-.92.07,0a2.11,2.11,0,0,1-.21.31c-.09.11-.21.19-.32.3l-.3.3.1.09,1.27-1.25.08.08a8.58,8.58,0,0,1-1.22,1.41l.42-.21-.17.3.54-.2-.21.32,0,0,.74-.56.06.09-.6.58.09.11,1-.77.14.16-.7.52.09.09.53-.38,0,.06-.26.28.08.08,1.43-1.34a.61.61,0,0,1-.2.37c-.29.29-.6.56-.9.84l.1.1c.27-.23.56-.44.81-.69s.48-.55.72-.83l.29.17-.86,1.22c.26-.14.49-.46.7-.45.4,0,.18-.58.61-.47l-.49,1,.08,0,.64-.85.07,0-.52.95c.55-.41.59-1.12,1-1.63l.16.08L22.89,16l.4-.26.06.07-.28.44.1.05.66-1.26.09,0-.35,1,.25-.15,0,0-.34.48.16.15.49-.72.07.07-.29.43.09.07.4-.43.06,0-.16.39,0,0,.26-.28.16.11.31-.45-.27.08v-.2l-.34.22.16-.53-.33.24v-.52l-.28.58-.11,0,.13-.8-.34.09C23.83,14.49,24,14.06,23.53,13.73ZM27.94,13c-.34,0-.26-.32-.34-.51l-.06.6.64.11L28,13.7l.58-.16a.66.66,0,0,0,.32,0c0-.34.4-.14.46-.38.41.07.57-.4.94-.46.12,0,.19-.29.32-.37.5-.28.35-.74.32-1.15,0-.23-.18-.3-.39-.16a3.84,3.84,0,0,1-.63.39c-.45.18-.93.31-1.38.5S27.89,12.36,27.94,13Zm-21.68,3,.08,0a3.59,3.59,0,0,0,.11-.72c0-1.13-.14-2.26-.18-3.38s0-2.09-.06-3.13c0-.08,0-.16,0-.24l-.11,0c-.09.21-.16.41-.25.61a5.8,5.8,0,0,0-.36,3.29c.14.83.33,1.64.51,2.46C6,15.17,6.16,15.55,6.26,15.94Zm19.54-.46-.05.1a3,3,0,0,0,.65.17c.6,0,1.21,0,1.87.06l.13-.2.05,0,0,.26,0,0,.36-.53.07,0-.1.4.06,0,.32-.53.08,0,0,.4.08,0,.25-.32-.14-.08L29.9,14c-.27,0-.47,0-.67.07a10.5,10.5,0,0,1-1.24.26.57.57,0,0,0-.58.43,1.29,1.29,0,0,1-.83.86l.55-1L27,14.51l-.16.26c-.17.25-.35.5-.53.74,0,0-.1,0-.15,0ZM15.46,13.07a21.56,21.56,0,0,1-.23-5.38h-.29c-.39,0-.47,0-.44.44,0,.12,0,.25,0,.37.1.58.22,1.17.31,1.76a5,5,0,0,1,0,.67h-.08l-.36-1.41a9.8,9.8,0,0,0,.13,1.54c.21,1.09.41,2.18.7,3.25a8,8,0,0,0,.67,1.38l.12-.06-.56-1.14.26.12a4.65,4.65,0,0,1-.59-2.45ZM25.86,11l.06.09,1.17-.33v-.06l-.55-.06.63-.13v0l-.72,0V10.3l.67-.05v-.08h-.72v-.11l.7,0c-.36-.34-.66-.08-1,.08S26,10.69,25.86,11Zm-15.3,3.39c.17-.18,0-.25-.12-.34L8.31,12.63c-.28-.18-.54-.38-.81-.58l-.08.12A18.92,18.92,0,0,0,10.56,14.36ZM11.73,13l-.44-.31c-.18-.11-.39-.11-.46,0l1.21.85-.6-2.48-.11,0,.22,1.14-.92-.58C10.86,12.32,11.72,12.22,11.73,13Zm14.41-.58c-.07-.26-.18-.39-.41-.41s-.35-.08-.53-.1a3.53,3.53,0,0,0-.46,0l0,.14.7.24v.06l-.54,0v.1l.48.13v.05H24.9v0l1.31.4-.58-.42.42.06v-.05l-.44-.28.08-.1ZM7.59,13.63l-.06.06c.35.29.68.62,1.06.88.56.37,1.16.7,1.75,1l.08-.14Zm2.76,3.23.07-.08L7.64,15l-.06.09A11.39,11.39,0,0,0,10.35,16.86Zm-2.79-4-.07.08a3.64,3.64,0,0,0,.46.42c.53.4,1.08.79,1.62,1.17a.32.32,0,0,0,.2.07c.05,0,.12-.12.1-.15a.53.53,0,0,0-.17-.16l-.86-.56Zm7.21,3.41.11-.1-2.24-2.47-.12.12ZM10.12,16,8,14.55A4.16,4.16,0,0,0,10.12,16Zm4.53-.52-1.92-2.17-.1.09A10.21,10.21,0,0,0,14.65,15.44Zm11.49-.57c0-.71-.37-.79-.77-.73s-.26.23-.1.33A5.41,5.41,0,0,0,26.14,14.87ZM12.59,12a4.93,4.93,0,0,0,1.77,2.12Zm1.48,1.32-1.62-2.14A5.32,5.32,0,0,0,14.07,13.31Zm-6.46-2-.15.17,1.46,1.1L9,12.46Zm3.45-.59c0-.26-.44-.78-.79-.85C10.24,10.18,10.64,10.61,11.06,10.71Zm2.82,5c0-.29-.87-1.3-1.28-1.41Zm-5,.74.05-.07-1.45-1-.07.11A5.13,5.13,0,0,0,8.87,16.48ZM24.58,9.86c-.07.09-.14.14-.15.2a.46.46,0,0,1-.43.45c-.09,0-.15.21-.27.4C24.33,10.75,24.63,10.47,24.58,9.86ZM11.39,9a2.38,2.38,0,0,0,.27,1.88Zm5.24,6.71.14-.08L16,14.07l-.11.06Zm-3.85.15.46.41a.66.66,0,0,0-.48-.9C12.75,15.49,13.11,15.62,12.78,15.81Zm3.39.41-.72-1C15.54,16,15.66,16.12,16.17,16.22Zm-6.12-4.71a2.38,2.38,0,0,0-1.4-1Zm.24-2.42c-.14.5.38.44.53.73C10.91,9.47,10.8,9.33,10.29,9.09Zm6.11,6.39-.48-1a3.87,3.87,0,0,0,0,.59,1,1,0,0,0,.23.4S16.3,15.49,16.4,15.48Zm-2.86.39.11-.1-.9-1.09-.11.08ZM27.33,12l-.41,0a.23.23,0,0,0-.14.13s0,.1.07.15a.77.77,0,0,1,.1.26,2.46,2.46,0,0,1-.09.34h.05ZM31.67,6.1v.05h1.38V6.1ZM27,8.32a1,1,0,0,0,1.26-.15Zm-1,6.75a.5.5,0,0,0,0-.15l-1.18-.37,0,.12ZM8.11,11.16l.08-.08-.59-.64C7.46,11,7.94,10.92,8.11,11.16Zm7.32-4.67-.07.07c.1.18.19.37.3.55s.12.07.17.1.11-.17.1-.19C15.77,6.84,15.6,6.67,15.43,6.49Zm.16,1.58.55-.44-.05-.06h-.5Zm-5.19.27c-.11.43-.05.52.44.6ZM20.92,16l.83-.87-.1-.1ZM23,11.63l.18-.6c-.06,0-.16,0-.18,0C22.86,11.18,22.72,11.35,23,11.63Zm1.34.3.05.06.64-.3-.12-.18Zm.24-.53a.84.84,0,0,0-.56.8ZM11.23,7.55h0V8.61h0Zm16.42,4.37-.14-.05-.32.74.08,0Z"/><path class="cls-1" d="M21.58,10.69v-.36l-.49.9-.06,0,.23-.6-.09,0-.16.23c-.24.42-.47.85-.7,1.27L20.2,12l.62-1.1-.09-.06c-.32.13-.27.53-.47.75s-.39.49-.61.72a5.86,5.86,0,0,0,1-2l-.79,1.29-.05-.35-.27.33,0,0,.29-.64,0,0-.88,1.18L18.79,12l.59-.95L19.29,11c-.23.39-.65.51-1,.82l.32-.5,0-.06-.46.36.22-.41-.78.3.31-.35,0-.06-.34.15.17-.33-.41.08.13-.28-.06-.06-.46.52h0l.35-.71-.08-.05-.72,1.27-.06,0,.29-.61,0,0-.27.2.16-.42-.08-.05-.29.43-.09,0c0-.14-.07-.3,0-.42.28-.84.58-1.66.83-2.54a2.34,2.34,0,0,0-.26.43c-.2.53-.38,1.07-.56,1.61h-.1l.06-.49h-.22l.55-1.43-.13,0-.59,1.47a3.45,3.45,0,0,1-.06-.58.51.51,0,0,1,.14-.26c.11-.14.24-.27.36-.4l-.1-.09-.27.3h0a2.62,2.62,0,0,1,.26-.62,2.36,2.36,0,0,1,.51-.39.43.43,0,0,0,.51-.13c.14-.22.26-.44.4-.66a.35.35,0,0,1,.23-.17l-.08.2.07,0,.34-.49-.05.35.05,0,.49-.69.06,0L18,6.89l.12.07.44-.61.06.21.5-.51.45-.43.1.08-.06.23,0,.05.45-.57.1.09L20,5.79l.7-.34.08.07-.34.6.26-.07a1,1,0,0,1,.06.25c0,.09,0,.19-.05.29V6.41l-.1,0-.52.81.09.06.54-.65-.21.58.09,0L21,6.78l.05.29.76-1,.07,0-.42.64.08.05.21-.26.09.25.83-.94.05,0-.53.71.06,0,1.06-1.13.08.08-.51.65.11.12.8-1.05.13.12-.53.61.09.1A2.73,2.73,0,0,0,24,5.68c.2-.34.48-.31.78-.29a1.5,1.5,0,0,1,.29.06L28.25,6a1.68,1.68,0,0,0,.5,0A8,8,0,0,1,31,6.24a.67.67,0,0,1,.25.08c.36.32.82.26,1.24.34a3.37,3.37,0,0,1,.55.12c.15,0,.31.12.21.34,0,.06,0,.15,0,.22.13.34,0,.54-.28.66a1.13,1.13,0,0,1-1.48-.65c0-.06.08-.2.16-.26A1.6,1.6,0,0,1,32,7c-.25-.2-.48-.29-.73-.07a.53.53,0,0,0-.12.77,1.54,1.54,0,0,0,1.34.77H33A2.6,2.6,0,0,1,31,8.12c-.05,0-.21.08-.28,0a2.26,2.26,0,0,1-.41-.3L29.87,8l.23-.3-.2,0,.21-.67c-.45-.19-.32.42-.65.36l.05-.3H29.3l-.16-.57a1.74,1.74,0,0,0-.15.25c-.09.22-.16.45-.26.66a.52.52,0,0,1-.51.35c-.11,0-.22.11-.33.17s-.07-.17-.13-.34l-.26.49L27.45,8a3.06,3.06,0,0,1-.51.1s-.08-.17-.13-.29l-.39.57L26.5,8l-.07-.08-.6.26.13-.3-.05,0-.29.27-.73-.18,0,.12c.47.08.9.84,1.44.06l-.19.3.3,0a.52.52,0,0,1-.77.19,11.23,11.23,0,0,0-1.37-.5l0,.07.86.44h-.66l.2.28-.7.54-.06,0L24,9.05c-.24-.05-.37,0-.41.26s-.11.55-.18.82a1.39,1.39,0,0,1-.12.28l-.1,0,.18-.62-.05,0a2,2,0,0,0-.2.3,1.7,1.7,0,0,0-.12.34h-.1l-.14-.53-.52,1-.07,0,.48-1.14-.12-.07c-.13.26-.27.51-.39.76a5.46,5.46,0,0,1-.48.85l.48-1.2-.1,0-.48.73ZM19.09,7.07l0,.19h.07l.4-.75-.07,0L19.14,7l.08-.38a1.4,1.4,0,0,0-.47,1.14ZM17.16,8a9.52,9.52,0,0,0-1,2.47A6.84,6.84,0,0,0,17.16,8Zm3.29-1.66a1.37,1.37,0,0,0-.73,1.19ZM19.19,7.68l.13.07L20,6.41l-.13-.06Zm-.42-.82c-.5.12-.43.57-.62.86l.1.06Zm-1.43.32-.12-.07L16.83,8l.1.05Zm13-.35a.51.51,0,0,0,.38.75Zm-13.48,3c-.38.37-.44.59-.25.78Zm7.05-4L24,6a.42.42,0,0,0,.45-.5ZM17.86,8.27l-.14-.08-.32.59.11.06Z"/><path class="cls-1" d="M20.79,5.52l-.08-.07c0-.22.08-.32.31-.24A.62.62,0,0,0,21.78,5a1.4,1.4,0,0,1,.61-.34A10.13,10.13,0,0,1,24.06,4a7.87,7.87,0,0,1,2.44-.28,13.08,13.08,0,0,0,1.68-.1,15.17,15.17,0,0,1,2,0,14.43,14.43,0,0,0,1.73.15,11,11,0,0,1,1.9.18,14.67,14.67,0,0,0,2.81.23,8,8,0,0,1,3.12.54.51.51,0,0,1,.28.35.82.82,0,0,1-.2.56,1,1,0,0,1-1,.22c-.19-.08-.45,0-.67,0l0,.09-.26-.3-.15.27L37,5.64,37,5.77a2.41,2.41,0,0,0-.74-.11c-.17,0-.4-.14-.52.11-.07,0-.17,0-.2-.11-.18-.37-.32-.18-.46,0l-.11.17-.18-.46-.63.06,0-.11-.15.24-.08-.25-.19.2-.18-.24-.13.22-.13-.33L33,5.33l-.08-.19-.31.27-.36-.21c-.41.33-.31-.32-.58-.35l0,.44-.19-.42-.19.39-.08,0V4.9l-.4.43,0,0,.15-.49-.26.23-.1-.24-.23.35-.84.13-.08-.16-.18.3-.1-.36-.2.24L28.68,5l-.15.22c-.14,0-.31,0-.37-.09s-.1-.27-.18-.54l-.32.57-.14-.24-.1.43-.64-.46v.3l-.07,0-.21-.37-.1.07.06.25c-.31.35-.65.24-1,.07a2.59,2.59,0,0,0-1.58-.14c-.18,0-.36.09-.58.14L23.4,5l-1,.62-.1-.22-.73.7-.1-.11,1.1-1c-.16,0-.29,0-.37,0s-.21.24-.33.32-.27.41-.58.25c0,0-.15.11-.23.17L20.77,6l.44-.68Z"/><path class="cls-1" d="M8.27,8.24a2,2,0,0,0,.17.23c.46.42.94.83,1.45,1.28A1.3,1.3,0,0,1,8.82,9.2,10.11,10.11,0,0,0,8,8.31l.15.42L7.7,8.46l0,.07a20.48,20.48,0,0,0,2.28,2l-.1.12c-.19-.14-.37-.29-.56-.41a1.24,1.24,0,0,0-.39-.1c-.11,0-.27,0-.34-.09-.27-.25-.51-.53-.81-.85l.26,0,0-.05L7.13,8.5l0-.09L7.53,9l-.37.11.61.43-.15.24.88.79A2.47,2.47,0,0,1,7.09,9.2L7,9.27A.85.85,0,0,0,7,9.5a3.66,3.66,0,0,1,.07,1.8C7,12,7,12.61,7,13.27c0,.33,0,.65-.07,1,0,0-.07,0-.07-.06a9.34,9.34,0,0,1-.22-1.65,14.48,14.48,0,0,0-.18-3.22,3.5,3.5,0,0,1,0-1.07c.08-.64.21-1.27.28-1.91a1.15,1.15,0,0,1,1.16-.9c.82,0,1.64,0,2.46,0,.4,0,.8-.07,1.2-.1a4.51,4.51,0,0,1,.52,0v.09l-1.79.25v.14l1.09-.06c-.09.38-.14.73-.25,1s-.27.56-.39.85c0,.08,0,.19,0,.29s0,.25,0,.44l-.46-.25-.76.46c.11.07.25.11.27.19s0,.22-.07.34-.24,0-.31-.09c-.22-.18-.38-.41-.61-.57a2.25,2.25,0,0,0-.58-.22.64.64,0,0,0-.47-.87L8,7.72a3.88,3.88,0,0,1-.52-.46.33.33,0,0,0-.32,0,.33.33,0,0,0,0,.32,6.2,6.2,0,0,0,.53.59l-.12-.44Zm.84-1.73c.35.32.6.75,1,.86l.34-.32,0-.12c-.69.11-1-.35-1.43-.76L9,6.24c0,.09.07.19.1.29L8.2,6.16a2.09,2.09,0,0,0,.35.7s.2,0,.3,0l0-.15Zm.57,1.82c-.49-.31-.76-.89-1.35-1,0,.55.48.7.75,1S9.44,8.62,9.68,8.33Zm0-2.52.66.6-.3.18v.1a3.23,3.23,0,0,0,.53,0,3.64,3.64,0,0,0,.55-.09,3.74,3.74,0,0,1-.36-.26c-.24-.21-.75-.18-.58-.73ZM8.86,7.08c.22.18.51.3.56.49.13.47.24.15.37,0l.39.28c.09-.25,0-.35-.23-.42a1.08,1.08,0,0,1-.45-.24C9.32,7,9.14,7,8.86,7.08ZM7.7,6.85l.12-.08c-.19-.25-.37-.5-.56-.74,0,0-.14,0-.21,0s0,.19,0,.23C7.27,6.46,7.49,6.65,7.7,6.85Zm1-.95,1.06.33C9.38,5.74,9.12,5.66,8.68,5.9Zm-.5,3.42a.86.86,0,0,0,.61.68l.08-.09Z"/><path class="cls-1" d="M13.54,9.15v.93L13,9.38l-.08,0,.67,1.19-.35-.27-.07,0,.46.8-.08.07-.39-.51-.12.1.73,1-.08.06-1.26-1.67A12.62,12.62,0,0,0,14,12.7a8.38,8.38,0,0,1-2-2.92l.38,3.16h-.13l-.12-.78c-.08-.62-.16-1.24-.26-1.85s-.24-1.13-.36-1.7a1.88,1.88,0,0,1,0-.34c0-.58,0-1.16,0-1.74A1.45,1.45,0,0,1,11.66,6c.1-.19.28-.19.49-.15.63.14,1.27.25,1.9.38a1.24,1.24,0,0,1,.52.18l-.92.06v.14c.14,0,.29,0,.43.06l.46.09c0,.15,0,.35-.13.46A2.07,2.07,0,0,0,14,8.74a16.42,16.42,0,0,0,.39,2.7A28.84,28.84,0,0,1,15,14.9c0,.34.18.67.25,1a.8.8,0,0,1-.07.47c-.1-.47-.19-.95-.31-1.42s-.27-1-.39-1.49-.21-1-.3-1.48-.19-1-.27-1.51a7,7,0,0,0-.2-1.37ZM13,10.7l.13-.07-1-1.76L11.94,9Zm.89-2.17a2.43,2.43,0,0,1-.41-.31c-.11-.13-.17-.3-.27-.44S13,7.71,13,7.68s-.06.18,0,.21c.24.24.49.47.74.69C13.69,8.6,13.77,8.56,13.86,8.53Zm-.44.83L12.7,8.05A1.48,1.48,0,0,0,13.42,9.36ZM13.22,7c.08-.33-.18-.75-.42-.76a.16.16,0,0,0-.14,0,.17.17,0,0,0,0,.15C12.84,6.66,13,6.83,13.22,7Zm-1.32.57c-.21.21-.08.64.25,1l.1,0ZM13,10.21l.13-.08-.6-1.05-.11.06Zm.31-2.72a4.48,4.48,0,0,0,.12.47.28.28,0,0,0,.18.11s.15,0,.15-.08a.29.29,0,0,0,0-.21A3.24,3.24,0,0,0,13.34,7.49Zm.32-.39-.15.09.22.4L14,7.41ZM12.49,8.72c.28-.42-.16-.52-.16-.76l-.1,0Zm.41-1.36L13,7.31a2.45,2.45,0,0,0-.24-.38s-.15,0-.22,0,0,.16,0,.2A2.7,2.7,0,0,0,12.9,7.36Z"/><path class="cls-1" d="M23.53,13.73c.42.33.3.76.2,1.22l.34-.09-.13.8.11,0,.28-.58v.52l.33-.24-.16.53.34-.22v.2l.27-.08-.31.45-.16-.11-.26.28,0,0L24.5,16l-.06,0-.4.43L24,16.37l.29-.43-.07-.07-.49.72-.16-.15.34-.48,0,0-.25.15.35-1-.09,0-.66,1.26-.1-.05.28-.44-.06-.07-.4.26.63-1.41-.16-.08c-.37.51-.41,1.22-1,1.63l.52-.95-.07,0-.64.85-.08,0,.49-1c-.43-.11-.21.48-.61.47-.21,0-.44.31-.7.45l.86-1.22-.29-.17c-.24.28-.46.58-.72.83s-.54.46-.81.69l-.1-.1c.3-.28.61-.55.9-.84a.61.61,0,0,0,.2-.37l-1.43,1.34L19.84,16l.26-.28,0-.06-.53.38L19.44,16l.7-.52L20,15.28l-1,.77L19,15.94l.6-.58-.06-.09-.74.56,0,0,.21-.32-.54.2.17-.3-.42.21a8.58,8.58,0,0,0,1.22-1.41l-.08-.08L18,15.34l-.1-.09.3-.3c.11-.11.23-.19.32-.3a2.11,2.11,0,0,0,.21-.31l-.07,0-1,.92-.05,0,.09-.2-.15-.05.17-.29,0-.06-.34.2c-.23-.21,0-.35.09-.51a1.64,1.64,0,0,1,1.7-.52s.13,0,.15.06c.15.24.33.22.55.08l-.24.39.06.05.59-.53.05,0-.27.42.07.06L21,13.26l.07.05-.45.59.08.08.75-.77,0,0-.44.65.09.07.43-.56.05,0-.21.44.07.05.81-1,.08.06-.67.95.06.05.42-.41,0,0-.1.17.23.37c.17,0,.38,0,.57-.2S23.31,13.79,23.53,13.73Z"/><path class="cls-1" d="M27.94,13c-.05-.6,0-.79.64-1s.93-.32,1.38-.5a3.84,3.84,0,0,0,.63-.39c.21-.14.37-.07.39.16,0,.41.18.87-.32,1.15-.13.08-.2.35-.32.37-.37.06-.53.53-.94.46-.06.24-.48,0-.46.38a.66.66,0,0,1-.32,0L28,13.7l.14-.54-.64-.11.06-.6C27.68,12.64,27.6,12.92,27.94,13Z"/><path class="cls-1" d="M28.68,10.24c.09.37.19,0,.27,0l.06.6c.29-.19.28-.55,0-1A.65.65,0,0,0,29.3,9h2.46a3.75,3.75,0,0,1-2.69,2.28l.2-.36c-.43.09-.63.65-1.1.37l.64-.55-.06-.08-.7.51,0,0,.59-.52-.05-.07-.63.43,0-.05.79-.67Z"/><path class="cls-1" d="M6.26,15.94c-.1-.39-.22-.77-.3-1.16-.18-.82-.37-1.63-.51-2.46A5.8,5.8,0,0,1,5.81,9c.09-.2.16-.4.25-.61l.11,0c0,.08,0,.16,0,.24,0,1,0,2.09.06,3.13s.13,2.25.18,3.38a3.59,3.59,0,0,1-.11.72Z"/><path class="cls-1" d="M25.8,15.48l.37,0s.13,0,.15,0c.18-.24.36-.49.53-.74l.16-.26.12.07-.55,1a1.29,1.29,0,0,0,.83-.86.57.57,0,0,1,.58-.43A10.5,10.5,0,0,0,29.23,14c.2,0,.4,0,.67-.07l-.48,1.44.14.08-.25.32-.08,0,0-.4-.08,0-.32.53-.06,0,.1-.4-.07,0-.36.53,0,0,0-.26-.05,0-.13.2c-.66,0-1.27,0-1.87-.06a3,3,0,0,1-.65-.17Z"/><path class="cls-1" d="M15.46,13.07l-.35-.92a4.65,4.65,0,0,0,.59,2.45l-.26-.12L16,15.62l-.12.06a8,8,0,0,1-.67-1.38c-.29-1.07-.49-2.16-.7-3.25a9.8,9.8,0,0,1-.13-1.54l.36,1.41h.08a5,5,0,0,0,0-.67c-.09-.59-.21-1.18-.31-1.76,0-.12,0-.25,0-.37,0-.4.05-.48.44-.44h.29A21.56,21.56,0,0,0,15.46,13.07Z"/><path class="cls-1" d="M25.86,11c.12-.28-.19-.66.25-.87s.62-.42,1-.08l-.7,0v.11h.72v.08l-.67.05v.09l.72,0v0l-.63.13.55.06v.06l-1.17.33Z"/><path class="cls-1" d="M10.56,14.36a18.92,18.92,0,0,1-3.14-2.19l.08-.12c.27.2.53.4.81.58L10.44,14C10.59,14.11,10.73,14.18,10.56,14.36Z"/><path class="cls-1" d="M11.73,13c0-.82-.87-.72-1.1-1.36l.92.58-.22-1.14.11,0,.6,2.48-1.21-.85c.07-.1.28-.1.46,0Z"/><path class="cls-1" d="M26.14,12.46l-.44-.17-.08.1.44.28v.05l-.42-.06.58.42-1.31-.4v0h.44v-.05l-.48-.13v-.1l.54,0v-.06l-.7-.24,0-.14a3.53,3.53,0,0,1,.46,0c.18,0,.35.08.53.1S26.07,12.2,26.14,12.46Z"/><path class="cls-1" d="M7.59,13.63l2.83,1.85-.08.14c-.59-.35-1.19-.68-1.75-1-.38-.26-.71-.59-1.06-.88Z"/><path class="cls-1" d="M10.35,16.86a11.39,11.39,0,0,1-2.77-1.78L7.64,15l2.78,1.79Z"/><path class="cls-1" d="M28.69,10.25a.61.61,0,0,0-.24,0c-.2.13-.38.28-.57.43l-.07-.09.63-.51,0-.07-.47.25,0,0,.46-.4-.59-.13,0-.14-.06-.05-.37.3,0-.22-.4.15.3-.42h0c.27.05.63-.12.73.31.54,0,.84.2.69.57Z"/><path class="cls-1" d="M7.56,12.84l1.28.87.86.56a.53.53,0,0,1,.17.16s0,.14-.1.15a.32.32,0,0,1-.2-.07C9,14.13,8.48,13.74,8,13.34a3.64,3.64,0,0,1-.46-.42Z"/><path class="cls-1" d="M14.77,16.25,12.52,13.8l.12-.12,2.24,2.47Z"/><path class="cls-1" d="M10.12,16A4.16,4.16,0,0,1,8,14.55Z"/><path class="cls-1" d="M14.65,15.44a10.21,10.21,0,0,1-2-2.08l.1-.09Z"/><path d="M26.42,8.39l-.3,0,.19-.3c-.54.78-1,0-1.44-.06l0-.12.73.18.29-.27.05,0-.13.3.6-.26L26.5,8l-.08.38Z"/><path class="cls-1" d="M26.14,14.87a5.41,5.41,0,0,1-.87-.4c-.16-.1-.16-.29.1-.33S26.11,14.16,26.14,14.87Z"/><path class="cls-1" d="M12.59,12l1.77,2.12A4.93,4.93,0,0,1,12.59,12Z"/><path class="cls-1" d="M14.07,13.31a5.32,5.32,0,0,1-1.62-2.14Z"/><path class="cls-1" d="M7.61,11.3,9,12.46l-.09.11-1.46-1.1Z"/><path class="cls-1" d="M11.06,10.71c-.42-.1-.82-.53-.79-.85C10.62,9.93,11.11,10.45,11.06,10.71Z"/><path class="cls-1" d="M13.88,15.74,12.6,14.33C13,14.44,13.91,15.45,13.88,15.74Z"/><path class="cls-1" d="M8.87,16.48a5.13,5.13,0,0,1-1.47-.94l.07-.11,1.45,1Z"/><path class="cls-1" d="M24.58,9.86c.05.61-.25.89-.85,1.05.12-.19.18-.39.27-.4a.46.46,0,0,0,.43-.45C24.44,10,24.51,10,24.58,9.86Z"/><path class="cls-1" d="M11.39,9l.27,1.88A2.38,2.38,0,0,1,11.39,9Z"/><path class="cls-1" d="M16.63,15.66l-.76-1.53.11-.06.79,1.51Z"/><path class="cls-1" d="M13.89,14.16a1.84,1.84,0,0,1-.34-.27c-.34-.39-.66-.79-1-1.19a.25.25,0,0,1,0-.23l1.36,1.67Z"/><path class="cls-1" d="M12.78,15.81c.33-.19,0-.32,0-.49a.66.66,0,0,1,.48.9Z"/><path class="cls-1" d="M16.17,16.22c-.51-.1-.63-.27-.72-1Z"/><path class="cls-1" d="M27.27,9.35l-.52.26-.09-.14-.31.13-.07-.11a2,2,0,0,1,.5-.26c.15,0,.39-.14.48.13Z"/><path class="cls-1" d="M10.05,11.51l-1.4-1A2.38,2.38,0,0,1,10.05,11.51Z"/><path class="cls-1" d="M10.29,9.09c.51.24.62.38.53.73C10.67,9.53,10.15,9.59,10.29,9.09Z"/><path class="cls-1" d="M16.4,15.48c-.1,0-.23,0-.25,0a1,1,0,0,1-.23-.4,3.87,3.87,0,0,1,0-.59Z"/><path class="cls-1" d="M13.54,15.87l-.9-1.11.11-.08.9,1.09Z"/><path class="cls-1" d="M27.33,12l-.42.93h-.05a2.46,2.46,0,0,0,.09-.34.77.77,0,0,0-.1-.26s-.08-.11-.07-.15a.23.23,0,0,1,.14-.13Z"/><path class="cls-1" d="M31.67,6.1h1.38v.05H31.67Z"/><path class="cls-1" d="M27,8.32l1.26-.15A1,1,0,0,1,27,8.32Z"/><path class="cls-1" d="M26,15.07l-1.19-.4,0-.12,1.18.37A.5.5,0,0,1,26,15.07Z"/><path class="cls-1" d="M8.11,11.16c-.17-.24-.65-.17-.51-.72l.59.64Z"/><path class="cls-1" d="M15.43,6.49c.17.18.34.35.5.53,0,0-.06.12-.1.19s-.14,0-.17-.1-.2-.37-.3-.55Z"/><path d="M20.79,5.52l.42-.2L20.77,6l-.06,0-.26.07Z"/><path class="cls-1" d="M15.59,8.07v-.5h.5l.05.06Z"/><path class="cls-1" d="M10.4,8.34l.44.6C10.35,8.86,10.29,8.77,10.4,8.34Z"/><path class="cls-1" d="M20.92,16l.73-1,.1.1Z"/><path class="cls-1" d="M23,11.63c-.26-.28-.12-.45,0-.62,0,0,.12,0,.18,0Z"/><path class="cls-1" d="M24.32,11.93l.57-.42.12.18-.64.3Z"/><path class="cls-1" d="M21.57,10.69a1.06,1.06,0,0,1-.53,1c.19-.35.37-.65.54-1Z"/><path class="cls-1" d="M24.56,11.4l-.56.8A.84.84,0,0,1,24.56,11.4Z"/><path class="cls-1" d="M11.23,7.55V8.61h0V7.55Z"/><path class="cls-1" d="M27.65,11.92l-.38.73-.08,0,.32-.74Z"/><path class="cls-1" d="M13.9,14.14l.64.58-.13.12-.52-.68Z"/><path d="M17.16,8a6.84,6.84,0,0,1-1,2.47A9.52,9.52,0,0,1,17.16,8Z"/><path d="M20.45,6.36l-.73,1.19A1.37,1.37,0,0,1,20.45,6.36Z"/><path d="M19.19,7.68l.67-1.33.13.06-.67,1.34Z"/><path d="M19.09,7.07l-.34.66a1.4,1.4,0,0,1,.47-1.14L19.14,7Z"/><path d="M18.77,6.86l-.52.92-.1-.06C18.34,7.43,18.27,7,18.77,6.86Z"/><path d="M20.73,6.58l-.54.65-.09-.06.52-.81.1,0v.18Z"/><path d="M17.34,7.18l-.41.9L16.83,8l.39-.92Z"/><path d="M30.34,6.83l.38.75A.51.51,0,0,1,30.34,6.83Z"/><path d="M16.86,9.87l-.25.78C16.42,10.46,16.48,10.24,16.86,9.87Z"/><path d="M23.91,5.86l.51-.4A.42.42,0,0,1,24,6Z"/><path d="M19.09,7.07l.05-.1.38-.49.07,0-.4.75h-.07Z"/><path d="M17.86,8.27l-.35.57-.11-.06.32-.59Z"/><path d="M8.27,8.24l-.78-.53.12.44a6.2,6.2,0,0,1-.53-.59.33.33,0,0,1,0-.32.33.33,0,0,1,.32,0A3.88,3.88,0,0,0,8,7.72L7.8,7.37a.64.64,0,0,1,.47.87Z"/><path d="M9.68,8.33c-.24.29-.41.21-.6,0s-.77-.47-.75-1C8.92,7.44,9.19,8,9.68,8.33Z"/><path d="M9.67,5.81l.51-.16c-.17.55.34.52.58.73a3.74,3.74,0,0,0,.36.26,3.64,3.64,0,0,1-.55.09,3.23,3.23,0,0,1-.53,0v-.1l.3-.18Z"/><path d="M9.12,6.53,9,6.24l.07-.07c.38.41.74.87,1.43.76l0,.12-.34.32c-.42-.11-.67-.54-1-.86Z"/><path d="M8.86,7.08c.28-.1.46-.12.64.11a1.08,1.08,0,0,0,.45.24c.21.07.32.17.23.42l-.39-.28c-.13.15-.24.47-.37,0C9.37,7.38,9.08,7.26,8.86,7.08Z"/><path d="M9.11,6.51l-.29.24,0,.15c-.1,0-.25,0-.3,0a2.09,2.09,0,0,1-.35-.7l.92.37Z"/><path d="M7.7,6.85c-.21-.2-.43-.39-.63-.6,0,0,0-.15,0-.23s.18,0,.21,0c.19.24.37.49.56.74Z"/><path d="M8.68,5.9c.44-.24.7-.16,1.06.33Z"/><path d="M8.18,9.32l.69.59L8.79,10A.86.86,0,0,1,8.18,9.32Z"/><path d="M13,10.7,11.94,9l.13-.08,1,1.76Z"/><path d="M13.86,8.53c-.09,0-.17.07-.19.05-.25-.22-.5-.45-.74-.69,0,0,0-.14,0-.21s.18,0,.22.1.16.31.27.44A2.43,2.43,0,0,0,13.86,8.53Z"/><path d="M13.42,9.36a1.48,1.48,0,0,1-.72-1.31Z"/><path d="M13.22,7c-.2-.21-.38-.38-.54-.56a.17.17,0,0,1,0-.15.16.16,0,0,1,.14,0C13,6.29,13.3,6.71,13.22,7Z"/><path d="M11.9,7.61l.35,1-.1,0C11.82,8.25,11.69,7.82,11.9,7.61Z"/><path d="M13,10.21l-.58-1.07.11-.06.6,1.05Z"/><path d="M13.34,7.49a3.24,3.24,0,0,1,.4.29.29.29,0,0,1,0,.21s-.1.09-.15.08A.28.28,0,0,1,13.46,8,4.48,4.48,0,0,1,13.34,7.49Z"/><path d="M13.66,7.1l.32.31-.25.18-.22-.4Z"/><path d="M12.49,8.72,12.23,8l.1,0C12.33,8.2,12.77,8.3,12.49,8.72Z"/><path d="M12.9,7.36a2.7,2.7,0,0,1-.34-.25s0-.14,0-.2.19,0,.22,0a2.45,2.45,0,0,1,.24.38Z"/></g></svg>