<?xml version="1.0" encoding="UTF-8"?>
<svg width="175px" height="47px" viewBox="0 0 175 47" version="1.1" xmlns="http://www.w3.org/2000/svg" xmlns:xlink="http://www.w3.org/1999/xlink">
    <!-- Generator: Sketch 51.2 (57519) - http://www.bohemiancoding.com/sketch -->
    <title>Barbershop_red</title>
    <desc>Created with Sketch.</desc>
    <defs></defs>
    <g id="Page-1" stroke="none" stroke-width="1" fill="none" fill-rule="evenodd">
        <g id="Desktop-HD" transform="translate(-31.000000, -31.000000)" fill="#E6433E">
            <g id="Barbershop_red" transform="translate(31.000000, 31.000000)">
                <path d="M0,46.8279899 L174.894764,46.8279899 L174.894764,0.000118243243 L0,0.000118243243 L0,46.8279899 Z M1.98648649,44.8415034 L172.908277,44.8415034 L172.908277,1.98778716 L1.98648649,1.98778716 L1.98648649,44.8415034 Z" id="Fill-1"></path>
                <g id="Group-12" transform="translate(3.547297, 11.355017)">
                    <path d="M3.75197635,9.87425676 L3.75197635,4.23405405 L7.38204392,4.23405405 C8.15653716,4.23405405 8.80805743,4.29908784 9.32005068,4.42679054 C9.8166723,4.55094595 10.2163345,4.72831081 10.5072128,4.95652027 C10.7886318,5.17763514 10.9931926,5.46023649 11.117348,5.79841216 C11.2462331,6.15432432 11.3124493,6.56581081 11.3124493,7.0210473 C11.3124493,8.05685811 11.029848,8.79351351 10.4717399,9.21445946 C9.89116554,9.65314189 8.93221284,9.87425676 7.6220777,9.87425676 L3.75197635,9.87425676 Z M12.0916723,16.1364189 C12.0916723,18.3333784 10.740152,19.4022973 7.96261824,19.4022973 L3.75197635,19.4022973 L3.75197635,12.8480743 L7.64217905,12.8480743 C8.49826014,12.8480743 9.22545608,12.9166554 9.80366554,13.0526351 C10.3641385,13.1838851 10.819375,13.3848986 11.1563682,13.6509459 C11.4886318,13.9146284 11.7215709,14.2374324 11.8658277,14.6394595 C12.0159966,15.0556757 12.0916723,15.5593919 12.0916723,16.1364189 Z M24.5911655,13.4440203 L18.9013007,13.4440203 L21.6835642,4.90449324 L24.5911655,13.4440203 Z M41.8286655,8.8952027 C41.671402,9.30195946 41.4337331,9.63067568 41.1180236,9.87543919 C40.7940372,10.1249324 40.3719088,10.307027 39.8646453,10.4158108 C39.336098,10.5316892 38.7011318,10.5884459 37.9739358,10.5884459 L32.7534966,10.5884459 L32.7534966,4.05668919 L38.3546791,4.05668919 C40.8567061,4.05668919 42.0722466,5.11969595 42.0722466,7.31074324 C42.0722466,7.94334459 41.9906588,8.47543919 41.8286655,8.8952027 Z M48.0896453,9.87425676 L48.0896453,4.23405405 L51.7185304,4.23405405 C52.4930236,4.23405405 53.1445439,4.29908784 53.6577196,4.42679054 C54.1543412,4.55094595 54.5528209,4.72831081 54.8436993,4.95652027 C55.1251182,5.17763514 55.3308615,5.46023649 55.4538345,5.79841216 C55.5827196,6.15432432 55.6489358,6.56581081 55.6489358,7.0210473 C55.6489358,8.05685811 55.3663345,8.79351351 54.8082264,9.21445946 C54.227652,9.65314189 53.2698818,9.87425676 51.9585642,9.87425676 L48.0896453,9.87425676 Z M56.4281588,16.1364189 C56.4281588,18.3333784 55.0778209,19.4022973 52.2991047,19.4022973 L48.0896453,19.4022973 L48.0896453,12.8480743 L51.9786655,12.8480743 C52.8347466,12.8480743 53.563125,12.9166554 54.1413345,13.0526351 C54.7018074,13.1838851 55.1570439,13.3848986 55.4928547,13.6509459 C55.8263007,13.9146284 56.0580574,14.2374324 56.2034966,14.6394595 C56.3524831,15.0556757 56.4281588,15.5593919 56.4281588,16.1364189 Z M58.5281588,12.9308446 C58.2207264,12.4685135 57.8257939,12.0605743 57.3540034,11.7176689 C57.0205574,11.4752703 56.6457264,11.2730743 56.2354223,11.1158108 C57.7690372,10.1202027 58.5435304,8.65989865 58.5435304,6.76800676 C58.5435304,5.93439189 58.3933615,5.16935811 58.0942061,4.49537162 C57.7950507,3.81783784 57.3563682,3.23253378 56.7899831,2.75719595 C56.2295101,2.28540541 55.5366047,1.91766892 54.7278209,1.66344595 C53.9296791,1.41040541 53.0073818,1.2827027 51.988125,1.2827027 L45.1938682,1.2827027 L45.1938682,20.4522973 L43.8766385,16.4202027 C43.2783277,14.6370946 42.4364358,13.4156419 41.3686993,12.7806757 C41.7707264,12.6328716 42.1502872,12.4495946 42.5014696,12.2332095 C43.027652,11.9080405 43.4876182,11.5001014 43.8695439,11.0212162 C44.2502872,10.5423311 44.5482601,9.98185811 44.7575507,9.35516892 C44.9644764,8.73202703 45.067348,8.03557432 45.067348,7.28827703 C45.067348,6.17915541 44.9041723,5.2272973 44.5790034,4.45753378 C44.2514696,3.68067568 43.7784966,3.04807432 43.1754561,2.57983108 C42.5783277,2.11513514 41.8523142,1.77932432 41.0139696,1.57831081 C40.1909966,1.38320946 39.2616047,1.2827027 38.2518074,1.2827027 L29.8577196,1.2827027 L29.8577196,19.5347297 L23.1616047,1.2827027 L20.2114358,1.2827027 L15.1045101,16.1044932 C15.1021453,15.5463851 15.027652,14.9918243 14.879848,14.455 C14.7273142,13.9028041 14.4955574,13.3908108 14.1916723,12.9308446 C13.8842399,12.4685135 13.488125,12.0605743 13.0163345,11.7176689 C12.6840709,11.4752703 12.3092399,11.2730743 11.8989358,11.1158108 C13.4313682,10.1202027 14.2070439,8.65989865 14.2070439,6.76800676 C14.2070439,5.93439189 14.0556926,5.16935811 13.7565372,4.49537162 C13.4573818,3.81783784 13.0186993,3.23253378 12.4523142,2.75719595 C11.8930236,2.28540541 11.1989358,1.91766892 10.3913345,1.66344595 C9.59201014,1.41040541 8.67089527,1.2827027 7.65163851,1.2827027 L0.856199324,1.2827027 L0.856199324,22.3761149 L7.98153716,22.3761149 C10.2920101,22.3761149 12.0739358,21.8440203 13.277652,20.7940203 C13.4077196,20.6816892 13.5034966,20.5397973 13.619375,20.4144595 L13.0577196,22.0462162 L12.9442061,22.3761149 L16.0315372,22.3761149 L18.0771453,16.0832095 L25.4815372,16.0832095 L27.627652,22.3761149 L29.8577196,22.3761149 L30.900625,22.3761149 L32.7534966,22.3761149 L32.7534966,13.5622635 L37.0646453,13.5622635 C37.5009628,13.5622635 37.9195439,13.6391216 38.3097466,13.790473 C38.7046791,13.9441892 39.0688682,14.1617568 39.3940372,14.4396284 C39.7227534,14.7222297 40.0183615,15.0568581 40.271402,15.4364189 C40.5268074,15.819527 40.7325507,16.2499324 40.8850845,16.7134459 L42.6788345,22.3761149 L45.1938682,22.3761149 L45.8217399,22.3761149 L52.3180236,22.3761149 C54.6284966,22.3761149 56.4104223,21.8440203 57.6141385,20.7940203 C58.8284966,19.7392905 59.4445439,18.1725676 59.4445439,16.1399662 C59.4445439,15.5700338 59.3676858,15.0036486 59.2163345,14.455 C59.0638007,13.9028041 58.8332264,13.3908108 58.5281588,12.9308446 Z" id="Fill-2"></path>
                    <polygon id="Fill-4" points="62.3753209 12.9595777 72.5915372 12.9595777 72.5915372 9.98576014 62.3753209 9.98576014 62.3753209 4.23440878 73.3104561 4.23440878 73.3104561 1.28305743 59.4807264 1.28305743 59.4807264 22.3764696 73.7302196 22.3764696 73.7302196 19.4014696 62.3753209 19.4014696"></polygon>
                    <path d="M85.7959966,8.89555743 C85.6399155,9.30113176 85.3998818,9.63221284 85.0853547,9.87579392 C84.7625507,10.1252872 84.3404223,10.3061993 83.8331588,10.4161655 C83.3057939,10.5308615 82.6684628,10.5876182 81.9424493,10.5876182 L76.7220101,10.5876182 L76.7220101,4.05586149 L82.3231926,4.05586149 C84.8252196,4.05586149 86.0407601,5.12005068 86.0407601,7.30991554 C86.0407601,7.94133446 85.9591723,8.47579392 85.7959966,8.89555743 M85.3372128,12.7810304 C85.7392399,12.6332264 86.1176182,12.4499493 86.4688007,12.2335642 C86.9949831,11.9083953 87.4549493,11.5004561 87.8380574,11.0203885 C88.2188007,10.5438682 88.5167736,9.98339527 88.7260642,9.35552365 C88.9318074,8.73356419 89.0370439,8.03829392 89.0370439,7.28863176 C89.0370439,6.18069257 88.8726858,5.22765203 88.5475169,4.45788851 C88.2199831,3.67984797 87.7470101,3.04842905 87.145152,2.58018581 C86.5480236,2.11548986 85.8208277,1.77849662 84.9836655,1.57866554 C84.1583277,1.38238176 83.2301182,1.28305743 82.2203209,1.28305743 L73.8262331,1.28305743 L73.8262331,22.3764696 L76.7220101,22.3764696 L76.7220101,13.5626182 L81.0331588,13.5626182 C81.4682939,13.5626182 81.8880574,13.6394764 82.2782601,13.7896453 C82.6731926,13.9445439 83.0373818,14.1621115 83.3613682,14.4388007 C83.6912669,14.721402 83.986875,15.0572128 84.2399155,15.4367736 C84.4929561,15.8175169 84.6998818,16.2479223 84.853598,16.7126182 L86.6485304,22.3764696 L89.7902534,22.3764696 L87.8427872,16.4205574 C87.2468412,14.6362669 86.4061318,13.4159966 85.3372128,12.7810304" id="Fill-6"></path>
                    <path d="M118.32897,12.7610473 C117.989611,12.3176351 117.595861,11.9368919 117.159544,11.6270946 C116.724409,11.3184797 116.266807,11.0689865 115.795017,10.8821622 C115.319679,10.7024324 114.763936,10.5132432 114.095861,10.3039527 C113.444341,10.0993919 112.689949,9.89010135 111.855152,9.68081081 C111.01326,9.47625 110.314443,9.27287162 109.776436,9.0789527 C109.247889,8.88858108 108.829307,8.67929054 108.532517,8.45935811 C108.25228,8.25243243 108.058361,8.01358108 107.957855,7.74871622 C107.849071,7.47084459 107.794679,7.12793919 107.794679,6.73064189 C107.794679,5.88875 108.123395,5.21949324 108.802111,4.68858108 C109.49147,4.14939189 110.509544,3.87743243 111.824409,3.87743243 C114.497889,3.87743243 115.900253,5.02202703 116.114274,7.37743243 L116.135557,7.60327703 L119.015963,7.60327703 L119.008868,7.34787162 C118.981672,6.33689189 118.781841,5.42287162 118.41647,4.62945946 C118.049916,3.83486486 117.540287,3.15378378 116.904139,2.6039527 C116.26799,2.05648649 115.501774,1.63554054 114.629139,1.35057432 C113.760051,1.06915541 112.783361,0.926081081 111.723902,0.926081081 C110.70228,0.926081081 109.758699,1.0727027 108.923902,1.36358108 C108.08201,1.65564189 107.358361,2.07067568 106.770693,2.59567568 C106.179476,3.12304054 105.71478,3.75918919 105.390794,4.48638514 C105.06326,5.21594595 104.89772,6.02236486 104.89772,6.88672297 C104.89772,7.65530405 105.010051,8.35175676 105.23353,8.95716216 C105.455828,9.56966216 105.818834,10.124223 106.310726,10.6019257 C106.794341,11.0737162 107.431672,11.4911149 108.206166,11.8446622 C108.970017,12.1911149 109.908868,12.4973649 110.996706,12.7527703 C112.052618,13.0022635 112.952449,13.2482095 113.671368,13.4811486 C114.379645,13.7105405 114.961402,13.9683108 115.401267,14.2438176 C115.818666,14.5075 116.121368,14.8184797 116.301098,15.1696622 C116.480828,15.5243919 116.573057,15.9772635 116.573057,16.5140878 C116.573057,17.0201689 116.469003,17.4754054 116.26326,17.8691554 C116.055152,18.2640878 115.765456,18.6010811 115.39772,18.8730405 C115.026436,19.1497297 114.571199,19.3661149 114.046199,19.5127365 C112.920524,19.8272635 111.456672,19.8047973 110.30853,19.4796284 C109.711402,19.311723 109.18049,19.049223 108.729983,18.7004054 C108.281841,18.3539527 107.91174,17.9093581 107.632686,17.3819932 C107.351267,16.8522635 107.183361,16.2125676 107.132517,15.4830068 L107.118328,15.25125 L104.250929,15.25125 L104.258024,15.5066554 C104.28522,16.528277 104.469679,17.4895946 104.804307,18.365777 C105.143666,19.2537838 105.654476,20.0306419 106.323733,20.67625 C106.991807,21.3230405 107.843159,21.8338514 108.850591,22.1944932 C109.853294,22.5504054 111.041639,22.7336824 112.383699,22.7336824 C113.407686,22.7336824 114.364274,22.5705068 115.228632,22.2477027 C116.094172,21.9248986 116.848564,21.472027 117.468159,20.903277 C118.091301,20.3321622 118.585557,19.6463514 118.937922,18.8671284 C119.289105,18.0855405 119.468834,17.2211824 119.468834,16.2965203 C119.468834,15.5563176 119.362416,14.8858784 119.154307,14.3029392 C118.947382,13.7211824 118.66951,13.203277 118.32897,12.7610473" id="Fill-8"></path>
                    <path d="M163.949578,7.62361486 C163.949578,8.77648649 163.640963,9.66449324 163.030828,10.2628041 C162.41951,10.8634797 161.338767,11.1685473 159.820524,11.1685473 L155.37103,11.1685473 L155.37103,4.23476351 L160.021537,4.23476351 C160.574916,4.23476351 161.104645,4.28797297 161.595355,4.39439189 C162.068328,4.49844595 162.486909,4.68172297 162.836909,4.93949324 C163.182179,5.19371622 163.455321,5.53898649 163.651605,5.96347973 C163.849071,6.39506757 163.949578,6.95317568 163.949578,7.62361486 M149.564105,11.8188851 C149.564105,13.0628041 149.412753,14.1991216 149.113598,15.1970946 C148.816807,16.187973 148.395861,17.0393243 147.863767,17.7310473 C147.33522,18.4168581 146.690794,18.9513176 145.947044,19.3166892 C145.205659,19.6844257 144.376774,19.8700676 143.484037,19.8700676 C142.604307,19.8700676 141.787247,19.687973 141.051774,19.3273311 C140.316301,18.9690541 139.675422,18.4381419 139.145693,17.7523311 C138.612416,17.0594257 138.189105,16.2057095 137.886402,15.2160135 C137.580152,14.2204054 137.426436,13.0769932 137.426436,11.8188851 C137.426436,10.544223 137.580152,9.39371622 137.886402,8.39692568 C138.189105,7.40959459 138.61478,6.56060811 139.15397,5.8747973 C139.688429,5.19608108 140.336402,4.67344595 141.077787,4.32108108 C141.823902,3.96635135 142.652787,3.78780405 143.544341,3.78780405 C144.421706,3.78780405 145.237584,3.96989865 145.96951,4.33054054 C146.697889,4.69 147.33522,5.21618243 147.863767,5.89608108 C148.397044,6.58070946 148.816807,7.42969595 149.113598,8.41820946 C149.412753,9.415 149.564105,10.5584122 149.564105,11.8188851 M166.424409,4.53155405 C166.062584,3.72631757 165.571875,3.07125 164.96174,2.5864527 C164.357517,2.1052027 163.64924,1.76347973 162.858193,1.56956081 C162.080152,1.37918919 161.266639,1.28222973 160.440118,1.28222973 L152.475253,1.28222973 L152.475253,10.2296959 C152.377111,9.21043919 152.189105,8.24793919 151.898226,7.36584459 C151.457179,6.03442568 150.83049,4.87682432 150.034713,3.92733108 C149.237753,2.97310811 148.271706,2.22817568 147.164949,1.70790541 C146.058193,1.18881757 144.826098,0.925135135 143.504139,0.925135135 C142.156166,0.925135135 140.908699,1.19591216 139.793666,1.73155405 C138.680997,2.26483108 137.712584,3.02277027 136.914443,3.98290541 C136.12103,4.93712838 135.496706,6.09827703 135.061571,7.43442568 C134.758868,8.36618243 134.566132,9.3747973 134.473902,10.4378041 L134.473902,1.28222973 L131.558024,1.28222973 L131.558024,9.69523649 L122.420186,9.69523649 L122.420186,1.28222973 L119.524409,1.28222973 L119.524409,22.3768243 L122.420186,22.3768243 L122.420186,12.6702365 L131.558024,12.6702365 L131.558024,22.3768243 L134.473902,22.3768243 L134.473902,13.2035135 C134.568497,14.2889865 134.767145,15.3106081 135.082855,16.248277 C135.528632,17.5808784 136.161233,18.7408446 136.964105,19.6986149 C137.768159,20.6575676 138.737753,21.4119595 139.843328,21.9381419 C140.951267,22.4655068 142.183361,22.7327365 143.504139,22.7327365 C144.813091,22.7327365 146.039274,22.4702365 147.143666,21.9499662 C148.250422,21.4332432 149.215287,20.6859459 150.015794,19.731723 C150.810389,18.7834122 151.440625,17.6258108 151.887584,16.2932095 C152.185557,15.4075676 152.375929,14.437973 152.475253,13.4092568 L152.475253,22.3768243 L155.37103,22.3768243 L155.37103,14.1423649 L159.787416,14.1423649 C162.125084,14.1423649 163.923564,13.579527 165.13201,12.4704054 C166.348733,11.3541892 166.967145,9.69405405 166.967145,7.53375 C166.967145,6.34304054 166.782686,5.33324324 166.424409,4.53155405" id="Fill-10"></path>
                </g>
            </g>
        </g>
    </g>
</svg>